<svg xmlns="http://www.w3.org/2000/svg" xmlns:xlink="http://www.w3.org/1999/xlink" width="64.728" height="87.972" viewBox="0 0 64.728 87.972">
  <defs>
    <linearGradient id="linear-gradient" x1="0.809" y1="0.959" x2="0.123" y2="0.127" gradientUnits="objectBoundingBox">
      <stop offset="0" stop-color="#eb1933"/>
      <stop offset="1" stop-color="#2151a1"/>
    </linearGradient>
  </defs>
  <g id="JK" transform="translate(913.001 -13731.999)">
    <path id="Path_13850" data-name="Path 13850" d="M69.849,12.4A32.363,32.363,0,0,0,22.763,55.953l25.684,36.6a.986.986,0,0,0,1.613,0l25.684-36.6a32.363,32.363,0,0,0-5.9-43.554Z" transform="translate(-929.891 13726.999)" fill="url(#linear-gradient)"/>
    <path id="Union_117" data-name="Union 117" d="M0,20A20,20,0,1,1,20,40,20,20,0,0,1,0,20ZM7.272,7.272A18,18,0,1,0,32.728,32.728,18,18,0,1,0,7.272,7.272Zm4.334,22.491H11.47c-7.8,0-8.639-6.476-8.639-6.476s1.725-.024,3.65,0c.225,2.375,3.15,4.275,6.525,2.575a6.267,6.267,0,0,0,3.425-5.2V15.888l9.437-7.706h5.85L20.082,17.464v3.574c-1.119,8.7-8.394,8.725-8.475,8.726ZM29.1,28.49,20.381,17.722l3.262-2.55L34.86,28.49ZM8.706,18.847h2.226v4.075Zm2.494-.029h2.263L11.2,22.893Zm-4.144.054H8.468l1.426,2.712Zm6.718-.053h1.313L12.35,21.531Zm-.081-.263-1.288-1.863h.851l1.775,1.863Zm-2.494,0V16.693h.894l1.337,1.863Zm-2.494,0,1.337-1.863h.894v1.863Zm-1.581,0L8.9,16.693h.85L8.462,18.556Zm9.226-6.718H11.1V8.113h9.125v4.25l-3.875,3.05Z" transform="translate(-901 13744)" fill="#fff"/>
  </g>
</svg>
