<svg xmlns="http://www.w3.org/2000/svg" width="20.257" height="20.154" viewBox="0 0 20.257 20.154">
  <g id="google-photos" transform="translate(-135.687 -36.519)">
    <path id="Path_13838" data-name="Path 13838" d="M391.489,36.6a.628.628,0,0,1,.145.125q2.419,2.431,4.838,4.866c-1.015,1-2.015,2.015-3.022,3.019-.379.383-.765.758-1.14,1.148-.281-.679-.551-1.363-.82-2.046,0-.711,0-1.421,0-2.136,0-1.656-.008-3.315,0-4.975Z" transform="translate(-245.659)" fill="#dd4b39" stroke="#dd4b39" stroke-width="0.094"/>
    <path id="Path_13839" data-name="Path 13839" d="M263.5,164h5c0,.715,0,1.425,0,2.136q-.416,1.007-.812,2.027a.9.9,0,0,1-.215-.187l-3.96-3.96Z" transform="translate(-122.693 -122.406)" fill="#ef851c" stroke="#ef851c" stroke-width="0.094"/>
    <path id="Path_13840" data-name="Path 13840" d="M416.762,164.112l.016-.012q-.006,2.5,0,4.994h-2.152c-.672-.281-1.351-.539-2.027-.816.375-.39.761-.765,1.14-1.148C414.747,166.127,415.746,165.111,416.762,164.112Z" transform="translate(-265.948 -122.501)" fill="#7e3794" stroke="#7e3794" stroke-width="0.094"/>
    <path id="Path_13841" data-name="Path 13841" d="M139.97,165.224c.281-.269.543-.558.832-.824l3.96,3.96a.894.894,0,0,0,.215.187,1.647,1.647,0,0,1-.3.137c-.578.234-1.164.453-1.738.7-.715-.008-1.429,0-2.144,0-1.663,0-3.327.008-4.99,0Q137.879,167.294,139.97,165.224Z" transform="translate(0 -122.789)" fill="#ffbb1b" stroke="#ffbb1b" stroke-width="0.094"/>
    <path id="Path_13842" data-name="Path 13842" d="M263.48,291.976c.715,0,1.429,0,2.144,0,.676.277,1.351.539,2.027.812-1.109,1.125-2.23,2.234-3.343,3.354-.281.266-.535.558-.832.808C263.476,295.3,263.472,293.636,263.48,291.976Z" transform="translate(-122.67 -245.362)" fill="#1a8763" stroke="#1a8763" stroke-width="0.094"/>
    <path id="Path_13843" data-name="Path 13843" d="M414.242,292h2.152c1.66,0,3.323,0,4.983,0-1.066,1.082-2.148,2.152-3.218,3.225-.594.59-1.179,1.187-1.773,1.769-1.328-1.343-2.675-2.671-4.006-4.014a.807.807,0,0,0-.18-.148,2.435,2.435,0,0,1,.359-.156C413.121,292.453,413.684,292.234,414.242,292Z" transform="translate(-265.545 -245.386)" fill="#427fed" stroke="#427fed" stroke-width="0.094"/>
    <path id="Path_13844" data-name="Path 13844" d="M267.674,312.9c.285.679.543,1.367.828,2.046,0,.711,0,1.425,0,2.136v3.436c-.008.512.012,1.023-.008,1.531a.848.848,0,0,1-.2-.176q-2.4-2.407-4.791-4.811c.3-.25.551-.543.832-.808C265.445,315.134,266.565,314.025,267.674,312.9Z" transform="translate(-122.693 -265.449)" fill="#65b045" stroke="#65b045" stroke-width="0.094"/>
    <path id="Path_13845" data-name="Path 13845" d="M392.309,313.4a.81.81,0,0,1,.18.148c1.332,1.343,2.679,2.671,4.006,4.014-1.667,0-3.331,0-4.994,0,0-.711,0-1.425,0-2.136C391.767,314.751,392.048,314.079,392.309,313.4Z" transform="translate(-245.675 -265.949)" fill="#43459d" stroke="#43459d" stroke-width="0.094"/>
  </g>
</svg>
