<svg xmlns="http://www.w3.org/2000/svg" width="20" height="20" viewBox="0 0 20 20">
  <g id="pinterest-1" transform="translate(-4.1 -4.2)">
    <path id="Path_13855" data-name="Path 13855" d="M24.1,14.2a10,10,0,1,1-10-10A10,10,0,0,1,24.1,14.2Z" fill="#ca2127"/>
    <path id="Path_13856" data-name="Path 13856" d="M69.634,61.994a6.269,6.269,0,0,0-5.613,5.81c-.073,1.974.7,3.455,2.555,3.872a11.172,11.172,0,0,0,.251-1.439,3.849,3.849,0,0,1-.9-1.362c-.681-4.258,4.837-7.166,7.733-4.193,2,2.064.681,8.409-2.544,7.749-3.091-.63,1.512-5.679-.954-6.673-2-.809-3.069,2.468-2.12,4.092-.558,2.8-1.757,5.43-1.272,8.932,1.579-1.16,2.109-3.384,2.544-5.7a4.478,4.478,0,0,0,2.226,1.076c3.727.291,5.808-3.776,5.3-7.535C76.385,63.291,73.116,61.6,69.634,61.994Z" transform="translate(-56.354 -55.153)" fill="#fff"/>
  </g>
</svg>
