<svg id="instagram-2016-6" xmlns="http://www.w3.org/2000/svg" xmlns:xlink="http://www.w3.org/1999/xlink" width="20" height="20.001" viewBox="0 0 20 20.001">
  <defs>
    <radialGradient id="radial-gradient" cx="0.133" cy="1.005" r="1.305" gradientUnits="objectBoundingBox">
      <stop offset="0.09" stop-color="#fa8f21"/>
      <stop offset="0.78" stop-color="#d82d7e"/>
    </radialGradient>
    <radialGradient id="radial-gradient-2" cx="0.606" cy="1.05" r="1.029" gradientUnits="objectBoundingBox">
      <stop offset="0.64" stop-color="#8c3aaa" stop-opacity="0"/>
      <stop offset="1" stop-color="#8c3aaa"/>
    </radialGradient>
  </defs>
  <path id="Path_13853" data-name="Path 13853" d="M6.667,10A3.333,3.333,0,1,1,10,13.334,3.333,3.333,0,0,1,6.667,10m-1.8,0A5.135,5.135,0,1,0,10,4.865,5.135,5.135,0,0,0,4.865,10m9.273-5.339a1.2,1.2,0,1,0,1.2-1.2h0a1.2,1.2,0,0,0-1.2,1.2M5.96,18.14A5.527,5.527,0,0,1,4.1,17.8a3.108,3.108,0,0,1-1.15-.748A3.085,3.085,0,0,1,2.2,15.9a5.522,5.522,0,0,1-.344-1.857C1.812,12.988,1.8,12.671,1.8,10s.01-2.986.058-4.041A5.564,5.564,0,0,1,2.2,4.1a3.108,3.108,0,0,1,.748-1.15A3.082,3.082,0,0,1,4.1,2.2,5.522,5.522,0,0,1,5.96,1.86C7.014,1.811,7.331,1.8,10,1.8s2.986.01,4.041.058A5.564,5.564,0,0,1,15.9,2.2a3.1,3.1,0,0,1,1.15.748A3.1,3.1,0,0,1,17.8,4.1a5.522,5.522,0,0,1,.344,1.857C18.19,7.014,18.2,7.33,18.2,10s-.01,2.986-.058,4.041A5.548,5.548,0,0,1,17.8,15.9a3.311,3.311,0,0,1-1.9,1.9,5.522,5.522,0,0,1-1.857.344c-1.054.048-1.371.058-4.041.058s-2.986-.01-4.04-.058M5.877.061A7.333,7.333,0,0,0,3.45.525,4.905,4.905,0,0,0,1.679,1.679,4.886,4.886,0,0,0,.525,3.45,7.335,7.335,0,0,0,.061,5.877C.011,6.944,0,7.285,0,10s.011,3.057.061,4.123a7.335,7.335,0,0,0,.464,2.427,4.889,4.889,0,0,0,1.153,1.772A4.917,4.917,0,0,0,3.45,19.476a7.339,7.339,0,0,0,2.427.464C6.944,19.989,7.285,20,10,20s3.057-.011,4.123-.061a7.335,7.335,0,0,0,2.427-.465,5.113,5.113,0,0,0,2.925-2.925,7.315,7.315,0,0,0,.465-2.427c.048-1.067.06-1.407.06-4.123s-.011-3.057-.06-4.123a7.332,7.332,0,0,0-.465-2.427,4.918,4.918,0,0,0-1.153-1.772A4.893,4.893,0,0,0,16.552.525,7.323,7.323,0,0,0,14.124.061C13.058.012,12.717,0,10,0S6.944.011,5.877.061" fill="url(#radial-gradient)"/>
  <path id="Path_13854" data-name="Path 13854" d="M6.667,10A3.333,3.333,0,1,1,10,13.334,3.333,3.333,0,0,1,6.667,10m-1.8,0A5.135,5.135,0,1,0,10,4.865,5.135,5.135,0,0,0,4.865,10m9.273-5.339a1.2,1.2,0,1,0,1.2-1.2h0a1.2,1.2,0,0,0-1.2,1.2M5.96,18.14A5.527,5.527,0,0,1,4.1,17.8a3.108,3.108,0,0,1-1.15-.748A3.085,3.085,0,0,1,2.2,15.9a5.522,5.522,0,0,1-.344-1.857C1.812,12.988,1.8,12.671,1.8,10s.01-2.986.058-4.041A5.564,5.564,0,0,1,2.2,4.1a3.108,3.108,0,0,1,.748-1.15A3.082,3.082,0,0,1,4.1,2.2,5.522,5.522,0,0,1,5.96,1.86C7.014,1.811,7.331,1.8,10,1.8s2.986.01,4.041.058A5.564,5.564,0,0,1,15.9,2.2a3.1,3.1,0,0,1,1.15.748A3.1,3.1,0,0,1,17.8,4.1a5.522,5.522,0,0,1,.344,1.857C18.19,7.014,18.2,7.33,18.2,10s-.01,2.986-.058,4.041A5.548,5.548,0,0,1,17.8,15.9a3.311,3.311,0,0,1-1.9,1.9,5.522,5.522,0,0,1-1.857.344c-1.054.048-1.371.058-4.041.058s-2.986-.01-4.04-.058M5.877.061A7.333,7.333,0,0,0,3.45.525,4.905,4.905,0,0,0,1.679,1.679,4.886,4.886,0,0,0,.525,3.45,7.335,7.335,0,0,0,.061,5.877C.011,6.944,0,7.285,0,10s.011,3.057.061,4.123a7.335,7.335,0,0,0,.464,2.427,4.889,4.889,0,0,0,1.153,1.772A4.917,4.917,0,0,0,3.45,19.476a7.339,7.339,0,0,0,2.427.464C6.944,19.989,7.285,20,10,20s3.057-.011,4.123-.061a7.335,7.335,0,0,0,2.427-.465,5.113,5.113,0,0,0,2.925-2.925,7.315,7.315,0,0,0,.465-2.427c.048-1.067.06-1.407.06-4.123s-.011-3.057-.06-4.123a7.332,7.332,0,0,0-.465-2.427,4.918,4.918,0,0,0-1.153-1.772A4.893,4.893,0,0,0,16.552.525,7.323,7.323,0,0,0,14.124.061C13.058.012,12.717,0,10,0S6.944.011,5.877.061" fill="url(#radial-gradient-2)"/>
</svg>
