<?xml version="1.0" standalone="no"?>
<!DOCTYPE svg PUBLIC "-//W3C//DTD SVG 1.1//EN" "http://www.w3.org/Graphics/SVG/1.1/DTD/svg11.dtd" >
<svg xmlns="http://www.w3.org/2000/svg" xmlns:xlink="http://www.w3.org/1999/xlink" version="1.1">
<metadata>
Created by FontForge 20201107 at Thu Apr  4 08:44:13 2024
 By 
Zansarifont 2018
</metadata>
<defs>
<font id="SurferBayRegular" horiz-adv-x="0" >
  <font-face 
    font-family="Surfer Bay"
    font-weight="400"
    font-stretch="normal"
    units-per-em="2048"
    panose-1="0 0 0 0 0 0 0 0 0 0"
    ascent="1638"
    descent="-410"
    x-height="1111"
    cap-height="1286"
    bbox="-757 -764 1413.51 1954.55"
    underline-thickness="0"
    underline-position="0"
    unicode-range="U+000A-00A0"
  />
<missing-glyph horiz-adv-x="1075" 
 />
    <glyph glyph-name=".notdef" horiz-adv-x="1075" 
 />
    <glyph glyph-name=".notdef" horiz-adv-x="1075" 
 />
    <glyph glyph-name=".null" 
 />
    <glyph glyph-name="nonmarkingreturn" horiz-adv-x="682" 
 />
    <glyph glyph-name="LF" unicode="&#xa;" 
 />
    <glyph glyph-name="controlCR" unicode="&#xd;" 
 />
    <glyph glyph-name="space" unicode=" " horiz-adv-x="583" 
 />
    <glyph glyph-name="exclam" unicode="!" horiz-adv-x="464" 
d="M298 1470q78 -25 106.5 -75.5t13.5 -131.5q-18 -96 -73.5 -299.5t-72.5 -314.5q-26 -166 -28 -379q0 -2 0.5 -16.5t0 -19.5t-5 -14t-13.5 -13q-36 -16 -81 15q-10 7 -20.5 16t-17.5 16t-17.5 20.5t-15 19t-17 22.5t-15.5 21q21 5 29.5 17t8 23t-4 27.5t-2.5 23.5
q7 106 23.5 211t48 233.5t49.5 195t62 221.5q21 74 18 106q-2 27 -15 50q-2 4 -0.5 12t3.5 9q22 8 36 4zM115 140q4 0 17.5 -0.5t19.5 -1t17 -3t16.5 -6.5t10.5 -11.5t6 -18.5q12 -112 -80 -116q-21 -1 -34.5 6t-18 19t-6 27t0.5 31q-19 78 51 74z" />
    <glyph glyph-name="quotedbl" unicode="&#x22;" horiz-adv-x="573" 
d="M442 1431q64 -25 82 -82t-14 -139q-21 -53 -82 -200q-28 -67 -90 -44q-16 6 -21.5 8t-19 8.5t-18 12.5t-10 15.5t-4 22.5t7.5 29q13 33 32 94t26 81q1 2 3 7.5t2.5 8.5t0.5 7t-3.5 6.5t-9.5 4.5q-4 2 -7 1t-5 -1t-4 -2t-3 -3.5t-2.5 -4.5t-2 -5t-1.5 -5t-2 -5
q-44 -128 -82 -233q-28 -78 -98 -50q-18 7 -28.5 12t-23.5 15t-18 20.5t-4.5 27t9.5 37.5q16 36 31 76t34.5 93t28.5 77q1 1 2 6t3 7q4 9 0.5 20t-10.5 20.5t-5 17.5t17 11q64 14 124 -59q5 -6 11 -17t10 -18t11.5 -14.5t15.5 -6.5t23 7q18 10 28 28.5t16 42.5t11 33
q-3 23 3 32t13.5 8t18.5 -6q3 -1 4 -2z" />
    <glyph glyph-name="numbersign" unicode="#" horiz-adv-x="1402" 
d="M1341 952q29 -29 18 -64q-2 -8 -8.5 -13t-11.5 -6t-16 -1.5t-14 -0.5q-156 -15 -191 -19q-29 -4 -42.5 -25.5t-8.5 -46.5q2 -8 6.5 -12t11.5 -4t13 1t15.5 3.5t13.5 3.5q6 1 28 6t30 6.5t26.5 3t28 -2t23.5 -9.5t24.5 -18.5t19.5 -30.5q34 -68 -34 -83q-115 -27 -233 -45
q-28 -5 -43 -18t-21 -39q-8 -34 -25 -102t-25 -102q-6 -22 -11 -35t-18 -26t-32 -15q-71 -8 -124 45q-5 5 3 31q15 60 57 226q-181 -38 -203 -43q-20 -4 -26 -38q-30 -180 -35 -220q-6 -45 -30.5 -50.5t-56.5 13.5q-30 14 -46 32.5t-19 45.5t-1.5 45.5t7.5 52.5
q7 38 -2.5 49t-50.5 0q-49 -17 -134 -25q-79 -7 -126 43.5t-34 127.5q37 -18 76.5 -21t76.5 6.5t70.5 22t73.5 25.5t72 16q30 3 32 53q1 12 -4 16t-17.5 4.5t-14.5 0.5q-55 11 -79.5 68.5t1.5 116.5q90 -38 134 -18t78 117q13 35 61 188q19 64 -15 93q28 20 61.5 16.5
t63.5 -27.5t40 -58q8 -28 9 -56.5t-5 -58t-13 -52t-19 -54.5q-9 -23 -2.5 -33t29.5 -7q14 2 41.5 4t44.5 3.5t39.5 6t40.5 11.5q27 11 38.5 35.5t16.5 60t13 52.5q13 30 -19 45q-3 2 -5.5 6t-4.5 10t-4 9q4 2 10.5 6t12 6.5t10.5 2.5q87 6 128 -46t32 -158q30 17 57 20
t52 -9t42.5 -26t42.5 -38zM835 729q11 2 17.5 9.5t8.5 14.5t4.5 20t4.5 18q1 2 -6 7t-11 4q-132 -28 -196 -46q-26 -8 -26 -52q0 -2 3 -4t7 -3.5t5 -2.5q166 30 189 35z" />
    <glyph glyph-name="dollar" unicode="$" horiz-adv-x="1140" 
d="M1088 1212q32 -59 -34 -71q-85 -16 -197 -43q-54 -14 -87 -41t-41 -79q-2 -12 -15 -43q-11 -26 -16 -39t-12.5 -36.5t-8.5 -37.5t-1 -33.5t8 -32.5t20 -27.5t33.5 -26t50.5 -20.5q26 -8 51.5 -32.5t35.5 -39.5t35 -55q126 -201 -161 -308q-85 -33 -139 -34
q-60 -1 -83 -32t-25 -91q-2 -50 -5 -73q-1 -6 -1.5 -20.5t-2 -22.5t-7.5 -17t-18 -12q-38 -10 -79 41q-83 104 -32 197q-148 34 -232.5 126.5t-82.5 219.5q62 -59 120 -94.5t129 -45.5q59 -8 83.5 14t32.5 77q8 43 11 52q14 36 18.5 58t1 47t-24.5 44.5t-61 36.5
q-56 24 -77.5 87.5t-2.5 130.5t71 103q115 81 171 101q38 14 66 36t44.5 45t28.5 58.5t17.5 61t11.5 68.5q2 16 21 18q69 4 102.5 -30t29.5 -103q-1 -11 1.5 -17.5t4.5 -9t8.5 -1.5t9.5 2t11 5.5t9 4.5q73 33 123 17t86 -83zM483 809q15 16 24 39.5t18.5 62t15.5 56.5
q-55 -16 -93 -45.5t-81 -79.5q14 -4 33.5 -14.5t32 -17t28.5 -9.5t22 8zM808 538q-103 81 -174 76q-17 -1 -25.5 -22.5t-14.5 -59.5t-10 -52q-5 -19 -14 -43q-9 -25 21 -25q50 12 76.5 19.5t67 25.5t69.5 43q24 22 4 38z" />
    <glyph glyph-name="ampersand" unicode="&#x26;" horiz-adv-x="1089" 
d="M1014 103q44 -34 28 -64q-19 -36 -68 -11q-87 47 -139 87q-43 33 -78 -4q-93 -96 -254.5 -109t-268.5 71q-19 15 -61.5 40.5t-71 50.5t-44.5 60q-22 48 -10 90q13 -63 19 -94q5 47 21 91t33 74.5t50.5 68.5t53.5 57t63 57.5t59 53.5q18 17 20.5 31t-9.5 35
q-177 301 -15 597q32 60 105 101t139 33q19 -2 115 -8q-9 -2 -18.5 -4t-15.5 -3t-14 -3q114 -36 123 -39q92 -34 125 -113.5t-4 -181.5q-96 -259 -297 -429q-31 -26 -35.5 -48t20.5 -56q19 -23 38.5 -49.5t45.5 -62t42 -57.5q11 21 38 61t40.5 68t9.5 51q-6 28 -2.5 42
t8.5 19.5t15.5 3t19 -7t18 -9.5t13.5 -6q55 -12 79 -52t12 -92q-14 -60 -83 -176q-15 -25 -12.5 -42t26.5 -33q26 -18 121 -89zM474 1110q-37 -68 -39 -191.5t35 -166.5q59 65 93.5 107.5t75.5 105t61 128t22 137.5q1 27 -10.5 37t-38.5 4q-126 -30 -199 -161zM599 239
q32 22 33 44t-26 50q-20 22 -40.5 46.5t-47 58.5t-38.5 49q-1 1 -3.5 4.5t-3.5 5t-4 4t-5 2.5t-5 -1t-6 -4q-19 -18 -83 -72t-100.5 -95.5t-60.5 -91.5q-26 -55 15.5 -87t137.5 -31q42 7 88 28t72.5 38t76.5 52z" />
    <glyph glyph-name="quotesingle" unicode="'" horiz-adv-x="362" 
d="M180 1466q55 18 99.5 -20t41.5 -96q-3 -57 -24.5 -112.5t-57 -122t-49.5 -101.5q-10 -24 -29 -36.5t-43 -2.5q-26 11 -40.5 19t-27 27.5t-7.5 44.5q10 58 46 146q7 18 9.5 25t0.5 20t-12 24q46 23 77.5 85.5t15.5 99.5z" />
    <glyph glyph-name="parenleft" unicode="(" horiz-adv-x="661" 
d="M582 1404q70 -66 2 -170q-290 -442 -350 -831q-7 -46 -9.5 -95.5t-3 -120.5t-1.5 -97q-1 -44 -33 -61.5t-74 0.5q-76 32 -70 118v94q-6 118 10.5 236t55 235t79.5 213t102 219q25 52 84.5 148.5t84.5 146.5q9 21 33 16t47 -19t43 -32z" />
    <glyph glyph-name="parenright" unicode=")" horiz-adv-x="520" 
d="M474 1111q8 -173 1.5 -355t-34.5 -325q-34 -169 -164 -409q-48 -89 -90 -101.5t-123 33.5q-18 10 -21 19.5t9 30.5q103 182 166.5 351.5t81.5 345.5q33 311 0 571q-11 90 -72 126q-6 4 -10.5 15t-2.5 17q2 5 5.5 7.5t7.5 2.5t7 -1t8.5 -3t7.5 -3q82 -24 134.5 -79
t71 -115t17.5 -128z" />
    <glyph glyph-name="plus" unicode="+" horiz-adv-x="980" 
d="M929 759q17 -26 6.5 -44.5t-43.5 -23.5q-169 -25 -245 -34q-32 -4 -50.5 -19t-26.5 -46q-71 -265 -113 -389q-7 -22 -29 -43t-46 -31q-37 -16 -74 42q-32 49 -35 92t26 98q15 26 25.5 56.5t22.5 76.5t17 62q1 4 1.5 9t1 11.5t0.5 9.5q-27 0 -33 -1q-16 -3 -45 -10.5
t-53 -12.5t-45 -7q-52 -4 -85 25.5t-46 80.5q-1 4 -7 15.5t-8.5 20t-0.5 17.5t17.5 13t44.5 2q155 -11 332 85q15 8 26.5 23.5t20.5 40.5t14 43t13 51t11 45q7 26 39 85.5t35 98.5q1 11 10 12.5t18.5 -2.5t17.5 -10q21 -15 34.5 -34.5t19 -37t7 -42.5t0 -41t-4.5 -44t-4 -42
q-1 -17 -6.5 -36t-15 -44.5t-13.5 -38.5q13 1 37 2.5t41.5 3.5t32.5 6q16 4 30.5 4.5t25 -1t23 -9.5t19 -11.5t18 -17.5t14.5 -18t14.5 -21.5t13.5 -19.5z" />
    <glyph glyph-name="comma" unicode="," horiz-adv-x="296" 
d="M254 -23q6 -52 -24.5 -126t-84.5 -133t-107 -70q-88 -17 -144 18q-66 43 1 102q-2 -17 2.5 -22.5t19.5 2.5q173 116 229 264q5 14 -4 42q-2 5 -10.5 13t-11.5 13t3 16q5 6 12 7.5t12 0t14.5 -6t12.5 -5.5q69 -27 80 -115z" />
    <glyph glyph-name="hyphen" unicode="-" horiz-adv-x="870" 
d="M746 558q-7 0 -29.5 2.5t-47.5 4.5q-133 -2 -463 -8q-65 -1 -117 54.5t-47 119.5q1 13 6 21t15 0q28 -22 59.5 -26.5t75 1t61.5 4.5q7 0 51.5 -1.5t55.5 -1.5t50 -1t55.5 -1t50 0.5t55 1.5t50 2.5t53.5 4.5q53 5 78.5 -14t50.5 -65q7 -12 9 -16t6 -15t4.5 -17.5t-1.5 -16
t-7 -17.5q-7 -10 -17 -14.5t-16.5 -4.5t-21 1.5t-19.5 1.5z" />
    <glyph glyph-name="period" unicode="." horiz-adv-x="278" 
d="M236 24q0 -31 -3.5 -54t-14.5 -44.5t-33 -33t-55 -12.5q-38 -1 -62.5 24t-25.5 63q-2 57 28.5 90.5t94.5 37.5q31 -2 50.5 -19.5t20.5 -51.5z" />
    <glyph glyph-name="zero" unicode="0" horiz-adv-x="1003" 
d="M402 1401q5 7 35 55q-13 -3 -27 -6.5t-19 -4.5q41 72 84.5 92t122.5 7q10 -2 44 -7t49 -8t41.5 -10t46.5 -16t39 -21q171 -112 137 -355q-22 -156 -137 -405q-14 -30 -35 -94t-35 -94t-47.5 -108t-53.5 -119t-59 -97.5t-84 -95.5q-70 -61 -150.5 -71.5t-158.5 30.5
q-161 85 -152 274q18 347 212 777q9 20 29 62t34.5 75.5t25.5 64.5q4 11 14 23.5t23.5 27.5t20.5 24zM653 778q93 224 105 318q20 216 -57 309q-27 31 -48 26q-51 -11 -83.5 -33t-47.5 -66q-37 -113 -68 -191q-10 -26 -53.5 -132.5t-61 -152.5t-44.5 -128t-44 -151
q-51 -217 -34 -359q6 -47 32.5 -59.5t67.5 11.5q68 38 121 126q42 69 75.5 141.5t80.5 192t59 148.5zM499 1524q-18 -4 -25.5 -6t-15.5 -8t-11 -16q4 -1 8 -1t7 0.5t7 2.5l6 3t6 5l5.5 5.5t6 7t6.5 7.5z" />
    <glyph glyph-name="one" unicode="1" horiz-adv-x="884" 
d="M42 1186v7q34 3 53 -6.5t27 -43.5q1 -6 3.5 -10t5 -5.5t5 -2.5t6 0.5t6 3t6.5 4.5l6 4.5t5 4.5l4 4q194 176 321 297q5 4 25 22.5t26.5 25t21.5 23.5t22.5 29t16.5 30t15 38q6 21 26 24.5t41 -3t51.5 -17t46.5 -12.5q27 -3 46 -23.5t12 -50.5q-36 -168 -146.5 -480.5
t-146.5 -467.5q-7 -30 -62 -237t-73 -319q-10 -61 -88 -29q-22 9 -41.5 27t-28.5 31t-26.5 42t-23.5 37q33 21 48 51t22 81.5t11 64.5q14 51 57.5 214t65 240.5t60.5 203t77 227.5q5 12 -15 40q-12 -14 -34.5 -40t-40.5 -47.5t-33 -41.5q-72 -93 -144 -120t-134.5 18.5
t-101.5 161.5z" />
    <glyph glyph-name="two" unicode="2" horiz-adv-x="1005" 
d="M349 1218q-61 -69 -125 -62.5t-116 88.5q33 1 52 18t34.5 49t24.5 43q82 99 156 167t166 111q185 87 335 -35q50 -40 70.5 -95t17.5 -105.5t-20 -114.5q-14 -52 -35.5 -107t-39.5 -95t-53 -102t-52 -90t-60 -97.5t-56 -90.5q-46 -76 -133 -219.5t-127 -208.5
q168 30 315 53q18 2 27 -8q10 -13 39 -38.5t43.5 -49t11.5 -55.5q-2 -28 -50 -30q-98 -3 -212 -22.5t-193.5 -40t-205.5 -57.5q-12 -4 -23 -3.5t-18.5 2.5t-16 9t-13 12t-11 16t-9.5 16.5t-9 18.5q-37 80 -9 97q37 23 70.5 59t52 64t48.5 78t44 72q48 73 133 219.5
t130 215.5q129 198 210 374q55 119 64 216q3 31 -11 42t-43 3q-181 -50 -333 -231q-12 -14 -35 -43t-35 -43z" />
    <glyph glyph-name="three" unicode="3" horiz-adv-x="1044" 
d="M252 1096q-39 -30 -104.5 4t-73.5 89q10 -4 19 -4t15 1.5t13.5 7t11 9.5t11 12t10.5 12q193 199 418 284q197 74 321 -80q34 -42 41 -93.5t-3.5 -93t-34.5 -97.5q-25 -58 -64 -116.5t-91.5 -126.5t-78.5 -106q-2 -3 -16 -23q166 -51 261 -154q43 -47 68 -107.5
t27.5 -126.5t-29.5 -132t-99 -116q-47 -35 -86.5 -61t-86 -51.5t-91 -41t-93.5 -26t-101 -9.5t-106 12q-60 13 -129.5 79.5t-110 146t-24.5 124.5q2 7 8.5 19t9.5 19q30 -149 103 -195t220 -9q228 59 372 184q127 109 70 210q-37 65 -100 93t-140 15q-53 -9 -175 -56
q-70 -26 -166 16q-49 23 -41.5 66t64.5 87q208 158 333 303q117 135 170 275q1 2 2.5 6.5t2.5 6.5t2.5 6.5t1.5 7t0.5 6.5t0 6.5t-1 5.5t-2.5 5.5t-5 4.5q-18 15 -53 4q-87 -24 -166 -72t-170 -121q-15 -12 -61.5 -50.5t-72.5 -58.5z" />
    <glyph glyph-name="four" unicode="4" horiz-adv-x="1067" 
d="M630 1507q-11 -17 -318 -511q31 14 64 27t57.5 22t61.5 20.5t55 16.5t59.5 16.5t54.5 15.5q34 10 43.5 67.5t-15.5 81.5q-12 12 -8 34q8 35 33 41q90 21 140 -20t46 -132q-1 -24 9.5 -36t33 -19t29.5 -12q3 -2 9.5 -6.5t9.5 -6t9 -6.5t7.5 -7.5t6.5 -7.5t4.5 -8.5
t2 -10.5t-0.5 -12q-1 -6 -3.5 -11t-5.5 -8.5t-8 -5.5t-8 -3.5t-10.5 -2t-10 -0.5h-11h-9.5q-56 -1 -89 -28t-51 -84q-58 -186 -81 -261.5t-58 -224t-48 -269.5q0 -4 -1 -19t-2.5 -21.5t-5 -17.5t-11 -17.5t-18.5 -10.5q-9 -6 -20.5 -3.5t-17.5 3.5t-15.5 8.5t-14 12
l-13.5 13.5l-13 13q-48 47 -86 134q16 -1 25.5 3t13.5 14.5t5 16.5t2 23q7 93 32 204.5t44 174t63 196.5l6.5 19.5t5.5 18.5q-28 -2 -58.5 -10.5t-50.5 -17t-53 -23.5t-48 -22q-29 -12 -60.5 -27t-72 -35.5t-59.5 -29.5q-55 -26 -111 41q-19 23 -27 34t-19 33t-8.5 43
t16.5 43q146 233 438 697q6 10 8.5 15t4 13t-4 14t-16.5 11q-10 4 -13.5 13t2.5 19q25 33 62 25q4 -1 26 -5t28.5 -6t24 -8t25.5 -12t17.5 -16.5t14.5 -23.5q7 -19 8 -38.5t-2.5 -36t-12.5 -36.5t-17 -34t-21 -34z" />
    <glyph glyph-name="five" unicode="5" horiz-adv-x="1138" 
d="M170 387q-8 15 -10.5 21.5t-1.5 20t11 25.5q275 -386 623 -73q63 57 109 122q82 117 50.5 219.5t-164.5 155.5q-276 110 -506 -16q-70 -38 -127.5 -22.5t-92.5 79.5q-22 40 -18 50q7 11 12.5 7t12 -11.5t8.5 -6.5q9 43 26.5 90.5t32 77.5t40.5 82l37 74q4 8 16 31.5
t16.5 33.5t10.5 30.5t5 34.5t-7.5 33t-20.5 37t-16.5 40.5t14.5 39.5q8 6 15 6.5t13.5 -4t11.5 -10t11.5 -13.5t10.5 -12q14 -12 42 -8q63 8 134.5 18.5t156.5 22.5t134 19l21 3q12 -1 23.5 14.5t18 23.5t25.5 -5q51 -49 69 -146q5 -27 -12.5 -40t-47.5 -17
q-256 -36 -384 -55q-29 -5 -31 -12q-13 -55 -63 -149.5t-66 -143.5q216 44 410 -28q196 -73 312 -221q79 -103 61.5 -262t-112.5 -248q-115 -107 -318 -232q-59 -38 -162.5 -13t-167.5 95q-89 99 -165 242z" />
    <glyph glyph-name="six" unicode="6" horiz-adv-x="1021" 
d="M584 1591q10 15 14 21.5t2.5 21.5t-14.5 30q66 -2 125 -63q34 -35 5 -91q-143 -276 -229 -431q-23 -36 -18.5 -56t48.5 -37q34 -13 96.5 -31t113 -37t90.5 -45q123 -80 152.5 -185t-33.5 -240q-99 -213 -333 -374q-109 -70 -221 -49t-199 121q-239 274 -69 617
q260 526 470 828zM530 792q-150 -34 -243 -152t-92 -276q15 -132 118 -199q22 -14 45.5 -17t48 6t42.5 19t42 27q154 107 239 246q53 87 51 179.5t-58 165.5q-22 29 -49 36.5t-47 1t-50.5 -19.5t-46.5 -17z" />
    <glyph glyph-name="seven" unicode="7" horiz-adv-x="886" 
d="M236 603q-70 -5 -128 44.5t-66 122.5q36 -12 73.5 -12.5t73 8.5t66.5 20t69.5 24.5t66.5 20.5q22 5 36 24.5t25.5 52.5t18.5 45q24 42 198 365q3 6 9.5 22t11.5 28q-292 -66 -312 -71q-120 -32 -190 4t-95 143q-1 5 -2.5 13.5t-1.5 10.5q44 -20 90 -23t89.5 6.5
t83.5 22.5t87.5 26.5t84.5 16.5q147 11 231 47q25 11 56.5 -49t33.5 -101q4 -89 -23.5 -182.5t-63 -159t-89.5 -159.5t-81 -153q-47 -104 -149 -291t-132 -246q-16 -32 -41 -94t-36 -86q-2 -5 -7 -19.5t-8.5 -21.5t-13 -14.5t-22.5 -8.5q-52 -3 -77 51q-3 7 -16 33
t-16.5 35.5t-9.5 32t-2.5 37t13 36.5t27.5 43q28 33 54 77.5t42 79t40.5 92t37.5 84.5q4 9 2 15t-8 7t-13 1.5t-14 -0.5h-3z" />
    <glyph glyph-name="eight" unicode="8" horiz-adv-x="1058" 
d="M424 1504q4 3 6.5 8t5.5 13t5 12q21 -8 42.5 -9.5t36 0t37.5 12t32 15.5t35 21.5t32 20.5q7 6 15.5 4t13.5 -5t12 -9t11 -8q9 -5 56.5 -29.5t66 -35t51 -32.5t55.5 -43q72 -67 79.5 -132.5t-48.5 -145.5q-62 -90 -231 -315q-6 -9 -8 -14.5t2.5 -10t8 -6t12.5 -5.5
q98 -41 156 -110q71 -83 72.5 -155.5t-63.5 -163.5q-180 -256 -377 -382q-82 -53 -197.5 -44.5t-186.5 75.5q-197 185 -49 428q9 14 24 41.5t20 36.5q-4 0 -12 0.5t-12.5 1t-10 2t-8 5.5t-2.5 11q-1 43 40 90q15 16 92 94q12 12 -2 27q-199 222 17 545q86 129 171 192z
M202 210q-21 -56 1.5 -82t82.5 -30q1 0 16.5 2t23.5 4q301 103 452 457q29 68 -17 117t-122 40q-128 -15 -198 -121q-19 -29 -80.5 -114.5t-97.5 -146.5t-61 -126zM817 1282q31 68 12.5 94.5t-93.5 27.5q-112 1 -228.5 -80t-156.5 -188q-4 -10 -16 -41.5t-17 -45t-13 -41
t-10.5 -46t-2.5 -43.5t4 -48q6 -29 25 -42.5t37 5.5q25 30 87.5 48t86.5 37q184 150 285 363z" />
    <glyph glyph-name="nine" unicode="9" horiz-adv-x="1056" 
d="M532 798q6 12 23 43.5t27 51.5q-39 -18 -110 -51t-106 -49q-139 -66 -242 38q-61 62 -77 139.5t21 137.5q80 127 188 237t253 229q123 102 225 41q120 -72 202 -159q44 -46 62.5 -92.5t16 -83t-20.5 -78t-39.5 -72t-48.5 -71t-41 -68.5q-40 -83 -218 -426.5t-261 -535.5
q-36 -83 -128 36q-9 11 -17 27.5t-12 27t-11.5 33t-9.5 29.5q-8 22 2 35t28 24.5t23 21.5q45 88 271 535zM659 1234q10 14 35 45.5t38 49.5t27.5 47t19.5 56q-1 19 -9 29.5t-20 -0.5q-25 -22 -64 -40t-71.5 -28.5t-69 -32.5t-60.5 -53q-30 -38 -132 -144.5t-145 -175.5
q-24 -41 -15 -57q3 -6 8 -8.5t12.5 -1.5t12 2t14 4.5t11.5 4.5q247 87 408 303z" />
    <glyph glyph-name="colon" unicode=":" horiz-adv-x="411" 
d="M369 847q3 -18 -8.5 -34.5t-32.5 -17.5q-148 -9 -151 140q-1 28 17.5 38t48.5 12q64 1 89.5 -35t36.5 -103zM93 118q69 -13 92 -28q34 -21 40 -62q5 -34 -18.5 -61t-62.5 -23q-15 1 -27 4.5t-21.5 10.5t-16.5 12.5t-12.5 17.5t-8.5 17.5t-6 22t-4 21t-3.5 23t-2.5 21.5
q-2 16 11.5 20.5t39.5 3.5z" />
    <glyph glyph-name="semicolon" unicode=";" horiz-adv-x="354" 
d="M123 90q42 -3 72.5 -35.5t43.5 -80.5q11 -40 -27 -80q-88 -89 -189 -128q-62 8 -80 21q-14 10 -20 28q-5 17 3.5 26t25 15.5t22.5 12.5q90 96 135 145q1 1 3 5.5t4 6.5q8 6 6 14.5t-6.5 17.5t-8.5 16.5t-1 12t17 3.5zM196 975q9 -3 36 -10t39.5 -12t25.5 -19.5t14 -36.5
q2 -41 -22.5 -77t-60.5 -40q-42 -5 -67.5 29t-32.5 82q-4 30 15 53.5t53 30.5z" />
    <glyph glyph-name="less" unicode="&#x3c;" horiz-adv-x="892" 
d="M301 731q-27 -24 5 -41q260 -136 388 -208q9 -5 33 -6t37.5 -10t12.5 -36q0 -8 0.5 -39t-1 -45.5t-11 -34t-28.5 -28.5q-18 -6 -30 -6.5t-28 7.5t-27 16t-26.5 19t-26.5 17q-121 62 -456 227q-40 20 -58 54t-27 87.5t-16 73.5q-1 1 3 4t10.5 7t13.5 8t15 9t13 9
q104 88 313.5 264.5t313.5 264.5q4 4 13 14.5t14 14.5t16 8.5t19 -3.5q65 -38 65 -143q-8 -24 -26.5 -48t-32.5 -37.5t-47.5 -41t-43.5 -35.5q-266 -228 -400 -342z" />
    <glyph glyph-name="equal" unicode="=" horiz-adv-x="937" 
d="M850 654q5 -9 13.5 -23t14.5 -23.5t12.5 -24t5.5 -24.5t-6 -26q-10 -21 -27 -26.5t-47.5 -1.5t-37.5 4q-48 -1 -145.5 -5t-156.5 -5.5t-142 0.5t-153 10q-90 10 -118.5 49t-16.5 133q2 5 2 17.5t3 21t13 11.5q9 3 15 -2.5t11 -16t9 -14.5q18 -15 37.5 -19.5t53.5 -2.5
t40 2q293 -7 527 -4q7 0 21.5 1t22 0.5t18 -2.5t18 -9.5t13.5 -19.5zM190 769q-65 6 -110.5 71t-29.5 129q8 28 23 17q44 -31 95 -35.5t115 4.5t98 6q60 -5 206 -7t225 -11q40 -5 60 -47t17 -91q-1 -11 -3.5 -18.5t-9 -11t-10.5 -6t-14.5 -1.5t-14 1t-15.5 3t-13 3
q-123 18 -202.5 12.5t-201 -15.5t-201.5 -4q-2 0 -6.5 0.5t-7.5 0.5z" />
    <glyph glyph-name="greater" unicode="&#x3e;" horiz-adv-x="923" 
d="M839 829q36 -8 41.5 -29.5t-28.5 -51.5q-74 -62 -278 -213.5t-306 -245.5q-46 -42 -114 -41q-30 -1 -100 57l-7 7t-3 6.5v6t3 6.5t4 5.5t5.5 6l5.5 5.5q56 62 124 118.5t166.5 126t138.5 100.5l7 5q7 5 8 6t6 5.5t6 7.5t2.5 8t1.5 11q0 7 -2 12t-7 9t-7.5 5.5t-10.5 5
t-10 4.5q-138 63 -394 225q-50 32 -49 113t51 116q4 3 14 2.5t14 -4.5q58 -52 135.5 -96t169.5 -88.5t146 -78.5q6 -4 27.5 -17.5t29 -18t27 -16.5t29.5 -17.5t28 -15t31 -15t30 -12.5t33 -11.5t32 -8.5z" />
    <glyph glyph-name="question" unicode="?" horiz-adv-x="657" 
d="M594 1158q5 -22 11.5 -65t8.5 -52q1 -53 -6.5 -102.5t-26.5 -98t-36 -84t-50.5 -84.5t-52.5 -74.5t-59 -77.5q-77 -100 -135 -236q-18 -42 -64 -57.5t-81 8.5q-24 16 -13 55q11 37 26.5 76t27.5 67.5t37 71t35.5 62t42.5 67t39.5 58.5t45.5 65t42 60q59 84 79 220.5
t-18 204.5q-22 38 -47.5 44t-62.5 -18q-48 -31 -80.5 -72.5t-49 -92t-22.5 -100t-6 -113.5q0 -23 -0.5 -34.5t-8 -28t-21.5 -23.5q-8 -4 -15.5 -4t-12.5 2.5t-11 8t-10 10.5l-10 12.5t-9 11.5q-24 27 -32.5 64t-7.5 57t10.5 71.5t10.5 59.5q25 171 176 270q80 49 154.5 21
t129.5 -93.5t72 -136.5zM107 171q51 4 89.5 -24.5t36.5 -64.5q2 -44 -16.5 -78t-52.5 -37q-40 -4 -68 28t-30 78q0 7 -1.5 19.5t-3 21.5t0 20t5.5 18t14 12.5t26 6.5z" />
    <glyph glyph-name="at" unicode="@" horiz-adv-x="1298" 
d="M1254 919q7 -38 -14 -116q-4 -14 -11 -65.5t-19 -77.5q-7 -15 -23.5 -51.5t-26 -56.5t-24 -49.5t-29.5 -54.5t-31 -48q-102 -145 -235 -61q-27 17 -42 41q-11 18 -43 61q-54 -75 -83 -118q-55 -80 -136 -88q-17 1 -21 -0.5t-19.5 3.5t-19 6t-18.5 8t-18 8
q-76 33 -118 103t-27 150q1 7 2.5 19t2.5 19q33 200 99 318q73 131 124 197q-25 32 -55 4q-35 -32 -83 -103q-31 -46 -56.5 -105.5t-39 -103t-33.5 -115.5q-52 -190 -29 -320q26 -144 144 -201q225 -108 435 -60q52 12 72 49q11 21 30 22.5t36 -16.5q7 -8 19 -23.5t17 -20.5
q18 -22 22.5 -37.5t-5.5 -28.5t-35 -26q-7 -4 -109 -45h-28q-8 3 -18.5 4t-19 0.5t-18.5 0.5q-24 1 -78 1.5t-94.5 4t-78.5 14.5q-106 32 -183 67.5t-138 94.5q-159 152 -151 321q2 66 -5 86v21q32 132 61 237q68 243 176 388q69 93 188 124q69 18 205 56h14q10 -8 35 -14
q134 -29 284 -86q95 -35 138 -79q49 -49 73 -111.5t38 -146.5zM750 836q32 107 -72 160q-14 -23 -46 -60.5t-41 -50.5q-45 -61 -52 -82q-50 -136 -56 -168q-2 -12 -7.5 -40.5t-8.5 -44.5t-9 -39t-13 -42q-19 -56 5 -103q11 -21 22 -23.5t28 13.5q39 37 55 59q66 87 111 189
t84 232zM1057 837q7 59 9 110.5t-16.5 103.5t-59.5 95q-40 43 -91 37q-139 -16 -156 -19q-50 -8 -74.5 -13t-64 -19.5t-69.5 -35.5h131q146 6 204 -115q15 -31 62 -38q53 -7 64 -47q1 -3 4.5 -15t4.5 -16t3.5 -14.5t3 -15.5t1.5 -14.5t-0.5 -16t-3 -15t-4.5 -15.5t-8 -15
t-12.5 -26.5t-12.5 -27.5q-19 -34 -34 -103t-26 -97q21 14 26.5 19.5t14.5 25.5q32 66 45.5 96.5t32.5 86.5t26 104z" />
    <glyph glyph-name="A" unicode="A" horiz-adv-x="817" 
d="M861 1412q42 -47 37 -112q-81 -336 -92 -385q-98 -444 -122 -756q-4 -49 -18 -147q-4 -33 -44 -35q-46 -1 -79.5 32t-31.5 78q2 41 6.5 91.5t8 77.5t12.5 95t11 82q3 22 -3 27.5t-28 -1.5q-56 -18 -152.5 -65t-137.5 -63q-9 -4 -19 -28l-23 -57.5t-27.5 -68t-24.5 -57.5
q-27 -64 -99 -40q-55 18 -107 75q-14 16 -5 29q9 11 25 4q24 -10 33 13q79 201 98 260q11 34 44.5 97t37.5 72q77 161 246 434q22 36 71.5 111.5t85 134.5t63.5 116q1 3 6.5 12.5t6.5 12.5t3 13t-2 15q-5 16 15 20q29 7 51.5 9t47.5 -1.5t45.5 -20.5t34.5 -47
q3 -6 13.5 -15.5t12.5 -11.5zM645 966q1 6 18 81t19 120q-104 -132 -187.5 -277t-181.5 -341q7 1 13.5 1.5t8.5 0.5q28 7 108.5 39.5t129.5 35.5q8 1 10 17q54 279 62 323z" />
    <glyph glyph-name="A" unicode="&#xc5;" horiz-adv-x="817" 
d="M861 1412q42 -47 37 -112q-81 -336 -92 -385q-98 -444 -122 -756q-4 -49 -18 -147q-4 -33 -44 -35q-46 -1 -79.5 32t-31.5 78q2 41 6.5 91.5t8 77.5t12.5 95t11 82q3 22 -3 27.5t-28 -1.5q-56 -18 -152.5 -65t-137.5 -63q-9 -4 -19 -28l-23 -57.5t-27.5 -68t-24.5 -57.5
q-27 -64 -99 -40q-55 18 -107 75q-14 16 -5 29q9 11 25 4q24 -10 33 13q79 201 98 260q11 34 44.5 97t37.5 72q77 161 246 434q22 36 71.5 111.5t85 134.5t63.5 116q1 3 6.5 12.5t6.5 12.5t3 13t-2 15q-5 16 15 20q29 7 51.5 9t47.5 -1.5t45.5 -20.5t34.5 -47
q3 -6 13.5 -15.5t12.5 -11.5zM645 966q1 6 18 81t19 120q-104 -132 -187.5 -277t-181.5 -341q7 1 13.5 1.5t8.5 0.5q28 7 108.5 39.5t129.5 35.5q8 1 10 17q54 279 62 323z" />
    <glyph glyph-name="A" unicode="&#xc4;" horiz-adv-x="817" 
d="M861 1412q42 -47 37 -112q-81 -336 -92 -385q-98 -444 -122 -756q-4 -49 -18 -147q-4 -33 -44 -35q-46 -1 -79.5 32t-31.5 78q2 41 6.5 91.5t8 77.5t12.5 95t11 82q3 22 -3 27.5t-28 -1.5q-56 -18 -152.5 -65t-137.5 -63q-9 -4 -19 -28l-23 -57.5t-27.5 -68t-24.5 -57.5
q-27 -64 -99 -40q-55 18 -107 75q-14 16 -5 29q9 11 25 4q24 -10 33 13q79 201 98 260q11 34 44.5 97t37.5 72q77 161 246 434q22 36 71.5 111.5t85 134.5t63.5 116q1 3 6.5 12.5t6.5 12.5t3 13t-2 15q-5 16 15 20q29 7 51.5 9t47.5 -1.5t45.5 -20.5t34.5 -47
q3 -6 13.5 -15.5t12.5 -11.5zM645 966q1 6 18 81t19 120q-104 -132 -187.5 -277t-181.5 -341q7 1 13.5 1.5t8.5 0.5q28 7 108.5 39.5t129.5 35.5q8 1 10 17q54 279 62 323z" />
    <glyph glyph-name="A" unicode="&#xc3;" horiz-adv-x="817" 
d="M861 1412q42 -47 37 -112q-81 -336 -92 -385q-98 -444 -122 -756q-4 -49 -18 -147q-4 -33 -44 -35q-46 -1 -79.5 32t-31.5 78q2 41 6.5 91.5t8 77.5t12.5 95t11 82q3 22 -3 27.5t-28 -1.5q-56 -18 -152.5 -65t-137.5 -63q-9 -4 -19 -28l-23 -57.5t-27.5 -68t-24.5 -57.5
q-27 -64 -99 -40q-55 18 -107 75q-14 16 -5 29q9 11 25 4q24 -10 33 13q79 201 98 260q11 34 44.5 97t37.5 72q77 161 246 434q22 36 71.5 111.5t85 134.5t63.5 116q1 3 6.5 12.5t6.5 12.5t3 13t-2 15q-5 16 15 20q29 7 51.5 9t47.5 -1.5t45.5 -20.5t34.5 -47
q3 -6 13.5 -15.5t12.5 -11.5zM645 966q1 6 18 81t19 120q-104 -132 -187.5 -277t-181.5 -341q7 1 13.5 1.5t8.5 0.5q28 7 108.5 39.5t129.5 35.5q8 1 10 17q54 279 62 323z" />
    <glyph glyph-name="A" unicode="&#xc2;" horiz-adv-x="817" 
d="M861 1412q42 -47 37 -112q-81 -336 -92 -385q-98 -444 -122 -756q-4 -49 -18 -147q-4 -33 -44 -35q-46 -1 -79.5 32t-31.5 78q2 41 6.5 91.5t8 77.5t12.5 95t11 82q3 22 -3 27.5t-28 -1.5q-56 -18 -152.5 -65t-137.5 -63q-9 -4 -19 -28l-23 -57.5t-27.5 -68t-24.5 -57.5
q-27 -64 -99 -40q-55 18 -107 75q-14 16 -5 29q9 11 25 4q24 -10 33 13q79 201 98 260q11 34 44.5 97t37.5 72q77 161 246 434q22 36 71.5 111.5t85 134.5t63.5 116q1 3 6.5 12.5t6.5 12.5t3 13t-2 15q-5 16 15 20q29 7 51.5 9t47.5 -1.5t45.5 -20.5t34.5 -47
q3 -6 13.5 -15.5t12.5 -11.5zM645 966q1 6 18 81t19 120q-104 -132 -187.5 -277t-181.5 -341q7 1 13.5 1.5t8.5 0.5q28 7 108.5 39.5t129.5 35.5q8 1 10 17q54 279 62 323z" />
    <glyph glyph-name="A" unicode="&#xc1;" horiz-adv-x="817" 
d="M861 1412q42 -47 37 -112q-81 -336 -92 -385q-98 -444 -122 -756q-4 -49 -18 -147q-4 -33 -44 -35q-46 -1 -79.5 32t-31.5 78q2 41 6.5 91.5t8 77.5t12.5 95t11 82q3 22 -3 27.5t-28 -1.5q-56 -18 -152.5 -65t-137.5 -63q-9 -4 -19 -28l-23 -57.5t-27.5 -68t-24.5 -57.5
q-27 -64 -99 -40q-55 18 -107 75q-14 16 -5 29q9 11 25 4q24 -10 33 13q79 201 98 260q11 34 44.5 97t37.5 72q77 161 246 434q22 36 71.5 111.5t85 134.5t63.5 116q1 3 6.5 12.5t6.5 12.5t3 13t-2 15q-5 16 15 20q29 7 51.5 9t47.5 -1.5t45.5 -20.5t34.5 -47
q3 -6 13.5 -15.5t12.5 -11.5zM645 966q1 6 18 81t19 120q-104 -132 -187.5 -277t-181.5 -341q7 1 13.5 1.5t8.5 0.5q28 7 108.5 39.5t129.5 35.5q8 1 10 17q54 279 62 323z" />
    <glyph glyph-name="A" unicode="&#xc0;" horiz-adv-x="817" 
d="M861 1412q42 -47 37 -112q-81 -336 -92 -385q-98 -444 -122 -756q-4 -49 -18 -147q-4 -33 -44 -35q-46 -1 -79.5 32t-31.5 78q2 41 6.5 91.5t8 77.5t12.5 95t11 82q3 22 -3 27.5t-28 -1.5q-56 -18 -152.5 -65t-137.5 -63q-9 -4 -19 -28l-23 -57.5t-27.5 -68t-24.5 -57.5
q-27 -64 -99 -40q-55 18 -107 75q-14 16 -5 29q9 11 25 4q24 -10 33 13q79 201 98 260q11 34 44.5 97t37.5 72q77 161 246 434q22 36 71.5 111.5t85 134.5t63.5 116q1 3 6.5 12.5t6.5 12.5t3 13t-2 15q-5 16 15 20q29 7 51.5 9t47.5 -1.5t45.5 -20.5t34.5 -47
q3 -6 13.5 -15.5t12.5 -11.5zM645 966q1 6 18 81t19 120q-104 -132 -187.5 -277t-181.5 -341q7 1 13.5 1.5t8.5 0.5q28 7 108.5 39.5t129.5 35.5q8 1 10 17q54 279 62 323z" />
    <glyph glyph-name="B" unicode="B" horiz-adv-x="1056" 
d="M251 95q-1 2 -5.5 17.5t-9.5 24.5t-14 18q0 -2 -4 -14.5t-5 -15t-4 -14t-3.5 -15.5t-2 -13.5t-1.5 -15v-13.5t1 -15q4 -32 -8.5 -41.5t-41.5 -1.5q-62 17 -90.5 62.5t-16.5 106.5q1 6 6 31t7.5 35.5t8 28.5t12.5 31q12 24 8 69.5t6 68.5q4 -2 7.5 -3.5t6 -2.5t5.5 0
t4.5 1t3.5 3t3 3.5t3 4.5t2.5 4.5t2.5 5.5l2 5q56 126 80 191q42 114 172 398q14 31 42 90.5t37 78.5q-32 -6 -61 -35q-17 -18 -56.5 -56.5t-61.5 -61.5t-50 -59.5t-46 -71.5q-30 -57 -94 -10q-14 10 -20.5 16t-13.5 16.5t-4.5 23t13.5 28.5q184 274 429 406q8 4 24 10t20 8
q9 4 13.5 6.5t9 7t2.5 11t-10 15.5q-9 11 -5 20.5t17 6.5q37 -9 94 -16t100 -13.5t91 -20t90 -41t75 -70.5q29 -37 33.5 -100t-17.5 -105q-70 -138 -231 -297q-4 -4 -12 -14t-11 -14q100 -19 171 -60q99 -57 130.5 -157t-20.5 -200q-122 -236 -358 -325q-8 -3 -39.5 -15.5
t-42.5 -16.5t-39 -13.5t-44.5 -13t-40.5 -8.5t-46 -6t-44 0q-63 4 -100 29.5t-59 82.5zM953 636q-5 10 -13 18.5t-14.5 14t-19 10t-17.5 6.5t-21.5 4.5t-19.5 2.5t-22.5 1.5t-20.5 1.5q-30 1 -84 -15q-34 -9 -71.5 -26t-60.5 -29.5t-67.5 -39.5t-60.5 -36
q-151 -87 -187 -228q-2 -9 -7.5 -27t-8 -27.5t-4 -25.5t2 -26.5t12.5 -23t25 -22.5q1 -1 1 -3q8 -39 38 -46.5t56 3.5q5 1 7 1q133 25 297 122q158 93 230 201q73 108 30 189zM537 943q-9 -19 -27.5 -53t-32 -64t-21.5 -61q211 163 335 305q90 102 126 187q14 30 6 51.5
t-44 30.5q-81 19 -140 4q-24 -5 -28 -21q-18 -60 -47 -123t-68.5 -138.5t-58.5 -117.5z" />
    <glyph glyph-name="C" unicode="C" horiz-adv-x="704" 
d="M452 942q17 23 30 49.5t20.5 47.5t13.5 54.5t8 50t5.5 56t4.5 51.5q-28 -26 -54 -57t-44 -56t-41 -64.5t-34.5 -60.5t-35 -66.5t-32.5 -62.5q-114 -216 -165 -465q-18 -82 -11 -184q6 -90 98 -122q37 -13 65 0.5t58 42.5q248 241 327 505q2 6 2 29q-4 14 -0.5 29t21.5 20
q6 2 11.5 2t10.5 -2t8.5 -3.5t8 -5.5t6.5 -6.5t6.5 -8t6.5 -7.5q34 -40 48 -81t6.5 -84t-21.5 -78t-40 -81q-114 -204 -268 -330q-48 -40 -118 -50.5t-142 12.5q-174 58 -237.5 152t-34.5 248q56 298 221 604q88 166 171 272q7 9 27.5 24t32 30.5t8.5 35.5q0 2 8 5t14 3
q153 5 246 -34q61 -26 58 -79q-5 -115 -23.5 -201t-66.5 -163q-30 -48 -83 -43q-71 8 -111 46q-4 4 -4 7.5t2.5 6l6.5 6.5z" />
    <glyph glyph-name="C" unicode="&#xc7;" horiz-adv-x="704" 
d="M452 942q17 23 30 49.5t20.5 47.5t13.5 54.5t8 50t5.5 56t4.5 51.5q-28 -26 -54 -57t-44 -56t-41 -64.5t-34.5 -60.5t-35 -66.5t-32.5 -62.5q-114 -216 -165 -465q-18 -82 -11 -184q6 -90 98 -122q37 -13 65 0.5t58 42.5q248 241 327 505q2 6 2 29q-4 14 -0.5 29t21.5 20
q6 2 11.5 2t10.5 -2t8.5 -3.5t8 -5.5t6.5 -6.5t6.5 -8t6.5 -7.5q34 -40 48 -81t6.5 -84t-21.5 -78t-40 -81q-114 -204 -268 -330q-48 -40 -118 -50.5t-142 12.5q-174 58 -237.5 152t-34.5 248q56 298 221 604q88 166 171 272q7 9 27.5 24t32 30.5t8.5 35.5q0 2 8 5t14 3
q153 5 246 -34q61 -26 58 -79q-5 -115 -23.5 -201t-66.5 -163q-30 -48 -83 -43q-71 8 -111 46q-4 4 -4 7.5t2.5 6l6.5 6.5z" />
    <glyph glyph-name="D" unicode="D" horiz-adv-x="909" 
d="M302 1187q4 13 17 52q-13 -13 -36.5 -35t-36.5 -34.5t-26.5 -33t-20.5 -41.5q-4 -12 -15 -18.5t-23 -5.5q-69 6 -114 59q-16 17 1 38q67 83 123 138.5t138.5 106t172.5 68.5q193 40 325 -64t140 -301q12 -312 -191 -567q-202 -256 -488 -483q-68 -56 -146 -80
q-50 -16 -94 25q-18 17 -31.5 42.5t-19 41t-16.5 49.5q-4 12 5 34q40 89 86 262t69 237q61 170 181 510zM239 504q-13 -42 -76 -281q8 5 16 9.5t12 7t7 5.5q285 230 468 480q169 229 156 478q-4 73 -26 110t-71 51q-76 22 -195 -5q-16 -4 -13 -18q4 -22 4.5 -36t-5.5 -34
t-11 -32t-14 -31.5t-13 -31.5q-26 -73 -78 -210.5t-91.5 -248.5t-69.5 -213z" />
    <glyph glyph-name="E" unicode="E" horiz-adv-x="876" 
d="M235 823q6 9 24 39q-71 -18 -113 9.5t-69 90.5q-18 40 8 71q120 147 302 306q177 154 185 161q6 5 7 9.5t-3.5 11.5t-4.5 8q80 5 134 -45q40 -37 -8 -46q-10 -2 -16.5 -8.5t-12.5 -16.5t-10 -14q-136 -136 -271 -274q-4 -4 -32 -39q46 6 120 54.5t77 74.5q34 -9 79 21
q22 14 42.5 4t21.5 -38q2 -42 22 -58q6 -5 8 -14t-1.5 -15.5t-10.5 -5.5q-6 3 -14.5 0.5t-13 -1.5t-11.5 -4t-10 -6t-9.5 -7t-8.5 -8t-7.5 -9t-7.5 -9t-7 -9t-6 -9q-35 -49 -145 -180t-158 -213q-112 -191 -138 -322q-16 -80 45 -134q16 -14 38.5 -15t35.5 3.5t40 15.5
q146 57 246.5 206.5t98.5 304.5q0 11 -9 43q-1 3 -5 9.5t-5 9t2 9.5q8 11 35 2q59 -19 93 -60t40 -97t-10 -127q-38 -161 -218 -299q-40 -31 -64.5 -48.5t-62.5 -38.5t-74 -32q-161 -49 -281 97q-137 166 -38 373q79 164 151 269z" />
    <glyph glyph-name="E" unicode="&#xcb;" horiz-adv-x="876" 
d="M235 823q6 9 24 39q-71 -18 -113 9.5t-69 90.5q-18 40 8 71q120 147 302 306q177 154 185 161q6 5 7 9.5t-3.5 11.5t-4.5 8q80 5 134 -45q40 -37 -8 -46q-10 -2 -16.5 -8.5t-12.5 -16.5t-10 -14q-136 -136 -271 -274q-4 -4 -32 -39q46 6 120 54.5t77 74.5q34 -9 79 21
q22 14 42.5 4t21.5 -38q2 -42 22 -58q6 -5 8 -14t-1.5 -15.5t-10.5 -5.5q-6 3 -14.5 0.5t-13 -1.5t-11.5 -4t-10 -6t-9.5 -7t-8.5 -8t-7.5 -9t-7.5 -9t-7 -9t-6 -9q-35 -49 -145 -180t-158 -213q-112 -191 -138 -322q-16 -80 45 -134q16 -14 38.5 -15t35.5 3.5t40 15.5
q146 57 246.5 206.5t98.5 304.5q0 11 -9 43q-1 3 -5 9.5t-5 9t2 9.5q8 11 35 2q59 -19 93 -60t40 -97t-10 -127q-38 -161 -218 -299q-40 -31 -64.5 -48.5t-62.5 -38.5t-74 -32q-161 -49 -281 97q-137 166 -38 373q79 164 151 269z" />
    <glyph glyph-name="E" unicode="&#xca;" horiz-adv-x="876" 
d="M235 823q6 9 24 39q-71 -18 -113 9.5t-69 90.5q-18 40 8 71q120 147 302 306q177 154 185 161q6 5 7 9.5t-3.5 11.5t-4.5 8q80 5 134 -45q40 -37 -8 -46q-10 -2 -16.5 -8.5t-12.5 -16.5t-10 -14q-136 -136 -271 -274q-4 -4 -32 -39q46 6 120 54.5t77 74.5q34 -9 79 21
q22 14 42.5 4t21.5 -38q2 -42 22 -58q6 -5 8 -14t-1.5 -15.5t-10.5 -5.5q-6 3 -14.5 0.5t-13 -1.5t-11.5 -4t-10 -6t-9.5 -7t-8.5 -8t-7.5 -9t-7.5 -9t-7 -9t-6 -9q-35 -49 -145 -180t-158 -213q-112 -191 -138 -322q-16 -80 45 -134q16 -14 38.5 -15t35.5 3.5t40 15.5
q146 57 246.5 206.5t98.5 304.5q0 11 -9 43q-1 3 -5 9.5t-5 9t2 9.5q8 11 35 2q59 -19 93 -60t40 -97t-10 -127q-38 -161 -218 -299q-40 -31 -64.5 -48.5t-62.5 -38.5t-74 -32q-161 -49 -281 97q-137 166 -38 373q79 164 151 269z" />
    <glyph glyph-name="E" unicode="&#xc9;" horiz-adv-x="876" 
d="M235 823q6 9 24 39q-71 -18 -113 9.5t-69 90.5q-18 40 8 71q120 147 302 306q177 154 185 161q6 5 7 9.5t-3.5 11.5t-4.5 8q80 5 134 -45q40 -37 -8 -46q-10 -2 -16.5 -8.5t-12.5 -16.5t-10 -14q-136 -136 -271 -274q-4 -4 -32 -39q46 6 120 54.5t77 74.5q34 -9 79 21
q22 14 42.5 4t21.5 -38q2 -42 22 -58q6 -5 8 -14t-1.5 -15.5t-10.5 -5.5q-6 3 -14.5 0.5t-13 -1.5t-11.5 -4t-10 -6t-9.5 -7t-8.5 -8t-7.5 -9t-7.5 -9t-7 -9t-6 -9q-35 -49 -145 -180t-158 -213q-112 -191 -138 -322q-16 -80 45 -134q16 -14 38.5 -15t35.5 3.5t40 15.5
q146 57 246.5 206.5t98.5 304.5q0 11 -9 43q-1 3 -5 9.5t-5 9t2 9.5q8 11 35 2q59 -19 93 -60t40 -97t-10 -127q-38 -161 -218 -299q-40 -31 -64.5 -48.5t-62.5 -38.5t-74 -32q-161 -49 -281 97q-137 166 -38 373q79 164 151 269z" />
    <glyph glyph-name="E" unicode="&#xc8;" horiz-adv-x="876" 
d="M235 823q6 9 24 39q-71 -18 -113 9.5t-69 90.5q-18 40 8 71q120 147 302 306q177 154 185 161q6 5 7 9.5t-3.5 11.5t-4.5 8q80 5 134 -45q40 -37 -8 -46q-10 -2 -16.5 -8.5t-12.5 -16.5t-10 -14q-136 -136 -271 -274q-4 -4 -32 -39q46 6 120 54.5t77 74.5q34 -9 79 21
q22 14 42.5 4t21.5 -38q2 -42 22 -58q6 -5 8 -14t-1.5 -15.5t-10.5 -5.5q-6 3 -14.5 0.5t-13 -1.5t-11.5 -4t-10 -6t-9.5 -7t-8.5 -8t-7.5 -9t-7.5 -9t-7 -9t-6 -9q-35 -49 -145 -180t-158 -213q-112 -191 -138 -322q-16 -80 45 -134q16 -14 38.5 -15t35.5 3.5t40 15.5
q146 57 246.5 206.5t98.5 304.5q0 11 -9 43q-1 3 -5 9.5t-5 9t2 9.5q8 11 35 2q59 -19 93 -60t40 -97t-10 -127q-38 -161 -218 -299q-40 -31 -64.5 -48.5t-62.5 -38.5t-74 -32q-161 -49 -281 97q-137 166 -38 373q79 164 151 269z" />
    <glyph glyph-name="F" unicode="F" horiz-adv-x="880" 
d="M441 724q-2 -6 -29 -102q203 71 222 78q79 29 235 89q18 8 24 3q55 -46 58 -96q3 -48 -60 -67q-224 -68 -443 -164q-54 -24 -85.5 -58t-41.5 -89q-3 -14 -26 -119t-27 -162q-3 -40 -27.5 -58.5t-64.5 -13.5q-42 5 -59.5 24t-13.5 63q2 19 5 57.5t5.5 61.5t8 55t12.5 59
q9 34 -15 56q-33 30 -72 102q-8 18 0 26q5 6 23 1q37 -10 82.5 19.5t57.5 67.5q22 72 155 498q18 56 28 84q10 27 -9 51q-44 56 -47 128q0 21 8 26q11 6 23 -11q15 -20 45 -8q264 108 431 159q4 1 13 4q33 10 51 14t45 6t49.5 -8t44.5 -31q38 -36 37 -66q0 -7 -3 -12.5
t-5.5 -8.5t-9.5 -6.5t-10 -4.5t-12 -3.5t-11 -3.5q-260 -80 -312 -97q-27 -9 -98 -42q-22 -10 -32 -41q-25 -77 -75 -230.5t-75 -229.5z" />
    <glyph glyph-name="G" unicode="G" horiz-adv-x="845" 
d="M496 401q4 7 24 39.5t28 46.5t21.5 41t22.5 51q-81 -42 -103 -55q-67 -41 -126 5q-54 42 -46 127q1 8 5.5 13.5t12.5 4.5q26 -2 4 -36q24 12 77.5 39.5t80.5 40.5q176 84 213 99q30 12 68 -7.5t62 -56.5t20 -70q-4 -31 -15 -63t-30 -72.5t-26 -58.5q-100 -258 -146 -523
q-12 -69 -63 -48q-6 3 -23 8t-25.5 9t-19 12t-14.5 21t-2 31q12 102 18 156q-12 -3 -20.5 -8.5t-19 -18t-11.5 -13.5q-53 -55 -102.5 -78.5t-110.5 -4.5q-145 44 -187 200q-47 174 18 429q74 291 219 518q41 63 62 94t59.5 81.5t78 87t85.5 66.5q-10 4 -26 10q1 1 2 3t2 2
q57 9 126 5.5t122 -30.5q59 -30 53 -98q-19 -225 -90 -372q-30 -63 -72.5 -73t-92.5 36q-23 21 -10 37q25 33 43 77t25 74t18 86q3 12 25 160q-39 -17 -85 -68q-221 -232 -334 -544q-107 -297 -102 -506q1 -62 23 -139q17 -62 67 -21q127 104 217 254z" />
    <glyph glyph-name="H" unicode="H" horiz-adv-x="851" 
d="M614 548q4 22 7 43q-314 -116 -324 -119q-40 -13 -59 -35.5t-24 -64.5q-12 -92 -59 -321q-14 -72 -61 -81q-46 -9 -109 40q-6 6 -4 14q11 56 29 154.5t33.5 181t30.5 154.5q60 301 239 833q1 5 9 23t9.5 26.5t-3.5 23t-20 25.5q-14 10 16 24q46 19 87 1.5t56 -63.5
q21 -66 -2 -139q-16 -52 -59 -180.5t-70.5 -222t-47.5 -183.5q-1 -3 -3 -10t-3 -11t0 -9t5 -9q4 -3 9 -3.5t8 0.5t10 3.5t9 3.5q52 17 156 52t157 52q35 11 45 44q94 287 112 337q19 53 59.5 152t57.5 146q1 3 9.5 21t10 26t-3.5 22t-22 25q-15 11 10 19q7 3 12 3
q81 5 119.5 -35t25.5 -119q-8 -45 -26 -93t-43.5 -104.5t-37.5 -88.5q-87 -232 -129 -380q-106 -371 -136 -630q-1 -7 -5 -33.5t-5 -38t1 -32.5t9 -38q6 -14 -6 -24t-31 -10q-65 1 -102 50t-28 123q20 164 82 455z" />
    <glyph glyph-name="I" unicode="I" horiz-adv-x="370" 
d="M250 1286q74 17 126 -19t54 -119q-5 -40 -16 -83t-30.5 -107t-26.5 -88q-43 -155 -63.5 -233.5t-46 -209t-33.5 -239.5q-6 -72 5 -113q5 -21 -4.5 -32t-32.5 -10q-70 5 -107.5 55t-31.5 127q13 162 49 323t96 374q26 93 76 279q8 17 5.5 35.5t-25.5 27.5q-4 1 -7 7.5
t-2 10.5q2 12 15 14z" />
    <glyph glyph-name="I" unicode="&#xcf;" horiz-adv-x="370" 
d="M250 1286q74 17 126 -19t54 -119q-5 -40 -16 -83t-30.5 -107t-26.5 -88q-43 -155 -63.5 -233.5t-46 -209t-33.5 -239.5q-6 -72 5 -113q5 -21 -4.5 -32t-32.5 -10q-70 5 -107.5 55t-31.5 127q13 162 49 323t96 374q26 93 76 279q8 17 5.5 35.5t-25.5 27.5q-4 1 -7 7.5
t-2 10.5q2 12 15 14z" />
    <glyph glyph-name="I" unicode="&#xce;" horiz-adv-x="370" 
d="M250 1286q74 17 126 -19t54 -119q-5 -40 -16 -83t-30.5 -107t-26.5 -88q-43 -155 -63.5 -233.5t-46 -209t-33.5 -239.5q-6 -72 5 -113q5 -21 -4.5 -32t-32.5 -10q-70 5 -107.5 55t-31.5 127q13 162 49 323t96 374q26 93 76 279q8 17 5.5 35.5t-25.5 27.5q-4 1 -7 7.5
t-2 10.5q2 12 15 14z" />
    <glyph glyph-name="I" unicode="&#xcd;" horiz-adv-x="370" 
d="M250 1286q74 17 126 -19t54 -119q-5 -40 -16 -83t-30.5 -107t-26.5 -88q-43 -155 -63.5 -233.5t-46 -209t-33.5 -239.5q-6 -72 5 -113q5 -21 -4.5 -32t-32.5 -10q-70 5 -107.5 55t-31.5 127q13 162 49 323t96 374q26 93 76 279q8 17 5.5 35.5t-25.5 27.5q-4 1 -7 7.5
t-2 10.5q2 12 15 14z" />
    <glyph glyph-name="I" unicode="&#xcc;" horiz-adv-x="370" 
d="M250 1286q74 17 126 -19t54 -119q-5 -40 -16 -83t-30.5 -107t-26.5 -88q-43 -155 -63.5 -233.5t-46 -209t-33.5 -239.5q-6 -72 5 -113q5 -21 -4.5 -32t-32.5 -10q-70 5 -107.5 55t-31.5 127q13 162 49 323t96 374q26 93 76 279q8 17 5.5 35.5t-25.5 27.5q-4 1 -7 7.5
t-2 10.5q2 12 15 14z" />
    <glyph glyph-name="J" unicode="J" horiz-adv-x="827" 
d="M58 263q-23 45 -12 128q13 -125 134 -217q4 -3 9.5 -12.5t8.5 -12.5q54 -61 126 -23q71 37 118 98.5t90 151.5q133 282 179 538q42 232 54 420q-66 -19 -192 -95q-90 -54 -266 -168q-67 -43 -111 -10q-66 50 -83 140q22 -8 42.5 -8t36.5 5t32.5 15t29 20.5t28.5 23
t28 19.5q244 145 420 220q33 14 83 -15t69 -71q10 -22 15.5 -47t8 -43t1.5 -48t-2.5 -43.5t-5.5 -48.5t-5 -45q-11 -101 -18.5 -156.5t-25 -140.5t-40.5 -153q-21 -61 -48 -128.5t-61.5 -149.5t-52.5 -127l-15 -37.5t-16.5 -41.5t-15 -35.5t-19 -40t-19.5 -33t-25 -35.5
q-53 -68 -122.5 -93.5t-136.5 0t-110 99.5q-76 132 -111 200z" />
    <glyph glyph-name="K" unicode="K" horiz-adv-x="665" 
d="M204 682q1 -1 5 -3.5t5 -3.5q20 23 56.5 63.5t66 74t55.5 64.5q18 22 89.5 104t114.5 136t82 110q3 5 15.5 19.5t17 23t2.5 23.5t-18 30q-9 8 -1 12.5t19 4.5q81 -1 118 -62.5t-2 -131.5q-23 -41 -56.5 -86.5t-56.5 -72.5t-70.5 -79.5t-64.5 -71.5q-38 -42 -79 -92.5
t-90 -111t-77 -94.5q-22 -27 -91 -100q-22 -23 8 -37q53 -25 160 -76.5t160 -77.5q43 -22 78 -18q14 2 21.5 -6t8.5 -16.5t0 -21.5q-1 -17 -14 -61q-21 -72 -92 -40q-28 12 -134.5 60.5t-175.5 76.5t-139 51q-22 8 -32.5 1.5t-13.5 -29.5q-4 -34 -13 -101.5t-13 -101.5
q-3 -26 -15.5 -34.5t-37.5 -1.5q-13 4 -25 10.5t-20.5 11.5t-20.5 16.5t-17 16.5t-18 19.5t-16 18.5q-8 10 -4 20q19 51 33 149t25 136q62 224 102 333q23 64 67 191.5t67 190.5q30 80 47 156q8 17 8 36.5t-25 28.5q-3 1 -4 9.5t1 13.5q3 13 25 15q67 6 109.5 -41t34.5 -115
q-6 -49 -21 -108t-25.5 -90.5t-38 -108t-33.5 -93.5q-8 -23 -23.5 -69.5t-23.5 -69.5z" />
    <glyph glyph-name="L" unicode="L" horiz-adv-x="1013" 
d="M44 146q-1 4 -1 42q8 -2 18.5 -5t16.5 -4q7 40 19 118q41 278 178 697q27 83 59.5 175.5t73 205t62.5 174.5q7 22 3 30q-13 23 -7.5 34.5t16 14t32.5 1.5q67 -3 101.5 -50t12.5 -111q-32 -97 -150 -420q-162 -442 -218 -812q-3 -20 3.5 -24t25.5 -1q274 53 483 53h6h7
h6.5t6.5 0.5l6 1.5t6 2.5t5.5 3t6 4.5t4.5 6q9 13 28 0q80 -52 109 -106q15 -27 3 -48q-11 -19 -44 -17q-325 20 -681 -81q-89 -25 -129.5 1t-67.5 115z" />
    <glyph glyph-name="M" unicode="M" horiz-adv-x="1153" 
d="M934 993q-1 1 -2.5 2t-2.5 2q-71 -116 -89 -147q-14 -25 -28.5 -52.5t-25.5 -50t-25 -55.5t-22.5 -51t-22.5 -56t-19.5 -52.5t-20.5 -57t-18.5 -52.5t-20 -57.5t-18.5 -54.5q-4 -12 -22.5 -46.5t-21.5 -56.5q-4 -23 -41 -23q-39 -1 -92 42.5t-59 81.5q-2 13 10 32.5
t13 30.5q10 165 37 299q2 10 9 37t10 47t1 39q-3 0 -5.5 -1t-4.5 -3l-3 -3t-2.5 -4l-2 -4t-1.5 -4t-1 -4q-114 -285 -133 -330q-40 -94 -128 -334q-19 -51 -65.5 -56t-98.5 36q-21 16 -29.5 34t-7.5 48q6 175 59 397q97 412 218 796q0 1 3 10.5t3.5 11.5t3 10.5t2.5 11.5
t1.5 10.5t1 12t-1 11t-2 12t-3.5 11.5q-14 37 31 39q60 2 96.5 -39.5t28.5 -104.5q-8 -56 -24 -116.5t-38.5 -134t-33.5 -114.5q-32 -125 -39 -176q69 125 78 142q33 62 98.5 186.5t98.5 186.5q8 17 7 20q-5 14 -5 24t3 14.5t11 7t13.5 2.5h16h14.5q87 3 116 -31.5
t11 -119.5q-15 -73 -48 -213t-40 -170q12 19 56.5 90.5t66.5 108.5q20 33 66.5 114t72.5 124q15 24 16 39.5t-19 36.5q60 28 135 18t113 -50q32 -35 21 -84q-16 -71 -69.5 -266t-72.5 -304q-3 -18 -13.5 -76t-14.5 -82t-10.5 -74t-7.5 -82t0.5 -75t8.5 -82q12 -66 38 -91
q23 -21 8 -43q-14 -22 -44 -17q-59 10 -100 52t-60 110q-6 20 -10 42t-6.5 39t-2.5 42.5t-0.5 39t2 42t3 38.5t5.5 42.5t6 38.5t6.5 42t6.5 39q12 73 72 355z" />
    <glyph glyph-name="N" unicode="N" horiz-adv-x="829" 
d="M411 934q0 7 3 29t1.5 37t-10.5 30q-69 -304 -92 -410q-77 -358 -96 -577q-3 -42 -44 -35q-81 14 -110.5 46t-17.5 108q43 278 116 605q15 69 115 473q13 51 -3 82q-22 44 32 55q79 15 154 -7t98 -73q26 -56 24 -151q-3 -111 -10.5 -316.5t-10.5 -292.5q-4 -110 6 -248
q14 61 55 241.5t64 278.5q76 322 226 648q10 16 8 29t-27 14q-4 0 -7 1t-4 4.5t-1.5 5t-1 6.5t-0.5 6q-3 22 18 25q1 0 20.5 3.5t22.5 4t20 3t22.5 3t20 1.5t23 0.5t20 -1.5t22.5 -3q32 -6 42 -26t-4 -50q-63 -140 -96 -217.5t-77 -200t-69 -227.5q-11 -46 -31 -139
t-31 -140q-47 -200 -104 -424q-10 -36 -43.5 -52.5t-69.5 -3.5q-19 7 -40 15t-46.5 18t-39.5 15q-17 6 -27 28q-32 74 -40 153.5t-3 183.5q3 82 11.5 233t11.5 209z" />
    <glyph glyph-name="N" unicode="&#xd1;" horiz-adv-x="829" 
d="M411 934q0 7 3 29t1.5 37t-10.5 30q-69 -304 -92 -410q-77 -358 -96 -577q-3 -42 -44 -35q-81 14 -110.5 46t-17.5 108q43 278 116 605q15 69 115 473q13 51 -3 82q-22 44 32 55q79 15 154 -7t98 -73q26 -56 24 -151q-3 -111 -10.5 -316.5t-10.5 -292.5q-4 -110 6 -248
q14 61 55 241.5t64 278.5q76 322 226 648q10 16 8 29t-27 14q-4 0 -7 1t-4 4.5t-1.5 5t-1 6.5t-0.5 6q-3 22 18 25q1 0 20.5 3.5t22.5 4t20 3t22.5 3t20 1.5t23 0.5t20 -1.5t22.5 -3q32 -6 42 -26t-4 -50q-63 -140 -96 -217.5t-77 -200t-69 -227.5q-11 -46 -31 -139
t-31 -140q-47 -200 -104 -424q-10 -36 -43.5 -52.5t-69.5 -3.5q-19 7 -40 15t-46.5 18t-39.5 15q-17 6 -27 28q-32 74 -40 153.5t-3 183.5q3 82 11.5 233t11.5 209z" />
    <glyph glyph-name="O" unicode="O" horiz-adv-x="772" 
d="M301 1328q5 7 29 54q-11 -3 -23.5 -7.5t-18.5 -6.5q33 69 72 91t113 15q11 -1 41.5 -3.5t45.5 -4.5t39 -6t44 -11t38 -17q165 -91 150 -318q-9 -147 -98 -384q-11 -29 -25.5 -89.5t-25.5 -89.5q-10 -27 -36 -103.5t-41.5 -114t-48 -93t-71.5 -94.5q-61 -61 -134.5 -76
t-148.5 17q-155 67 -160 243q-8 318 143 733q7 20 22.5 59.5t26.5 71.5t19 61q3 11 11 23t19.5 26.5t17.5 23.5zM577 770q69 208 75 302q3 201 -74 281q-27 27 -47 21q-46 -14 -74.5 -36.5t-38.5 -64.5q-25 -103 -50 -181q-10 -31 -33.5 -103t-35.5 -112t-29.5 -100
t-29.5 -113.5t-21 -106.5q-33 -204 -6 -335q9 -43 34 -52.5t62 15.5q61 41 103 124q26 51 51 114.5t40 110t38 122t36 114.5zM382 1449q-23 -6 -32.5 -11.5t-12.5 -19.5q7 -1 11.5 -0.5t10 4.5t7 6t8 10.5t8.5 10.5z" />
    <glyph glyph-name="O" unicode="&#xd8;" horiz-adv-x="772" 
d="M301 1328q5 7 29 54q-11 -3 -23.5 -7.5t-18.5 -6.5q33 69 72 91t113 15q11 -1 41.5 -3.5t45.5 -4.5t39 -6t44 -11t38 -17q165 -91 150 -318q-9 -147 -98 -384q-11 -29 -25.5 -89.5t-25.5 -89.5q-10 -27 -36 -103.5t-41.5 -114t-48 -93t-71.5 -94.5q-61 -61 -134.5 -76
t-148.5 17q-155 67 -160 243q-8 318 143 733q7 20 22.5 59.5t26.5 71.5t19 61q3 11 11 23t19.5 26.5t17.5 23.5zM577 770q69 208 75 302q3 201 -74 281q-27 27 -47 21q-46 -14 -74.5 -36.5t-38.5 -64.5q-25 -103 -50 -181q-10 -31 -33.5 -103t-35.5 -112t-29.5 -100
t-29.5 -113.5t-21 -106.5q-33 -204 -6 -335q9 -43 34 -52.5t62 15.5q61 41 103 124q26 51 51 114.5t40 110t38 122t36 114.5zM382 1449q-23 -6 -32.5 -11.5t-12.5 -19.5q7 -1 11.5 -0.5t10 4.5t7 6t8 10.5t8.5 10.5z" />
    <glyph glyph-name="O" unicode="&#xd6;" horiz-adv-x="772" 
d="M301 1328q5 7 29 54q-11 -3 -23.5 -7.5t-18.5 -6.5q33 69 72 91t113 15q11 -1 41.5 -3.5t45.5 -4.5t39 -6t44 -11t38 -17q165 -91 150 -318q-9 -147 -98 -384q-11 -29 -25.5 -89.5t-25.5 -89.5q-10 -27 -36 -103.5t-41.5 -114t-48 -93t-71.5 -94.5q-61 -61 -134.5 -76
t-148.5 17q-155 67 -160 243q-8 318 143 733q7 20 22.5 59.5t26.5 71.5t19 61q3 11 11 23t19.5 26.5t17.5 23.5zM577 770q69 208 75 302q3 201 -74 281q-27 27 -47 21q-46 -14 -74.5 -36.5t-38.5 -64.5q-25 -103 -50 -181q-10 -31 -33.5 -103t-35.5 -112t-29.5 -100
t-29.5 -113.5t-21 -106.5q-33 -204 -6 -335q9 -43 34 -52.5t62 15.5q61 41 103 124q26 51 51 114.5t40 110t38 122t36 114.5zM382 1449q-23 -6 -32.5 -11.5t-12.5 -19.5q7 -1 11.5 -0.5t10 4.5t7 6t8 10.5t8.5 10.5z" />
    <glyph glyph-name="O" unicode="&#xd5;" horiz-adv-x="772" 
d="M301 1328q5 7 29 54q-11 -3 -23.5 -7.5t-18.5 -6.5q33 69 72 91t113 15q11 -1 41.5 -3.5t45.5 -4.5t39 -6t44 -11t38 -17q165 -91 150 -318q-9 -147 -98 -384q-11 -29 -25.5 -89.5t-25.5 -89.5q-10 -27 -36 -103.5t-41.5 -114t-48 -93t-71.5 -94.5q-61 -61 -134.5 -76
t-148.5 17q-155 67 -160 243q-8 318 143 733q7 20 22.5 59.5t26.5 71.5t19 61q3 11 11 23t19.5 26.5t17.5 23.5zM577 770q69 208 75 302q3 201 -74 281q-27 27 -47 21q-46 -14 -74.5 -36.5t-38.5 -64.5q-25 -103 -50 -181q-10 -31 -33.5 -103t-35.5 -112t-29.5 -100
t-29.5 -113.5t-21 -106.5q-33 -204 -6 -335q9 -43 34 -52.5t62 15.5q61 41 103 124q26 51 51 114.5t40 110t38 122t36 114.5zM382 1449q-23 -6 -32.5 -11.5t-12.5 -19.5q7 -1 11.5 -0.5t10 4.5t7 6t8 10.5t8.5 10.5z" />
    <glyph glyph-name="O" unicode="&#xd4;" horiz-adv-x="772" 
d="M301 1328q5 7 29 54q-11 -3 -23.5 -7.5t-18.5 -6.5q33 69 72 91t113 15q11 -1 41.5 -3.5t45.5 -4.5t39 -6t44 -11t38 -17q165 -91 150 -318q-9 -147 -98 -384q-11 -29 -25.5 -89.5t-25.5 -89.5q-10 -27 -36 -103.5t-41.5 -114t-48 -93t-71.5 -94.5q-61 -61 -134.5 -76
t-148.5 17q-155 67 -160 243q-8 318 143 733q7 20 22.5 59.5t26.5 71.5t19 61q3 11 11 23t19.5 26.5t17.5 23.5zM577 770q69 208 75 302q3 201 -74 281q-27 27 -47 21q-46 -14 -74.5 -36.5t-38.5 -64.5q-25 -103 -50 -181q-10 -31 -33.5 -103t-35.5 -112t-29.5 -100
t-29.5 -113.5t-21 -106.5q-33 -204 -6 -335q9 -43 34 -52.5t62 15.5q61 41 103 124q26 51 51 114.5t40 110t38 122t36 114.5zM382 1449q-23 -6 -32.5 -11.5t-12.5 -19.5q7 -1 11.5 -0.5t10 4.5t7 6t8 10.5t8.5 10.5z" />
    <glyph glyph-name="O" unicode="&#xd3;" horiz-adv-x="772" 
d="M301 1328q5 7 29 54q-11 -3 -23.5 -7.5t-18.5 -6.5q33 69 72 91t113 15q11 -1 41.5 -3.5t45.5 -4.5t39 -6t44 -11t38 -17q165 -91 150 -318q-9 -147 -98 -384q-11 -29 -25.5 -89.5t-25.5 -89.5q-10 -27 -36 -103.5t-41.5 -114t-48 -93t-71.5 -94.5q-61 -61 -134.5 -76
t-148.5 17q-155 67 -160 243q-8 318 143 733q7 20 22.5 59.5t26.5 71.5t19 61q3 11 11 23t19.5 26.5t17.5 23.5zM577 770q69 208 75 302q3 201 -74 281q-27 27 -47 21q-46 -14 -74.5 -36.5t-38.5 -64.5q-25 -103 -50 -181q-10 -31 -33.5 -103t-35.5 -112t-29.5 -100
t-29.5 -113.5t-21 -106.5q-33 -204 -6 -335q9 -43 34 -52.5t62 15.5q61 41 103 124q26 51 51 114.5t40 110t38 122t36 114.5zM382 1449q-23 -6 -32.5 -11.5t-12.5 -19.5q7 -1 11.5 -0.5t10 4.5t7 6t8 10.5t8.5 10.5z" />
    <glyph glyph-name="O" unicode="&#xd2;" horiz-adv-x="772" 
d="M301 1328q5 7 29 54q-11 -3 -23.5 -7.5t-18.5 -6.5q33 69 72 91t113 15q11 -1 41.5 -3.5t45.5 -4.5t39 -6t44 -11t38 -17q165 -91 150 -318q-9 -147 -98 -384q-11 -29 -25.5 -89.5t-25.5 -89.5q-10 -27 -36 -103.5t-41.5 -114t-48 -93t-71.5 -94.5q-61 -61 -134.5 -76
t-148.5 17q-155 67 -160 243q-8 318 143 733q7 20 22.5 59.5t26.5 71.5t19 61q3 11 11 23t19.5 26.5t17.5 23.5zM577 770q69 208 75 302q3 201 -74 281q-27 27 -47 21q-46 -14 -74.5 -36.5t-38.5 -64.5q-25 -103 -50 -181q-10 -31 -33.5 -103t-35.5 -112t-29.5 -100
t-29.5 -113.5t-21 -106.5q-33 -204 -6 -335q9 -43 34 -52.5t62 15.5q61 41 103 124q26 51 51 114.5t40 110t38 122t36 114.5zM382 1449q-23 -6 -32.5 -11.5t-12.5 -19.5q7 -1 11.5 -0.5t10 4.5t7 6t8 10.5t8.5 10.5z" />
    <glyph glyph-name="P" unicode="P" horiz-adv-x="784" 
d="M42 42v28q0 181 58 451q41 187 151 553q6 22 -11 33q-24 16 -24.5 32.5t20.5 37.5q87 89 139 264q9 30 -9 42q-16 9 -10 27q6 17 24 17q88 0 124 -47q6 -8 12 -10t9.5 -1.5t11.5 4.5l10 5q204 94 368 -51q54 -47 68.5 -121t-17.5 -145q-66 -150 -247 -351
q-214 -236 -327 -348q-1 -1 -19 -20t-24 -23.5t-22 -16t-30 -15.5t-31 -4q-10 0 -16 -7t-7.5 -11.5t-3.5 -17.5q-26 -125 -38 -312q-1 -18 -2.5 -27.5t-5.5 -23t-10.5 -20.5t-19 -12.5t-30.5 -5.5q-91 0 -91 96zM414 1029q-16 -44 -33 -97.5t-27.5 -92.5t-28 -106
t-27.5 -102q8 7 17 14.5t12 10.5q230 227 396 442q34 44 52.5 70.5t39.5 70t28 84.5q9 49 -11.5 70.5t-67.5 10.5q-55 -13 -98.5 -30t-85 -44t-72 -68t-47.5 -94q-28 -87 -47 -139z" />
    <glyph glyph-name="Q" unicode="Q" horiz-adv-x="919" 
d="M244 1148q27 47 41 71t41 60.5t55 64.5q-14 -1 -60 -4q8 4 26.5 14.5t26 14t21.5 9.5t25.5 8t25.5 3q44 1 94.5 -9t79 -20t86.5 -32q137 -53 105 -233q-7 -39 -17 -84.5t-18 -78.5t-21.5 -85.5t-20.5 -79.5q-19 -76 -64 -300q-5 -22 5 -30q24 -21 37 -46.5t26 -70.5
t16 -55q47 -137 106 -224q23 -34 13 -49q-16 -25 -55 -17q-88 18 -123 73q-53 84 -91 169q-15 -23 -37 -57q-48 -75 -118.5 -102t-141 -11.5t-136.5 64.5q-82 60 -107 143.5t-21 199.5q15 361 201 694zM460 356q2 7 8.5 25t9 28t0 25t-12.5 28q3 5 16.5 15t15.5 20l108 474
q1 6 10 43t11 49.5t6.5 41t3.5 50.5t-6 45q0 2 -2 9.5t-2.5 10.5t-2 9.5t-3 9.5t-4 8.5t-5 8.5t-6 6t-7.5 4.5t-9 1.5q-64 4 -98 -38q-31 -38 -61 -91t-43 -81.5t-44.5 -106t-36.5 -90.5q-78 -189 -94 -380q-13 -158 13 -257q15 -57 57.5 -69.5t86.5 25.5q58 50 91 176z" />
    <glyph glyph-name="R" unicode="R" horiz-adv-x="829" 
d="M403 393q-2 -2 -30.5 -19.5t-38.5 -36.5q114 -31 116 -31q187 -40 386 -111q34 -12 63.5 -75.5t16.5 -98.5t-45 -18q-142 76 -394 128q-43 9 -129 23t-129 23q-24 5 -30 -25q-1 -4 -7 -34t-8 -46q-7 -51 -58 -38q-29 7 -53.5 26t-39.5 39t-33 48q-4 7 -6 10q-7 11 10 34
q14 19 19.5 32t2 30t-23.5 31q-10 7 -11.5 15t9.5 15q23 11 38 32t20 33.5t12.5 47.5t8.5 40q66 264 211 684q2 6 19 64q-16 -8 -25 -19.5t-18 -33.5t-11 -25q-23 -44 -47.5 -52t-68.5 17q-5 3 -17 7.5t-19.5 7.5t-16 10t-7.5 14.5t6 21.5q8 14 23.5 48.5t30.5 58.5t35 43
q115 110 202 147q31 13 37.5 43.5t-16.5 58.5q-12 16 -7 25q6 10 25 6q101 -22 139 -83q6 -10 14 -14t23.5 -5t18.5 -2q101 -18 175.5 -49t131.5 -94q128 -143 60 -321q-26 -69 -74.5 -140t-88 -115t-109.5 -115q-80 -82 -292 -262zM299 613q-9 -29 -1 -43q3 2 7.5 4.5
t8 4.5t5.5 4q190 165 265 241q55 57 100 112q3 4 18 22.5t19.5 24t18 23t18.5 25t16 23.5t16 26t13 25.5t12 28t8.5 28t7.5 30.5q21 117 -78 159q-89 38 -176 18q-24 -5 -32 -26q-168 -468 -246 -730z" />
    <glyph glyph-name="S" unicode="S" horiz-adv-x="866" 
d="M690 450q-22 29 -17 65l-28 -24q9 27 3.5 34t-26.5 10q-152 20 -278 39q-158 24 -241 138q-97 133 -10 282q71 123 167.5 232.5t223.5 223.5q29 26 122 88q15 10 18.5 15.5t-1.5 23.5q5 1 15 -0.5t16.5 0t11.5 9.5q11 17 26 21t27 0t29 -14q67 -38 80.5 -98t-33.5 -118
q-104 -126 -237 -387q-22 -43 -32 -98t-59 -25q-61 37 -94 129q-6 8 -2 23t7.5 23t12 23t11.5 22l81 157q-19 -19 -51 -48.5t-54 -51.5t-40 -43q-107 -124 -159 -240q-29 -65 -13.5 -99.5t83.5 -56.5q45 -14 96.5 -22.5t115.5 -15.5t98 -13q190 -31 275 -126
q72 -78 72 -142.5t-72 -143.5q-96 -104 -211 -168q-123 -69 -279 -53q-106 11 -192 85t-106 176q-6 30 -4 66t21 38q20 2 32 -31q14 -44 44.5 -70t81.5 -51q65 -32 127.5 -39.5t119.5 8.5t107.5 46t104.5 77q35 31 37 59t-27 65z" />
    <glyph glyph-name="T" unicode="T" horiz-adv-x="575" 
d="M291 87q6 -38 -38 -38q-33 1 -87 37t-57 63q-2 14 6 42t9 38q19 187 85 496q6 26 96 439q4 17 -0.5 22.5t-22.5 -0.5q-311 -125 -344 -138q-22 -9 -32 -12.5t-27.5 -3t-31.5 11.5q-53 39 -51 113q0 4 4 9t6 4q35 -9 65.5 -0.5t72 33.5t53.5 30q307 142 710 229
q40 9 145.5 25t160.5 31q15 4 27.5 5.5t24 -1.5t19 -5t18 -10t15 -11.5t16.5 -15.5l15 -15q28 -27 17 -63q-3 -11 -13 -16.5t-16 -6.5t-21 -3q-270 -33 -589 -118q-32 -8 -37 -35q-16 -80 -85 -398t-96 -492q-1 -8 -5.5 -34t-6 -36.5t-4.5 -33t-4 -36.5t-1.5 -33.5
t0.5 -37.5t4 -35z" />
    <glyph glyph-name="U" unicode="U" horiz-adv-x="970" 
d="M212 308q-1 -38 -0.5 -54.5t3.5 -58t4 -62.5q53 49 99 149q45 97 91 208.5t99.5 250t83.5 211.5q8 19 30 72.5t33 81t26.5 71.5t24.5 81q7 27 11 68q3 42 40 47q30 4 24 44q-2 16 4.5 23t22.5 9q90 15 134.5 -41t16.5 -140q-10 -31 -32.5 -96.5t-35.5 -104t-29.5 -94.5
t-27.5 -104q-23 -99 -35 -161.5t-24.5 -150.5t-11.5 -168t14 -158q0 -1 2 -13t4 -18q1 -4 5 -13t5.5 -14.5t0 -13t-8.5 -14.5q-18 -18 -62 -5q-55 16 -90 67.5t-39 122.5q-1 22 -4 64.5t-4 59.5q-13 -29 -35 -76.5t-39.5 -84.5t-33.5 -69q-4 -7 -13 -25.5t-13.5 -27
t-13.5 -24.5t-15.5 -26t-15.5 -23t-18.5 -24t-19.5 -21q-50 -48 -116 -52.5t-120.5 33t-72.5 104.5q-13 47 -16 103.5t0 97.5t10 105q33 296 143 623q39 118 100 319q12 42 5 64q-2 6 -5 11q-5 9 -3 14t7.5 6.5t12 2t12.5 -0.5q125 -8 105 -151q-7 -48 -20 -104.5t-25 -96.5
t-31 -105t-29 -98q-97 -346 -114 -620z" />
    <glyph glyph-name="U" unicode="&#xdc;" horiz-adv-x="970" 
d="M212 308q-1 -38 -0.5 -54.5t3.5 -58t4 -62.5q53 49 99 149q45 97 91 208.5t99.5 250t83.5 211.5q8 19 30 72.5t33 81t26.5 71.5t24.5 81q7 27 11 68q3 42 40 47q30 4 24 44q-2 16 4.5 23t22.5 9q90 15 134.5 -41t16.5 -140q-10 -31 -32.5 -96.5t-35.5 -104t-29.5 -94.5
t-27.5 -104q-23 -99 -35 -161.5t-24.5 -150.5t-11.5 -168t14 -158q0 -1 2 -13t4 -18q1 -4 5 -13t5.5 -14.5t0 -13t-8.5 -14.5q-18 -18 -62 -5q-55 16 -90 67.5t-39 122.5q-1 22 -4 64.5t-4 59.5q-13 -29 -35 -76.5t-39.5 -84.5t-33.5 -69q-4 -7 -13 -25.5t-13.5 -27
t-13.5 -24.5t-15.5 -26t-15.5 -23t-18.5 -24t-19.5 -21q-50 -48 -116 -52.5t-120.5 33t-72.5 104.5q-13 47 -16 103.5t0 97.5t10 105q33 296 143 623q39 118 100 319q12 42 5 64q-2 6 -5 11q-5 9 -3 14t7.5 6.5t12 2t12.5 -0.5q125 -8 105 -151q-7 -48 -20 -104.5t-25 -96.5
t-31 -105t-29 -98q-97 -346 -114 -620z" />
    <glyph glyph-name="U" unicode="&#xdb;" horiz-adv-x="970" 
d="M212 308q-1 -38 -0.5 -54.5t3.5 -58t4 -62.5q53 49 99 149q45 97 91 208.5t99.5 250t83.5 211.5q8 19 30 72.5t33 81t26.5 71.5t24.5 81q7 27 11 68q3 42 40 47q30 4 24 44q-2 16 4.5 23t22.5 9q90 15 134.5 -41t16.5 -140q-10 -31 -32.5 -96.5t-35.5 -104t-29.5 -94.5
t-27.5 -104q-23 -99 -35 -161.5t-24.5 -150.5t-11.5 -168t14 -158q0 -1 2 -13t4 -18q1 -4 5 -13t5.5 -14.5t0 -13t-8.5 -14.5q-18 -18 -62 -5q-55 16 -90 67.5t-39 122.5q-1 22 -4 64.5t-4 59.5q-13 -29 -35 -76.5t-39.5 -84.5t-33.5 -69q-4 -7 -13 -25.5t-13.5 -27
t-13.5 -24.5t-15.5 -26t-15.5 -23t-18.5 -24t-19.5 -21q-50 -48 -116 -52.5t-120.5 33t-72.5 104.5q-13 47 -16 103.5t0 97.5t10 105q33 296 143 623q39 118 100 319q12 42 5 64q-2 6 -5 11q-5 9 -3 14t7.5 6.5t12 2t12.5 -0.5q125 -8 105 -151q-7 -48 -20 -104.5t-25 -96.5
t-31 -105t-29 -98q-97 -346 -114 -620z" />
    <glyph glyph-name="U" unicode="&#xda;" horiz-adv-x="970" 
d="M212 308q-1 -38 -0.5 -54.5t3.5 -58t4 -62.5q53 49 99 149q45 97 91 208.5t99.5 250t83.5 211.5q8 19 30 72.5t33 81t26.5 71.5t24.5 81q7 27 11 68q3 42 40 47q30 4 24 44q-2 16 4.5 23t22.5 9q90 15 134.5 -41t16.5 -140q-10 -31 -32.5 -96.5t-35.5 -104t-29.5 -94.5
t-27.5 -104q-23 -99 -35 -161.5t-24.5 -150.5t-11.5 -168t14 -158q0 -1 2 -13t4 -18q1 -4 5 -13t5.5 -14.5t0 -13t-8.5 -14.5q-18 -18 -62 -5q-55 16 -90 67.5t-39 122.5q-1 22 -4 64.5t-4 59.5q-13 -29 -35 -76.5t-39.5 -84.5t-33.5 -69q-4 -7 -13 -25.5t-13.5 -27
t-13.5 -24.5t-15.5 -26t-15.5 -23t-18.5 -24t-19.5 -21q-50 -48 -116 -52.5t-120.5 33t-72.5 104.5q-13 47 -16 103.5t0 97.5t10 105q33 296 143 623q39 118 100 319q12 42 5 64q-2 6 -5 11q-5 9 -3 14t7.5 6.5t12 2t12.5 -0.5q125 -8 105 -151q-7 -48 -20 -104.5t-25 -96.5
t-31 -105t-29 -98q-97 -346 -114 -620z" />
    <glyph glyph-name="U" unicode="&#xd9;" horiz-adv-x="970" 
d="M212 308q-1 -38 -0.5 -54.5t3.5 -58t4 -62.5q53 49 99 149q45 97 91 208.5t99.5 250t83.5 211.5q8 19 30 72.5t33 81t26.5 71.5t24.5 81q7 27 11 68q3 42 40 47q30 4 24 44q-2 16 4.5 23t22.5 9q90 15 134.5 -41t16.5 -140q-10 -31 -32.5 -96.5t-35.5 -104t-29.5 -94.5
t-27.5 -104q-23 -99 -35 -161.5t-24.5 -150.5t-11.5 -168t14 -158q0 -1 2 -13t4 -18q1 -4 5 -13t5.5 -14.5t0 -13t-8.5 -14.5q-18 -18 -62 -5q-55 16 -90 67.5t-39 122.5q-1 22 -4 64.5t-4 59.5q-13 -29 -35 -76.5t-39.5 -84.5t-33.5 -69q-4 -7 -13 -25.5t-13.5 -27
t-13.5 -24.5t-15.5 -26t-15.5 -23t-18.5 -24t-19.5 -21q-50 -48 -116 -52.5t-120.5 33t-72.5 104.5q-13 47 -16 103.5t0 97.5t10 105q33 296 143 623q39 118 100 319q12 42 5 64q-2 6 -5 11q-5 9 -3 14t7.5 6.5t12 2t12.5 -0.5q125 -8 105 -151q-7 -48 -20 -104.5t-25 -96.5
t-31 -105t-29 -98q-97 -346 -114 -620z" />
    <glyph glyph-name="V" unicode="V" horiz-adv-x="632" 
d="M235 432q-12 -14 -14.5 -31.5t0 -43.5t1.5 -37q9 34 33 97.5t33 95.5q8 28 19 58.5t27 68t23 57.5q4 11 36 97t40.5 108.5t33.5 94t37 110t28.5 95.5t28.5 108q7 17 6 38t-18 37q-11 11 -6 22t20 17q88 31 175 -7q14 -6 16 -19.5t-1 -24.5q-6 -43 -18.5 -94t-23 -83
t-31.5 -94.5t-28 -84.5q-30 -91 -98 -271t-98 -273q-10 -30 -29.5 -93.5t-31.5 -100.5t-31 -90t-38 -96q-24 -56 -75 -70.5t-107 15.5q-50 25 -74.5 63.5t-26 81t0.5 93.5q1 18 8 124.5t8.5 134t8 121.5t10 134t10.5 121t13 133.5t14 121t17 130.5q2 17 -9 46.5t-8 46.5
q4 24 15 27q29 8 45 11t40 0.5t42 -16.5q56 -46 47 -124q-49 -394 -53 -430q-3 -28 -25 -361q-2 -21 9 -28q12 -10 11 -16t-12 -20z" />
    <glyph glyph-name="W" unicode="W" horiz-adv-x="1251" 
d="M836 264q1 -9 11 -63q83 209 83 210q64 148 146 458q15 57 51 175t59 210t35 179q4 34 -8 50t-45 19h-9t-11 1t-8 3t-6.5 7t-1.5 12q0 12 6.5 17t14.5 4.5t17 -0.5q30 -1 55 0t55 -1.5t55 -11.5q49 -17 66.5 -45t9.5 -80q-11 -68 -31.5 -142t-49 -164t-42.5 -139
q-48 -174 -70.5 -253t-68 -218t-89.5 -248q-54 -133 -94 -184q-22 -27 -54 -32t-60 5q-20 4 -42 13.5t-35 17t-40 24t-35 21.5q-6 3 -8 14q-65 266 -16 671q0 1 -4 18l-120 -270q-14 -31 -55.5 -126t-72 -158t-64.5 -122q-14 -24 -22 -35q-42 -54 -63 -70q-33 -23 -71 -20
q-46 4 -96 54t-59 99q-5 25 -6.5 50.5t0 55t3.5 48.5t6 54.5t6 49.5q6 55 16 115t18.5 107.5t25 116t25 105.5t30 114.5t29.5 104.5t33 114t31 107q1 5 6 18t6.5 20t1.5 17.5t-6.5 19.5t-19.5 18q-12 9 -3 22t26 17q87 22 133 -19t34 -129q-9 -67 -45.5 -187.5t-41.5 -140.5
q-101 -404 -126 -651v-49q68 140 79 167q192 458 362 757q77 136 92 214q1 6 4 9t7.5 4t8 1t10 -1t8.5 -1q101 -11 129.5 -56.5t7.5 -163.5q-6 -35 -43 -218.5t-50 -282.5q-31 -235 -10 -427z" />
    <glyph glyph-name="X" unicode="X" horiz-adv-x="974" 
d="M458 941q3 -9 14 -38q24 30 70.5 86t69.5 84q148 178 191 238q23 31 86.5 21.5t80.5 -45.5q8 -19 -17 -51q-21 -26 -78 -95t-87 -107q-33 -42 -92 -118.5t-76 -98.5q-5 -6 -15.5 -17.5t-15.5 -17.5q-21 -24 -32 -43t-16 -47.5t9 -56.5q123 -313 186 -446q36 -78 79 -113
q30 -23 -1 -48q-28 -21 -63 -30.5t-74 3t-61 53.5q-65 117 -176 386q-1 3 -32 74q-7 -11 -29.5 -43.5t-32.5 -49.5q-19 -31 -62 -106t-76.5 -129t-68.5 -102q-27 -37 -80.5 -43.5t-88.5 22.5q-15 13 -3 36q190 344 309 528q7 13 22 27q28 30 31.5 65t-12.5 75
q-47 127 -120 429q-2 9 -6.5 32.5t-8 36.5t-13.5 29.5t-26 27.5q-12 8 5 25q59 61 109 49q58 -14 85 -81q31 -76 69.5 -225.5t46.5 -175.5z" />
    <glyph glyph-name="Y" unicode="Y" horiz-adv-x="808" 
d="M191 728q-6 -39 5 -62q31 13 65 53q251 293 422 579q7 12 18 37t18 36q22 39 60 53.5t72 -2.5q37 -18 52 -59t-3 -83q-33 -70 -98.5 -202.5t-73.5 -149.5q-76 -156 -158 -407q-75 -227 -104 -398q-10 -60 -12 -90q-3 -49 -52 -37q-51 12 -80.5 57t-21.5 96
q29 198 132 498q8 23 3 30q-7 -1 -12 -5t-10.5 -12.5t-6.5 -9.5q-121 -151 -242 -100q-69 29 -100.5 98.5t-16.5 160.5q28 175 131 430q27 68 79.5 192.5t68.5 164.5q9 20 28 15q38 -11 56 -41.5t8 -67.5q-21 -83 -73 -233t-62 -182q-76 -242 -92 -359z" />
    <glyph glyph-name="Y" unicode="&#xdd;" horiz-adv-x="808" 
d="M191 728q-6 -39 5 -62q31 13 65 53q251 293 422 579q7 12 18 37t18 36q22 39 60 53.5t72 -2.5q37 -18 52 -59t-3 -83q-33 -70 -98.5 -202.5t-73.5 -149.5q-76 -156 -158 -407q-75 -227 -104 -398q-10 -60 -12 -90q-3 -49 -52 -37q-51 12 -80.5 57t-21.5 96
q29 198 132 498q8 23 3 30q-7 -1 -12 -5t-10.5 -12.5t-6.5 -9.5q-121 -151 -242 -100q-69 29 -100.5 98.5t-16.5 160.5q28 175 131 430q27 68 79.5 192.5t68.5 164.5q9 20 28 15q38 -11 56 -41.5t8 -67.5q-21 -83 -73 -233t-62 -182q-76 -242 -92 -359z" />
    <glyph glyph-name="Z" unicode="Z" horiz-adv-x="1189" 
d="M597 868q123 147 321 361q-52 14 -168 7q-43 -2 -153 -11t-170 -11q-55 -2 -80 23t-29 82q-1 27 0 53v11t1 13t4 9.5t9 8.5q11 1 14 0t9 -10t8 -11q4 -5 10 -7t9.5 -2.5t11.5 0t10 0.5q23 0 179 7t239 4q81 -2 122 1h33t27 -8.5t17 -27.5q18 -1 23 17q5 21 12 30
t16.5 4.5t15 -10t17.5 -18.5q82 -93 -1 -192q-41 -49 -120 -137t-97 -108q-359 -409 -547 -685q-5 -7 -16 -25t-19 -31q61 16 133 26.5t120 14.5t133 9t121 8q1 -5 35 -13q61 -14 105 -79q20 -29 2 -53q-5 -6 -11.5 -8t-10 -2t-13.5 1.5t-12 1.5q-103 15 -297 -3
q-180 -17 -412 -87q-69 -21 -111 34q-17 23 -26.5 38.5t-15.5 41.5t-1 54q17 -20 37.5 -25.5t34 -1.5t38.5 14q-15 24 -18.5 45.5t4.5 42.5t16 35t25 36t23 31q28 43 62.5 90.5t58.5 79t71 89.5t62.5 77t73 87.5t65.5 78.5z" />
    <glyph glyph-name="asciicircum" unicode="^" horiz-adv-x="782" 
d="M721 1423q5 -17 6.5 -22t6.5 -22t5.5 -24t2 -21.5t-2 -21.5t-7.5 -16.5t-13 -14.5t-22 -8q-50 -10 -84 38.5t-29 94.5q6 52 -18.5 136t-26.5 118q0 5 -2.5 10t-6 11.5t-4.5 9.5q-3 -2 -10 -5.5t-12 -6.5t-9 -7q-110 -125 -328 -377q-38 -46 -73 1q-3 4 -12.5 16.5
t-12 16.5t-10 15.5t-9.5 17t-5.5 16.5t-2.5 18t2 18t6.5 20t13.5 20.5t19 22.5q46 46 98 103.5t88.5 99.5t95.5 110.5t89 103.5q18 21 26.5 30t23 19.5t25 11t26 -4.5t34.5 -18q5 -4 9 -7.5t7 -9t5.5 -9.5t4 -11t2.5 -11t2 -14t1.5 -14.5t1.5 -16.5t1 -17q34 -63 58 -206
t40 -193z" />
    <glyph glyph-name="underscore" unicode="_" horiz-adv-x="1288" 
d="M1238 56q15 -31 3 -49t-49 -17h-281v7q-80 -1 -225 -4.5t-263.5 -5.5t-224.5 -2q-67 0 -114 54.5t-42 122.5q1 11 6 19t13 3q47 -29 100.5 -32t124 8t101.5 11q80 1 349 -5t349 1q35 2 59 -4t41 -23.5t25 -30t22 -41.5z" />
    <glyph glyph-name="a" unicode="a" horiz-adv-x="1003" 
d="M1075 617q21 -92 -10.5 -171t-102.5 -164q-110 -132 -178 -187q-53 -43 -101 -53t-85.5 10t-66 56t-51.5 88q-5 12 -8.5 25.5t-7.5 34t-7 32.5q-97 -127 -108 -140q-71 -87 -139 -132q-116 -78 -212 -16q-113 73 -119 194q-3 62 10 136t24 109.5t47.5 134t41.5 113.5
q82 230 297 439q18 18 39.5 25t51 2.5t43.5 -8t50 -15.5q105 -34 120 -132q0 -3 0.5 -12.5t1.5 -14.5q1 -4 2 -14t2 -16t4 -13.5t8 -13.5t12 -10q15 -9 23 9q3 6 11.5 19.5t12 21.5t1 21t-16.5 26q86 25 141 -18q11 -9 13 -21t-1 -21.5t-10 -24t-9 -21.5
q-19 -61 -68.5 -194.5t-79.5 -236.5t-43 -202q0 -4 -2 -14.5t-2.5 -16t0 -14t4 -14t10.5 -8.5q8 -2 12.5 -2.5t12 4.5t11 9t10.5 11l10 10q59 54 119 132.5t89 124.5t94 151q2 3 6.5 11t6.5 12t7 11t8.5 9.5t10 7t11.5 4t13 -0.5q11 -2 18.5 -11t9.5 -15.5t5 -24.5t4 -21z
M442 609q12 17 10 29t-20 24q-49 31 -33 56q11 18 19 38t13.5 35t8 40t4 36.5t1 41t-1 37.5t-3 42.5t-2.5 39.5q-62 -21 -146 -149t-149 -280t-98 -297t-4 -198q46 15 99 71q55 59 103 126t113 171.5t86 136.5z" />
    <glyph glyph-name="a" unicode="&#xe5;" horiz-adv-x="1003" 
d="M1075 617q21 -92 -10.5 -171t-102.5 -164q-110 -132 -178 -187q-53 -43 -101 -53t-85.5 10t-66 56t-51.5 88q-5 12 -8.5 25.5t-7.5 34t-7 32.5q-97 -127 -108 -140q-71 -87 -139 -132q-116 -78 -212 -16q-113 73 -119 194q-3 62 10 136t24 109.5t47.5 134t41.5 113.5
q82 230 297 439q18 18 39.5 25t51 2.5t43.5 -8t50 -15.5q105 -34 120 -132q0 -3 0.5 -12.5t1.5 -14.5q1 -4 2 -14t2 -16t4 -13.5t8 -13.5t12 -10q15 -9 23 9q3 6 11.5 19.5t12 21.5t1 21t-16.5 26q86 25 141 -18q11 -9 13 -21t-1 -21.5t-10 -24t-9 -21.5
q-19 -61 -68.5 -194.5t-79.5 -236.5t-43 -202q0 -4 -2 -14.5t-2.5 -16t0 -14t4 -14t10.5 -8.5q8 -2 12.5 -2.5t12 4.5t11 9t10.5 11l10 10q59 54 119 132.5t89 124.5t94 151q2 3 6.5 11t6.5 12t7 11t8.5 9.5t10 7t11.5 4t13 -0.5q11 -2 18.5 -11t9.5 -15.5t5 -24.5t4 -21z
M442 609q12 17 10 29t-20 24q-49 31 -33 56q11 18 19 38t13.5 35t8 40t4 36.5t1 41t-1 37.5t-3 42.5t-2.5 39.5q-62 -21 -146 -149t-149 -280t-98 -297t-4 -198q46 15 99 71q55 59 103 126t113 171.5t86 136.5z" />
    <glyph glyph-name="a" unicode="&#xe4;" horiz-adv-x="1003" 
d="M1075 617q21 -92 -10.5 -171t-102.5 -164q-110 -132 -178 -187q-53 -43 -101 -53t-85.5 10t-66 56t-51.5 88q-5 12 -8.5 25.5t-7.5 34t-7 32.5q-97 -127 -108 -140q-71 -87 -139 -132q-116 -78 -212 -16q-113 73 -119 194q-3 62 10 136t24 109.5t47.5 134t41.5 113.5
q82 230 297 439q18 18 39.5 25t51 2.5t43.5 -8t50 -15.5q105 -34 120 -132q0 -3 0.5 -12.5t1.5 -14.5q1 -4 2 -14t2 -16t4 -13.5t8 -13.5t12 -10q15 -9 23 9q3 6 11.5 19.5t12 21.5t1 21t-16.5 26q86 25 141 -18q11 -9 13 -21t-1 -21.5t-10 -24t-9 -21.5
q-19 -61 -68.5 -194.5t-79.5 -236.5t-43 -202q0 -4 -2 -14.5t-2.5 -16t0 -14t4 -14t10.5 -8.5q8 -2 12.5 -2.5t12 4.5t11 9t10.5 11l10 10q59 54 119 132.5t89 124.5t94 151q2 3 6.5 11t6.5 12t7 11t8.5 9.5t10 7t11.5 4t13 -0.5q11 -2 18.5 -11t9.5 -15.5t5 -24.5t4 -21z
M442 609q12 17 10 29t-20 24q-49 31 -33 56q11 18 19 38t13.5 35t8 40t4 36.5t1 41t-1 37.5t-3 42.5t-2.5 39.5q-62 -21 -146 -149t-149 -280t-98 -297t-4 -198q46 15 99 71q55 59 103 126t113 171.5t86 136.5z" />
    <glyph glyph-name="a" unicode="&#xe3;" horiz-adv-x="1003" 
d="M1075 617q21 -92 -10.5 -171t-102.5 -164q-110 -132 -178 -187q-53 -43 -101 -53t-85.5 10t-66 56t-51.5 88q-5 12 -8.5 25.5t-7.5 34t-7 32.5q-97 -127 -108 -140q-71 -87 -139 -132q-116 -78 -212 -16q-113 73 -119 194q-3 62 10 136t24 109.5t47.5 134t41.5 113.5
q82 230 297 439q18 18 39.5 25t51 2.5t43.5 -8t50 -15.5q105 -34 120 -132q0 -3 0.5 -12.5t1.5 -14.5q1 -4 2 -14t2 -16t4 -13.5t8 -13.5t12 -10q15 -9 23 9q3 6 11.5 19.5t12 21.5t1 21t-16.5 26q86 25 141 -18q11 -9 13 -21t-1 -21.5t-10 -24t-9 -21.5
q-19 -61 -68.5 -194.5t-79.5 -236.5t-43 -202q0 -4 -2 -14.5t-2.5 -16t0 -14t4 -14t10.5 -8.5q8 -2 12.5 -2.5t12 4.5t11 9t10.5 11l10 10q59 54 119 132.5t89 124.5t94 151q2 3 6.5 11t6.5 12t7 11t8.5 9.5t10 7t11.5 4t13 -0.5q11 -2 18.5 -11t9.5 -15.5t5 -24.5t4 -21z
M442 609q12 17 10 29t-20 24q-49 31 -33 56q11 18 19 38t13.5 35t8 40t4 36.5t1 41t-1 37.5t-3 42.5t-2.5 39.5q-62 -21 -146 -149t-149 -280t-98 -297t-4 -198q46 15 99 71q55 59 103 126t113 171.5t86 136.5z" />
    <glyph glyph-name="a" unicode="&#xe2;" horiz-adv-x="1003" 
d="M1075 617q21 -92 -10.5 -171t-102.5 -164q-110 -132 -178 -187q-53 -43 -101 -53t-85.5 10t-66 56t-51.5 88q-5 12 -8.5 25.5t-7.5 34t-7 32.5q-97 -127 -108 -140q-71 -87 -139 -132q-116 -78 -212 -16q-113 73 -119 194q-3 62 10 136t24 109.5t47.5 134t41.5 113.5
q82 230 297 439q18 18 39.5 25t51 2.5t43.5 -8t50 -15.5q105 -34 120 -132q0 -3 0.5 -12.5t1.5 -14.5q1 -4 2 -14t2 -16t4 -13.5t8 -13.5t12 -10q15 -9 23 9q3 6 11.5 19.5t12 21.5t1 21t-16.5 26q86 25 141 -18q11 -9 13 -21t-1 -21.5t-10 -24t-9 -21.5
q-19 -61 -68.5 -194.5t-79.5 -236.5t-43 -202q0 -4 -2 -14.5t-2.5 -16t0 -14t4 -14t10.5 -8.5q8 -2 12.5 -2.5t12 4.5t11 9t10.5 11l10 10q59 54 119 132.5t89 124.5t94 151q2 3 6.5 11t6.5 12t7 11t8.5 9.5t10 7t11.5 4t13 -0.5q11 -2 18.5 -11t9.5 -15.5t5 -24.5t4 -21z
M442 609q12 17 10 29t-20 24q-49 31 -33 56q11 18 19 38t13.5 35t8 40t4 36.5t1 41t-1 37.5t-3 42.5t-2.5 39.5q-62 -21 -146 -149t-149 -280t-98 -297t-4 -198q46 15 99 71q55 59 103 126t113 171.5t86 136.5z" />
    <glyph glyph-name="a" unicode="&#xe1;" horiz-adv-x="1003" 
d="M1075 617q21 -92 -10.5 -171t-102.5 -164q-110 -132 -178 -187q-53 -43 -101 -53t-85.5 10t-66 56t-51.5 88q-5 12 -8.5 25.5t-7.5 34t-7 32.5q-97 -127 -108 -140q-71 -87 -139 -132q-116 -78 -212 -16q-113 73 -119 194q-3 62 10 136t24 109.5t47.5 134t41.5 113.5
q82 230 297 439q18 18 39.5 25t51 2.5t43.5 -8t50 -15.5q105 -34 120 -132q0 -3 0.5 -12.5t1.5 -14.5q1 -4 2 -14t2 -16t4 -13.5t8 -13.5t12 -10q15 -9 23 9q3 6 11.5 19.5t12 21.5t1 21t-16.5 26q86 25 141 -18q11 -9 13 -21t-1 -21.5t-10 -24t-9 -21.5
q-19 -61 -68.5 -194.5t-79.5 -236.5t-43 -202q0 -4 -2 -14.5t-2.5 -16t0 -14t4 -14t10.5 -8.5q8 -2 12.5 -2.5t12 4.5t11 9t10.5 11l10 10q59 54 119 132.5t89 124.5t94 151q2 3 6.5 11t6.5 12t7 11t8.5 9.5t10 7t11.5 4t13 -0.5q11 -2 18.5 -11t9.5 -15.5t5 -24.5t4 -21z
M442 609q12 17 10 29t-20 24q-49 31 -33 56q11 18 19 38t13.5 35t8 40t4 36.5t1 41t-1 37.5t-3 42.5t-2.5 39.5q-62 -21 -146 -149t-149 -280t-98 -297t-4 -198q46 15 99 71q55 59 103 126t113 171.5t86 136.5z" />
    <glyph glyph-name="a" unicode="&#xe0;" horiz-adv-x="1003" 
d="M1075 617q21 -92 -10.5 -171t-102.5 -164q-110 -132 -178 -187q-53 -43 -101 -53t-85.5 10t-66 56t-51.5 88q-5 12 -8.5 25.5t-7.5 34t-7 32.5q-97 -127 -108 -140q-71 -87 -139 -132q-116 -78 -212 -16q-113 73 -119 194q-3 62 10 136t24 109.5t47.5 134t41.5 113.5
q82 230 297 439q18 18 39.5 25t51 2.5t43.5 -8t50 -15.5q105 -34 120 -132q0 -3 0.5 -12.5t1.5 -14.5q1 -4 2 -14t2 -16t4 -13.5t8 -13.5t12 -10q15 -9 23 9q3 6 11.5 19.5t12 21.5t1 21t-16.5 26q86 25 141 -18q11 -9 13 -21t-1 -21.5t-10 -24t-9 -21.5
q-19 -61 -68.5 -194.5t-79.5 -236.5t-43 -202q0 -4 -2 -14.5t-2.5 -16t0 -14t4 -14t10.5 -8.5q8 -2 12.5 -2.5t12 4.5t11 9t10.5 11l10 10q59 54 119 132.5t89 124.5t94 151q2 3 6.5 11t6.5 12t7 11t8.5 9.5t10 7t11.5 4t13 -0.5q11 -2 18.5 -11t9.5 -15.5t5 -24.5t4 -21z
M442 609q12 17 10 29t-20 24q-49 31 -33 56q11 18 19 38t13.5 35t8 40t4 36.5t1 41t-1 37.5t-3 42.5t-2.5 39.5q-62 -21 -146 -149t-149 -280t-98 -297t-4 -198q46 15 99 71q55 59 103 126t113 171.5t86 136.5z" />
    <glyph glyph-name="b" unicode="b" horiz-adv-x="737" 
d="M716 1034q81 -66 52 -191q-66 -279 -249 -516q-124 -160 -290 -259q-12 -7 -26 -13t-25 -10t-28 -6.5t-25.5 -4.5t-29 -2t-26.5 -0.5t-29 1t-26.5 1.5t-29 2.5t-26.5 2.5q-22 2 -38 18t-31.5 40.5t-26.5 34.5q-17 16 -21.5 33t-2 25.5t15 31t15.5 28.5q11 21 18.5 47.5
t14.5 59.5t12 51q151 540 444 1112q20 40 38 79q-2 4 -17 8t-9 20q2 4 5.5 15t6 16t7.5 12t12.5 10t18.5 3q62 0 92 -51q36 -63 12 -128q-31 -84 -124 -275.5t-129 -306.5q103 117 189 154q134 57 256 -42zM643 887q1 2 2.5 11t2.5 12.5t2 11.5t1 12v11t-1.5 11.5t-4 9.5
t-6.5 9.5t-9 7.5q-9 5 -19.5 6t-18 -1t-19.5 -8.5t-17 -10t-17 -12.5q-144 -105 -259 -329q-20 -38 -55 -120t-68 -143t-75 -110q-8 -10 -14.5 -22t-17 -34.5t-15.5 -33.5q141 64 270 183q134 125 220 254.5t118 284.5z" />
    <glyph glyph-name="c" unicode="c" horiz-adv-x="704" 
d="M789 671q33 -89 -7 -167q-158 -301 -420 -442q-155 -84 -310 33q-149 111 -131 306q7 75 29.5 150t49 133t73 130.5t79.5 117.5t91 119q1 2 5 8t8 11q-10 -2 -25.5 -4t-23.5 -3q20 19 42 29.5t39.5 13t41 -2t37.5 -9.5t39 -15t36 -14q63 -22 96.5 -83t25 -131t-56.5 -118
q-33 -33 -93 -17.5t-72 59.5q-3 10 9 22q7 7 13 15t10 15t7 17t4.5 15.5t2.5 17.5t1.5 17t-0.5 19t-1.5 17.5t-2 19.5t-1.5 19q-23 -15 -42.5 -37t-30 -39t-27 -46t-24.5 -42q-84 -134 -134 -252t-60 -245q-8 -103 56 -138q20 -11 40 -13t41 5.5t34.5 15t35.5 21.5
q88 57 162.5 135t156.5 185q14 19 37.5 54.5t44 63.5t43.5 50q48 47 72 -16z" />
    <glyph glyph-name="c" unicode="&#xe7;" horiz-adv-x="704" 
d="M789 671q33 -89 -7 -167q-158 -301 -420 -442q-155 -84 -310 33q-149 111 -131 306q7 75 29.5 150t49 133t73 130.5t79.5 117.5t91 119q1 2 5 8t8 11q-10 -2 -25.5 -4t-23.5 -3q20 19 42 29.5t39.5 13t41 -2t37.5 -9.5t39 -15t36 -14q63 -22 96.5 -83t25 -131t-56.5 -118
q-33 -33 -93 -17.5t-72 59.5q-3 10 9 22q7 7 13 15t10 15t7 17t4.5 15.5t2.5 17.5t1.5 17t-0.5 19t-1.5 17.5t-2 19.5t-1.5 19q-23 -15 -42.5 -37t-30 -39t-27 -46t-24.5 -42q-84 -134 -134 -252t-60 -245q-8 -103 56 -138q20 -11 40 -13t41 5.5t34.5 15t35.5 21.5
q88 57 162.5 135t156.5 185q14 19 37.5 54.5t44 63.5t43.5 50q48 47 72 -16z" />
    <glyph glyph-name="d" unicode="d" horiz-adv-x="1044" 
d="M785 854q-216 -246 -250 -536q-1 -11 -4.5 -31.5t-6 -34.5t-2.5 -32.5t4 -31.5t14.5 -25t27.5 -19q10 -4 20.5 -4t19 2.5t18.5 9t17.5 13t16.5 17t15 18t15 19t14 17.5q170 206 289 402q9 14 15 22t17.5 18t22 9.5t27.5 -4.5q27 -11 29.5 -38t-5.5 -49
q-51 -265 -313 -506q-67 -61 -147 -65t-145.5 47t-94.5 141q-2 8 -7.5 24.5l-7.5 22.5q-9 -11 -48.5 -58t-61.5 -70q-72 -73 -136.5 -91.5t-133.5 14.5q-82 38 -111.5 116.5t1.5 187.5q114 388 383 709q5 6 13 12t13.5 9.5t18 10t18.5 9.5q-29 3 -51 4q58 42 142 30t150 -69
q46 23 80 64t51.5 79.5t41.5 92t45 85.5q16 25 78 146q10 21 9 25q-5 24 -6 36.5t8.5 14.5t17.5 0t21 -6t19 -5q22 -3 75 -27q70 -31 93 -83t-7 -120q-141 -315 -322 -522zM456 974q-3 10 0 22t1 24.5t-13 16.5q-13 4 -23.5 -2t-25 -22.5t-18.5 -20.5q-7 -7 -12 -17
q-123 -206 -156 -266q-100 -179 -133 -259q-40 -97 -54 -186q-1 -9 -7 -29t-8.5 -32t1.5 -26t17 -20q8 -4 16 -4.5t17 3t15 7t15.5 12t14 12.5t14 14.5t12.5 13.5q38 40 72 82.5t70.5 102.5t53.5 88.5t60 109.5t51 96q16 28 -17 37q-27 7 -30 19.5t14 35.5q60 84 53 188z
" />
    <glyph glyph-name="e" unicode="e" horiz-adv-x="638" 
d="M705 733q11 -5 13 -16t0 -22q-19 -342 -352 -570q-187 -129 -349 -43q-163 86 -134 344q46 410 366 739q17 18 9 53q92 -29 134 -44q110 -38 134.5 -96.5t-24.5 -167.5q-88 -197 -237 -368q-84 -96 -175 -54q-24 11 -32 -19q-39 -136 -32 -234q2 -33 18 -45.5t50 -6.5
q58 11 109 34.5t100 64t79.5 71t80.5 85.5q22 24 43.5 50t45.5 58.5t37.5 51.5t42.5 60.5t38 54.5q18 27 35 20zM295 935q-82 -85 -158 -260q9 13 35.5 47.5t38.5 52.5t31.5 47.5t31.5 56.5t21 56z" />
    <glyph glyph-name="e" unicode="&#xeb;" horiz-adv-x="638" 
d="M705 733q11 -5 13 -16t0 -22q-19 -342 -352 -570q-187 -129 -349 -43q-163 86 -134 344q46 410 366 739q17 18 9 53q92 -29 134 -44q110 -38 134.5 -96.5t-24.5 -167.5q-88 -197 -237 -368q-84 -96 -175 -54q-24 11 -32 -19q-39 -136 -32 -234q2 -33 18 -45.5t50 -6.5
q58 11 109 34.5t100 64t79.5 71t80.5 85.5q22 24 43.5 50t45.5 58.5t37.5 51.5t42.5 60.5t38 54.5q18 27 35 20zM295 935q-82 -85 -158 -260q9 13 35.5 47.5t38.5 52.5t31.5 47.5t31.5 56.5t21 56z" />
    <glyph glyph-name="e" unicode="&#xea;" horiz-adv-x="638" 
d="M705 733q11 -5 13 -16t0 -22q-19 -342 -352 -570q-187 -129 -349 -43q-163 86 -134 344q46 410 366 739q17 18 9 53q92 -29 134 -44q110 -38 134.5 -96.5t-24.5 -167.5q-88 -197 -237 -368q-84 -96 -175 -54q-24 11 -32 -19q-39 -136 -32 -234q2 -33 18 -45.5t50 -6.5
q58 11 109 34.5t100 64t79.5 71t80.5 85.5q22 24 43.5 50t45.5 58.5t37.5 51.5t42.5 60.5t38 54.5q18 27 35 20zM295 935q-82 -85 -158 -260q9 13 35.5 47.5t38.5 52.5t31.5 47.5t31.5 56.5t21 56z" />
    <glyph glyph-name="e" unicode="&#xe9;" horiz-adv-x="638" 
d="M705 733q11 -5 13 -16t0 -22q-19 -342 -352 -570q-187 -129 -349 -43q-163 86 -134 344q46 410 366 739q17 18 9 53q92 -29 134 -44q110 -38 134.5 -96.5t-24.5 -167.5q-88 -197 -237 -368q-84 -96 -175 -54q-24 11 -32 -19q-39 -136 -32 -234q2 -33 18 -45.5t50 -6.5
q58 11 109 34.5t100 64t79.5 71t80.5 85.5q22 24 43.5 50t45.5 58.5t37.5 51.5t42.5 60.5t38 54.5q18 27 35 20zM295 935q-82 -85 -158 -260q9 13 35.5 47.5t38.5 52.5t31.5 47.5t31.5 56.5t21 56z" />
    <glyph glyph-name="e" unicode="&#xe8;" horiz-adv-x="638" 
d="M705 733q11 -5 13 -16t0 -22q-19 -342 -352 -570q-187 -129 -349 -43q-163 86 -134 344q46 410 366 739q17 18 9 53q92 -29 134 -44q110 -38 134.5 -96.5t-24.5 -167.5q-88 -197 -237 -368q-84 -96 -175 -54q-24 11 -32 -19q-39 -136 -32 -234q2 -33 18 -45.5t50 -6.5
q58 11 109 34.5t100 64t79.5 71t80.5 85.5q22 24 43.5 50t45.5 58.5t37.5 51.5t42.5 60.5t38 54.5q18 27 35 20zM295 935q-82 -85 -158 -260q9 13 35.5 47.5t38.5 52.5t31.5 47.5t31.5 56.5t21 56z" />
    <glyph glyph-name="f" unicode="f" horiz-adv-x="743" 
d="M841 836q3 -21 -6.5 -33.5t-20.5 -16.5t-31 -7q-209 -33 -356 -90q-1 0 -11 -3.5t-12.5 -5.5t-5.5 -8.5t-1 -15.5q17 -70 19.5 -141.5t-9 -143t-28.5 -134.5t-44 -137q-67 -187 -136 -289q-17 -25 -26 -37t-26.5 -30t-37 -25t-42.5 -6q-125 7 -194 137q-13 25 -21.5 50.5
t-11 54t-3.5 49.5t3.5 55t7 50t10 54.5t9.5 50.5q9 51 24.5 105.5t37.5 125.5t32 104q8 26 -13.5 64t-23.5 50q-1 6 -3.5 18t-3 17t0.5 13t6 12t14.5 7.5t25.5 4.5q69 6 94 70q103 260 267 622q9 20 10.5 41t0 46t-0.5 39q4 35 42 33q75 -4 109.5 -51.5t15.5 -122.5
q-17 -68 -46.5 -140t-70 -158t-60.5 -134q-10 -24 -21.5 -51t-26.5 -62t-25 -57q195 55 307 86q72 20 154 34q37 7 80 -24.5t48 -69.5zM165 151q82 227 64 394q0 3 -0.5 14t-1.5 16.5t-6 11.5t-14 6q-41 2 -56 -43q-101 -314 -129 -530q-1 -6 -4 -25.5t-4 -28t-2 -26t0 -29
t4 -27t9 -29.5q12 15 22 30.5t20 33.5t17.5 30.5t16.5 34t13.5 32t14 35.5t12 32l12.5 35t12 33z" />
    <glyph glyph-name="g" unicode="g" horiz-adv-x="741" 
d="M530 966q92 -20 135.5 -83t26.5 -151q-11 -58 -30.5 -128.5t-32.5 -110.5t-44.5 -130.5t-39.5 -114.5q-131 -386 -332 -697q-53 -82 -125 -160q-59 -65 -143 -70.5t-152 50.5q-7 6 -38 30.5t-41 33t-36 30.5t-38 36t-30.5 35.5t-31.5 42.5t-23 44q-4 10 -5 15
q28 -38 103 -70.5t88 -41.5q72 -47 154.5 -18t157.5 125q101 131 177.5 282.5t151.5 346.5q20 52 64 178q-19 -23 -83 -101.5t-96 -117.5q-49 -59 -79 -82q-3 -2 -19 -15t-21 -16t-19.5 -13t-22 -12.5t-21.5 -7.5t-24.5 -4.5t-24 2.5t-27.5 8q-63 28 -98 89.5t-33 129.5
q3 64 19 125t51 153t44 117q14 43 34 83.5t49 83.5t49 71t58.5 78t54.5 71q6 8 25 18.5t28.5 24t4.5 36.5q19 9 38 10.5t39 -4t34 -11t36 -16.5t33 -16q93 -40 55 -158zM286 697q31 45 48 96.5t31 130t21 108.5q-56 -22 -154.5 -198.5t-169 -369.5t-55.5 -259q6 5 15.5 11
t14.5 10q32 26 66 62.5t54 61t58 74.5t51 67q18 20 17.5 37.5t-27.5 32.5q-61 35 -35 63q6 7 21 22t25.5 27t18.5 24z" />
    <glyph glyph-name="h" unicode="h" horiz-adv-x="1015" 
d="M1050 694q40 -10 44 -86q8 -189 -129 -352q-9 -11 -31 -38t-34 -40.5t-32 -34t-40 -35t-42 -25.5q-139 -69 -256 23q-128 100 -98 249q60 298 135 494q2 5 3.5 11t5 17t6.5 21q-38 -26 -75 -64t-52.5 -57.5t-54.5 -70.5q-56 -74 -105 -171.5t-98 -209t-88 -180.5
q-56 -99 -148 -102q-74 -1 -98 78q-5 16 -5.5 33t3.5 35t8 31t12 34t11 31q85 264 140 424.5t146.5 385t186.5 406.5q30 60 16 95q-7 18 19 26q49 16 89 -23q26 -25 28 -60.5t-8 -65.5q-18 -87 -55.5 -183t-85.5 -202.5t-72 -176.5q-6 -15 -18.5 -48.5t-20.5 -54.5
q105 117 117 129q81 83 172 103q121 27 181 -61q53 -78 11 -195q-93 -262 -144 -509q-16 -75 18 -92q11 -3 18 -4t18.5 4.5t18 10t17.5 12t17 11.5q8 5 10.5 11t1 10.5l-4.5 13.5t-4 14q13 -12 25 -11t17 5t17 16q64 67 113.5 147.5t104.5 192.5q1 2 2.5 8t3.5 8
q5 6 14.5 27t20 30t28.5 5z" />
    <glyph glyph-name="i" unicode="i" horiz-adv-x="440" 
d="M479 562q12 -78 -8.5 -146.5t-65.5 -141.5q-109 -179 -206 -247q-64 -41 -120.5 -19.5t-96 83.5t-47.5 136q-2 17 -4.5 49.5t-3.5 47.5q13 165 58 291q18 51 50.5 149.5t48.5 144.5q2 4 5 15t5 17t6 14.5t8.5 12.5t10 8t13.5 3.5t17 -4.5q70 -29 55 -129
q-13 -86 -62.5 -232t-63.5 -207q-28 -125 -29 -219q-1 -46 14 -55t44 13q23 16 43 35t41.5 47.5t33 44.5t36.5 54.5t32 48.5q20 29 40 63t45 77.5t38 65.5q9 17 18.5 25t23.5 5q8 -2 12.5 -8t5.5 -11.5t1.5 -16t1.5 -14.5zM270 1100q-8 2 -27.5 5t-29.5 6.5t-23.5 11.5
t-20 24t-7.5 40q-1 15 5.5 23.5t13.5 11t18 4t14 2.5q42 4 60 -21.5t27 -73.5q3 -16 -7 -26t-23 -7z" />
    <glyph glyph-name="i" unicode="&#xef;" horiz-adv-x="440" 
d="M479 562q12 -78 -8.5 -146.5t-65.5 -141.5q-109 -179 -206 -247q-64 -41 -120.5 -19.5t-96 83.5t-47.5 136q-2 17 -4.5 49.5t-3.5 47.5q13 165 58 291q18 51 50.5 149.5t48.5 144.5q2 4 5 15t5 17t6 14.5t8.5 12.5t10 8t13.5 3.5t17 -4.5q70 -29 55 -129
q-13 -86 -62.5 -232t-63.5 -207q-28 -125 -29 -219q-1 -46 14 -55t44 13q23 16 43 35t41.5 47.5t33 44.5t36.5 54.5t32 48.5q20 29 40 63t45 77.5t38 65.5q9 17 18.5 25t23.5 5q8 -2 12.5 -8t5.5 -11.5t1.5 -16t1.5 -14.5zM270 1100q-8 2 -27.5 5t-29.5 6.5t-23.5 11.5
t-20 24t-7.5 40q-1 15 5.5 23.5t13.5 11t18 4t14 2.5q42 4 60 -21.5t27 -73.5q3 -16 -7 -26t-23 -7z" />
    <glyph glyph-name="i" unicode="&#xee;" horiz-adv-x="440" 
d="M479 562q12 -78 -8.5 -146.5t-65.5 -141.5q-109 -179 -206 -247q-64 -41 -120.5 -19.5t-96 83.5t-47.5 136q-2 17 -4.5 49.5t-3.5 47.5q13 165 58 291q18 51 50.5 149.5t48.5 144.5q2 4 5 15t5 17t6 14.5t8.5 12.5t10 8t13.5 3.5t17 -4.5q70 -29 55 -129
q-13 -86 -62.5 -232t-63.5 -207q-28 -125 -29 -219q-1 -46 14 -55t44 13q23 16 43 35t41.5 47.5t33 44.5t36.5 54.5t32 48.5q20 29 40 63t45 77.5t38 65.5q9 17 18.5 25t23.5 5q8 -2 12.5 -8t5.5 -11.5t1.5 -16t1.5 -14.5zM270 1100q-8 2 -27.5 5t-29.5 6.5t-23.5 11.5
t-20 24t-7.5 40q-1 15 5.5 23.5t13.5 11t18 4t14 2.5q42 4 60 -21.5t27 -73.5q3 -16 -7 -26t-23 -7z" />
    <glyph glyph-name="i" unicode="&#xed;" horiz-adv-x="440" 
d="M479 562q12 -78 -8.5 -146.5t-65.5 -141.5q-109 -179 -206 -247q-64 -41 -120.5 -19.5t-96 83.5t-47.5 136q-2 17 -4.5 49.5t-3.5 47.5q13 165 58 291q18 51 50.5 149.5t48.5 144.5q2 4 5 15t5 17t6 14.5t8.5 12.5t10 8t13.5 3.5t17 -4.5q70 -29 55 -129
q-13 -86 -62.5 -232t-63.5 -207q-28 -125 -29 -219q-1 -46 14 -55t44 13q23 16 43 35t41.5 47.5t33 44.5t36.5 54.5t32 48.5q20 29 40 63t45 77.5t38 65.5q9 17 18.5 25t23.5 5q8 -2 12.5 -8t5.5 -11.5t1.5 -16t1.5 -14.5zM270 1100q-8 2 -27.5 5t-29.5 6.5t-23.5 11.5
t-20 24t-7.5 40q-1 15 5.5 23.5t13.5 11t18 4t14 2.5q42 4 60 -21.5t27 -73.5q3 -16 -7 -26t-23 -7z" />
    <glyph glyph-name="i" unicode="&#xec;" horiz-adv-x="440" 
d="M479 562q12 -78 -8.5 -146.5t-65.5 -141.5q-109 -179 -206 -247q-64 -41 -120.5 -19.5t-96 83.5t-47.5 136q-2 17 -4.5 49.5t-3.5 47.5q13 165 58 291q18 51 50.5 149.5t48.5 144.5q2 4 5 15t5 17t6 14.5t8.5 12.5t10 8t13.5 3.5t17 -4.5q70 -29 55 -129
q-13 -86 -62.5 -232t-63.5 -207q-28 -125 -29 -219q-1 -46 14 -55t44 13q23 16 43 35t41.5 47.5t33 44.5t36.5 54.5t32 48.5q20 29 40 63t45 77.5t38 65.5q9 17 18.5 25t23.5 5q8 -2 12.5 -8t5.5 -11.5t1.5 -16t1.5 -14.5zM270 1100q-8 2 -27.5 5t-29.5 6.5t-23.5 11.5
t-20 24t-7.5 40q-1 15 5.5 23.5t13.5 11t18 4t14 2.5q42 4 60 -21.5t27 -73.5q3 -16 -7 -26t-23 -7z" />
    <glyph glyph-name="j" unicode="j" horiz-adv-x="370" 
d="M191 987q38 -5 59 -26.5t21 -56.5q0 -48 -9.5 -98t-28 -116t-24.5 -95q-70 -310 -163 -594q-30 -93 -54 -157t-60 -142.5t-82 -145.5t-103 -124q-219 -221 -428 12q-6 7 -28 26.5t-33.5 36t-14.5 38.5q31 1 74.5 -29t69.5 -32q80 -7 139 28.5t118 104.5
q66 78 118.5 167.5t92 193.5t64.5 187t56 204q47 183 135 551q9 38 27 55t54 12zM326 1153q5 -16 -7 -26.5t-32 -10.5q-55 -1 -97.5 25.5t-39.5 60.5q1 16 9 25t16 11t19.5 3t13.5 1q30 3 51.5 -2.5t34 -20.5t19.5 -29.5t13 -36.5z" />
    <glyph glyph-name="k" unicode="k" horiz-adv-x="841" 
d="M835 229q11 -64 -20.5 -93t-92.5 -6q-290 109 -530 212q-63 27 -75 26q-17 -1 -28 -33q-3 -12 -13 -49q-45 -179 -49 -190q-6 -19 -17.5 -28t-24 -8t-24 7t-22.5 15q-87 75 -49 175q36 92 80 267.5t66 243.5q6 19 28.5 90.5t33 101t31.5 84.5t42 97.5t46 82.5
q64 103 97 183q15 38 -15 47q-7 2 -9.5 7t-2.5 8.5t2 11.5t2 9q4 22 33 24q72 6 113 -49t17 -123q-7 -21 -21 -67.5t-28 -85t-34 -75.5q88 53 96 57q62 31 127 17.5t105 -68.5q44 -61 5 -163q-94 -246 -344 -461q-21 -20 -18.5 -28t27.5 -18q133 -51 397 -157
q21 -8 31.5 -13.5t22.5 -18.5t15 -32zM569 1052q-51 -6 -140.5 -89.5t-159.5 -186.5t-71 -159q249 183 371 435z" />
    <glyph glyph-name="l" unicode="l" horiz-adv-x="466" 
d="M118 559q-35 -21 -57.5 -48t-34 -60t-16.5 -60t-9.5 -68t-9.5 -64q-2 -8 0 -17q4 -20 1 -38.5t3 -37t25 -26.5q29 -12 56 -0.5t60 37.5q22 17 43.5 38t37 37.5t37 44.5t32 41.5t33.5 47.5t29 44t31 49.5t29 45.5q36 57 75 111q30 40 49 -7q18 -44 -2 -129
q-57 -240 -314 -423q-59 -42 -124 -44.5t-129 37.5q-133 86 -98 266q27 138 46 211q4 16 -7 37.5t-12 32.5q14 -2 23 1t14.5 12.5t7.5 15t7 20.5q142 476 402 917q18 31 37.5 35.5t45.5 -6.5q7 -3 65 -21q41 -14 62 -24t36 -22t14.5 -31t-6.5 -41.5t-23 -62.5
q-15 -36 -62 -152.5t-71 -171.5t-68 -143t-88 -156q-12 -20 -36 -61t-39.5 -66t-41 -54.5t-53.5 -46.5z" />
    <glyph glyph-name="m" unicode="m" horiz-adv-x="1157" 
d="M1278 646q0 -33 -5 -65t-17.5 -68.5t-21 -58t-28 -65.5t-25.5 -59q2 8 6 26.5t7 30.5q-117 -180 -143 -219q-10 -14 -59 -71q-43 -50 -89 -66t-85 -0.5t-70.5 44.5t-55.5 70q-34 59 -42.5 129t0.5 124.5t30 131.5q8 30 44 150.5t52 187.5q-16 -25 -48 -71.5t-56.5 -84.5
t-44.5 -74q-39 -70 -108.5 -206.5t-79.5 -156.5q-19 -37 -71 -112q-4 -6 -13.5 -10t-16.5 -2q-93 19 -120 31q-29 13 -30 30.5t13.5 41t15.5 33.5q7 70 24.5 151t33.5 137t43 147q2 6 6 29q-57 -81 -102 -168t-104 -222t-76 -172q-44 -96 -68 -143q-23 -46 -84 -13
q-89 47 -69 148q20 100 87 307q44 136 182 587q7 22 3 39q-1 4 -7 14t-6.5 14.5t4.5 15.5q5 5 11.5 7t11 2t14.5 -2t12 -2q67 -10 95.5 -53.5t12.5 -113.5q-3 -13 -28 -100q133 163 141 173q57 76 152 40q89 -34 69 -124q-6 -27 -19.5 -83t-20.5 -86q88 141 182 237
q117 120 133 134q21 19 48.5 20.5t45 -5t47.5 -21.5q72 -34 48 -105q-15 -46 -45 -133t-53.5 -157t-42.5 -134q-8 -26 -31.5 -97.5t-34 -109t-20.5 -97t-9 -110.5q2 -53 20 -81q70 53 147 177q33 52 90 151.5t83 141.5q25 42 60 60q29 17 52 7.5t23 -48.5z" />
    <glyph glyph-name="n" unicode="n" horiz-adv-x="679" 
d="M697 349q62 -68 30 -117q-38 -59 -129 -48q-95 12 -161.5 92.5t-69.5 186.5q-1 29 1 60t5 55.5t10 59.5t11 54.5t15 58t15.5 53.5t18 58t16.5 54q-21 -11 -80.5 -95t-99.5 -153q-139 -239 -251 -595q-10 -31 -26 -38t-45 5q-102 42 -72 179q19 87 46 181t65 212.5
t55 177.5q10 35 83 259q17 52 0 82q-11 20 -3.5 32t31.5 13q66 3 95 -33t18 -107q-2 -13 -6 -42.5t-7 -46.5q186 207 191 212q52 56 115 55.5t111 -58.5q32 -39 0 -132q-8 -23 -44 -122.5t-49.5 -141.5t-33.5 -118.5t-28 -140.5q-6 -46 0 -141q1 -21 9 -35t29 -13
q34 2 40 52q1 4 1.5 17t1.5 19t7 12.5t16 8.5q11 2 20 -2.5t13 -9.5t10.5 -17.5t8.5 -16.5q11 -20 17 -26z" />
    <glyph glyph-name="n" unicode="&#xf1;" horiz-adv-x="679" 
d="M697 349q62 -68 30 -117q-38 -59 -129 -48q-95 12 -161.5 92.5t-69.5 186.5q-1 29 1 60t5 55.5t10 59.5t11 54.5t15 58t15.5 53.5t18 58t16.5 54q-21 -11 -80.5 -95t-99.5 -153q-139 -239 -251 -595q-10 -31 -26 -38t-45 5q-102 42 -72 179q19 87 46 181t65 212.5
t55 177.5q10 35 83 259q17 52 0 82q-11 20 -3.5 32t31.5 13q66 3 95 -33t18 -107q-2 -13 -6 -42.5t-7 -46.5q186 207 191 212q52 56 115 55.5t111 -58.5q32 -39 0 -132q-8 -23 -44 -122.5t-49.5 -141.5t-33.5 -118.5t-28 -140.5q-6 -46 0 -141q1 -21 9 -35t29 -13
q34 2 40 52q1 4 1.5 17t1.5 19t7 12.5t16 8.5q11 2 20 -2.5t13 -9.5t10.5 -17.5t8.5 -16.5q11 -20 17 -26z" />
    <glyph glyph-name="o" unicode="o" horiz-adv-x="614" 
d="M147 1111q62 21 121.5 20t114 -27t96 -65t66.5 -94t25 -115q0 -80 -20.5 -161t-59 -184.5t-52.5 -151.5q-23 -79 -46 -135.5t-61 -104.5q-61 -78 -155.5 -78.5t-160.5 76.5q-103 118 -65 293q47 217 158 515q8 20 22.5 65t28 78t30.5 63q-6 1 -19.5 3t-22.5 3zM330 554
q8 28 -12 38q-64 32 -124 64q-38 -105 -54 -153t-35.5 -135.5t-19.5 -161.5v-12.5v-14.5t1.5 -12.5t4.5 -13t8 -8.5t13 -7q16 -4 29.5 4t19.5 15.5t17 25.5q85 138 152 371zM391 899q2 8 -1 20.5t-9.5 33.5t-9.5 31q0 1 -1.5 5t-2 5t-1.5 4.5t-2 5t-3 4t-4 3.5t-4.5 2.5
t-5.5 1.5q-16 2 -32 -22q-20 -30 -31.5 -68.5t-15.5 -68t-7 -75.5q-1 -20 0 -32t11.5 -24t31.5 -12q77 -2 78 65q0 3 9 121z" />
    <glyph glyph-name="o" unicode="&#xf8;" horiz-adv-x="614" 
d="M147 1111q62 21 121.5 20t114 -27t96 -65t66.5 -94t25 -115q0 -80 -20.5 -161t-59 -184.5t-52.5 -151.5q-23 -79 -46 -135.5t-61 -104.5q-61 -78 -155.5 -78.5t-160.5 76.5q-103 118 -65 293q47 217 158 515q8 20 22.5 65t28 78t30.5 63q-6 1 -19.5 3t-22.5 3zM330 554
q8 28 -12 38q-64 32 -124 64q-38 -105 -54 -153t-35.5 -135.5t-19.5 -161.5v-12.5v-14.5t1.5 -12.5t4.5 -13t8 -8.5t13 -7q16 -4 29.5 4t19.5 15.5t17 25.5q85 138 152 371zM391 899q2 8 -1 20.5t-9.5 33.5t-9.5 31q0 1 -1.5 5t-2 5t-1.5 4.5t-2 5t-3 4t-4 3.5t-4.5 2.5
t-5.5 1.5q-16 2 -32 -22q-20 -30 -31.5 -68.5t-15.5 -68t-7 -75.5q-1 -20 0 -32t11.5 -24t31.5 -12q77 -2 78 65q0 3 9 121z" />
    <glyph glyph-name="o" unicode="&#xf6;" horiz-adv-x="614" 
d="M147 1111q62 21 121.5 20t114 -27t96 -65t66.5 -94t25 -115q0 -80 -20.5 -161t-59 -184.5t-52.5 -151.5q-23 -79 -46 -135.5t-61 -104.5q-61 -78 -155.5 -78.5t-160.5 76.5q-103 118 -65 293q47 217 158 515q8 20 22.5 65t28 78t30.5 63q-6 1 -19.5 3t-22.5 3zM330 554
q8 28 -12 38q-64 32 -124 64q-38 -105 -54 -153t-35.5 -135.5t-19.5 -161.5v-12.5v-14.5t1.5 -12.5t4.5 -13t8 -8.5t13 -7q16 -4 29.5 4t19.5 15.5t17 25.5q85 138 152 371zM391 899q2 8 -1 20.5t-9.5 33.5t-9.5 31q0 1 -1.5 5t-2 5t-1.5 4.5t-2 5t-3 4t-4 3.5t-4.5 2.5
t-5.5 1.5q-16 2 -32 -22q-20 -30 -31.5 -68.5t-15.5 -68t-7 -75.5q-1 -20 0 -32t11.5 -24t31.5 -12q77 -2 78 65q0 3 9 121z" />
    <glyph glyph-name="o" unicode="&#xf5;" horiz-adv-x="614" 
d="M147 1111q62 21 121.5 20t114 -27t96 -65t66.5 -94t25 -115q0 -80 -20.5 -161t-59 -184.5t-52.5 -151.5q-23 -79 -46 -135.5t-61 -104.5q-61 -78 -155.5 -78.5t-160.5 76.5q-103 118 -65 293q47 217 158 515q8 20 22.5 65t28 78t30.5 63q-6 1 -19.5 3t-22.5 3zM330 554
q8 28 -12 38q-64 32 -124 64q-38 -105 -54 -153t-35.5 -135.5t-19.5 -161.5v-12.5v-14.5t1.5 -12.5t4.5 -13t8 -8.5t13 -7q16 -4 29.5 4t19.5 15.5t17 25.5q85 138 152 371zM391 899q2 8 -1 20.5t-9.5 33.5t-9.5 31q0 1 -1.5 5t-2 5t-1.5 4.5t-2 5t-3 4t-4 3.5t-4.5 2.5
t-5.5 1.5q-16 2 -32 -22q-20 -30 -31.5 -68.5t-15.5 -68t-7 -75.5q-1 -20 0 -32t11.5 -24t31.5 -12q77 -2 78 65q0 3 9 121z" />
    <glyph glyph-name="o" unicode="&#xf4;" horiz-adv-x="614" 
d="M147 1111q62 21 121.5 20t114 -27t96 -65t66.5 -94t25 -115q0 -80 -20.5 -161t-59 -184.5t-52.5 -151.5q-23 -79 -46 -135.5t-61 -104.5q-61 -78 -155.5 -78.5t-160.5 76.5q-103 118 -65 293q47 217 158 515q8 20 22.5 65t28 78t30.5 63q-6 1 -19.5 3t-22.5 3zM330 554
q8 28 -12 38q-64 32 -124 64q-38 -105 -54 -153t-35.5 -135.5t-19.5 -161.5v-12.5v-14.5t1.5 -12.5t4.5 -13t8 -8.5t13 -7q16 -4 29.5 4t19.5 15.5t17 25.5q85 138 152 371zM391 899q2 8 -1 20.5t-9.5 33.5t-9.5 31q0 1 -1.5 5t-2 5t-1.5 4.5t-2 5t-3 4t-4 3.5t-4.5 2.5
t-5.5 1.5q-16 2 -32 -22q-20 -30 -31.5 -68.5t-15.5 -68t-7 -75.5q-1 -20 0 -32t11.5 -24t31.5 -12q77 -2 78 65q0 3 9 121z" />
    <glyph glyph-name="o" unicode="&#xf3;" horiz-adv-x="614" 
d="M147 1111q62 21 121.5 20t114 -27t96 -65t66.5 -94t25 -115q0 -80 -20.5 -161t-59 -184.5t-52.5 -151.5q-23 -79 -46 -135.5t-61 -104.5q-61 -78 -155.5 -78.5t-160.5 76.5q-103 118 -65 293q47 217 158 515q8 20 22.5 65t28 78t30.5 63q-6 1 -19.5 3t-22.5 3zM330 554
q8 28 -12 38q-64 32 -124 64q-38 -105 -54 -153t-35.5 -135.5t-19.5 -161.5v-12.5v-14.5t1.5 -12.5t4.5 -13t8 -8.5t13 -7q16 -4 29.5 4t19.5 15.5t17 25.5q85 138 152 371zM391 899q2 8 -1 20.5t-9.5 33.5t-9.5 31q0 1 -1.5 5t-2 5t-1.5 4.5t-2 5t-3 4t-4 3.5t-4.5 2.5
t-5.5 1.5q-16 2 -32 -22q-20 -30 -31.5 -68.5t-15.5 -68t-7 -75.5q-1 -20 0 -32t11.5 -24t31.5 -12q77 -2 78 65q0 3 9 121z" />
    <glyph glyph-name="o" unicode="&#xf2;" horiz-adv-x="614" 
d="M147 1111q62 21 121.5 20t114 -27t96 -65t66.5 -94t25 -115q0 -80 -20.5 -161t-59 -184.5t-52.5 -151.5q-23 -79 -46 -135.5t-61 -104.5q-61 -78 -155.5 -78.5t-160.5 76.5q-103 118 -65 293q47 217 158 515q8 20 22.5 65t28 78t30.5 63q-6 1 -19.5 3t-22.5 3zM330 554
q8 28 -12 38q-64 32 -124 64q-38 -105 -54 -153t-35.5 -135.5t-19.5 -161.5v-12.5v-14.5t1.5 -12.5t4.5 -13t8 -8.5t13 -7q16 -4 29.5 4t19.5 15.5t17 25.5q85 138 152 371zM391 899q2 8 -1 20.5t-9.5 33.5t-9.5 31q0 1 -1.5 5t-2 5t-1.5 4.5t-2 5t-3 4t-4 3.5t-4.5 2.5
t-5.5 1.5q-16 2 -32 -22q-20 -30 -31.5 -68.5t-15.5 -68t-7 -75.5q-1 -20 0 -32t11.5 -24t31.5 -12q77 -2 78 65q0 3 9 121z" />
    <glyph glyph-name="p" unicode="p" horiz-adv-x="841" 
d="M513 1075q145 37 225 -49t51 -246q-22 -118 -82 -221t-157 -218q-12 -14 -53 -64t-59.5 -71.5t-53.5 -59t-67.5 -64.5t-67.5 -50q-46 -30 -114 1q-4 2 -57 38q-53 -241 -54 -249q-9 -51 -22 -145t-16 -117q0 -2 -1 -10t-1.5 -11t-2 -10t-2.5 -10.5t-3 -9.5t-4.5 -9t-6 -7
t-8 -7t-10.5 -5q-7 -3 -13.5 -4t-13.5 0.5t-12 2.5t-13 5l-11 5.5t-12.5 7.5t-11.5 7q-32 19 -39.5 37.5t2.5 63.5q19 75 47 227t46 227q5 22 16 61t19 71.5t13 61.5q2 9 9 51t9 54.5t9 49.5t11 54t11 49t13.5 53.5t15 48t17.5 50.5q14 37 41 140.5t53 156.5q2 3 14 32.5
t21.5 40t23.5 7.5q9 -2 29.5 -4.5t33.5 -5.5t29 -10.5t26 -23t14 -39.5q3 3 17.5 16.5t18.5 17t17 15t19 16t17.5 13.5t19 13t18.5 10t21 9.5t21 6.5zM545 629q115 164 116 305q1 38 -15 45t-46 -11q-147 -77 -245 -263q-33 -61 -84.5 -177.5t-71.5 -158.5
q-55 -114 -74 -212q9 7 19.5 14.5t17 12.5t11.5 10q187 172 372 435z" />
    <glyph glyph-name="q" unicode="q" horiz-adv-x="729" 
d="M509 475q-130 -280 -262 -697q-2 -7 -10 -62q45 76 157.5 207t152.5 209q11 20 29 20q23 0 37 -30q55 -121 -38 -225q-34 -38 -71 -85t-63 -82t-67 -91.5t-62 -85.5q-67 -90 -141 -55q-113 53 -97 163q8 57 25 124t30 109t42 128.5t39 119.5q-72 -74 -81 -82
q-93 -79 -183 -21q-107 70 -84 180q28 131 85.5 253.5t150.5 282.5q55 96 220 312q4 5 37 31q-4 1 -15 5.5t-18 7.5q70 46 155 21.5t121 -100.5q6 -14 20 -16q47 -6 60.5 -31.5t1.5 -70.5q-40 -157 -171 -439zM75 244q123 173 243 415q13 26 35.5 58t42 57t38.5 57.5
t29 62.5t9 69t-17 81q-26 -42 -99.5 -160.5t-108.5 -178.5t-88.5 -159t-90 -188t-62.5 -181q41 28 69 67z" />
    <glyph glyph-name="r" unicode="r" horiz-adv-x="493" 
d="M491 833q29 -33 13 -56q-20 -28 -52 -1q-28 24 -51 30t-42 -5.5t-32.5 -27.5t-29.5 -43q-103 -176 -161.5 -327t-65.5 -315q10 -54 -27 -69q-5 -2 -9.5 -3t-9.5 -0.5t-8 0.5t-8.5 2.5t-8 3.5t-8.5 4.5t-7.5 4.5t-8 5.5t-7.5 5.5q-25 17 -51.5 62t-36.5 56q-5 6 0 18
q39 82 79 241.5t58 211.5q19 55 37 112.5t42.5 142t33.5 113.5q7 24 7 44q0 6 -4.5 16.5t-7 17.5t3 14.5t22.5 10.5q76 14 105 -45q9 -20 7 -29q-14 -57 10 -79t84 -31q69 -9 134 -85z" />
    <glyph glyph-name="s" unicode="s" horiz-adv-x="493" 
d="M526 1211q4 -11 4 -23t-1 -21t-7 -23t-9 -20t-12 -21.5t-10 -18.5q-76 -140 -116 -257.5t-37 -242.5q5 -81 1.5 -182t-22.5 -181q-40 -172 -224 -278q-50 -27 -135 0t-116 77q-14 22 17 27q89 17 150 47.5t102 94.5q91 143 89 379v168q-69 -37 -124.5 -24.5t-72.5 68.5
q-8 19 -2.5 29t29.5 3q28 -8 53 25q22 29 88.5 115.5t109 147t77.5 123.5q3 6 5.5 23.5t9.5 26.5t26 6q27 -4 39.5 -6.5t33.5 -9.5t34 -20t20 -32z" />
    <glyph glyph-name="s" unicode="&#xdf;" horiz-adv-x="493" 
d="M526 1211q4 -11 4 -23t-1 -21t-7 -23t-9 -20t-12 -21.5t-10 -18.5q-76 -140 -116 -257.5t-37 -242.5q5 -81 1.5 -182t-22.5 -181q-40 -172 -224 -278q-50 -27 -135 0t-116 77q-14 22 17 27q89 17 150 47.5t102 94.5q91 143 89 379v168q-69 -37 -124.5 -24.5t-72.5 68.5
q-8 19 -2.5 29t29.5 3q28 -8 53 25q22 29 88.5 115.5t109 147t77.5 123.5q3 6 5.5 23.5t9.5 26.5t26 6q27 -4 39.5 -6.5t33.5 -9.5t34 -20t20 -32z" />
    <glyph glyph-name="t" unicode="t" horiz-adv-x="729" 
d="M721 1045q16 4 71.5 -47.5t56.5 -74.5q1 -12 -2.5 -21.5t-7.5 -14.5t-13.5 -8.5t-14.5 -5t-17.5 -3t-16.5 -2.5q-127 -23 -180 -26q-53 -2 -80 -30t-46 -83q-2 -6 -22 -61t-23.5 -65t-20.5 -58.5t-22 -66t-19 -59.5t-20.5 -66t-16 -60t-16.5 -67.5t-13 -63.5
q-11 -54 -12 -92q0 -6 0.5 -18t0 -19t-4.5 -15.5t-12 -13.5q-20 -9 -39.5 -4.5t-34.5 18.5q-17 16 -83 99q10 1 11.5 9.5t-1 23t-1.5 21.5q6 44 15 87.5t23.5 94t24.5 82t30 92.5t28 84q7 23 22.5 65.5t21.5 61.5q1 3 1 29l-15 1q-15 0 -15 -1q-16 -2 -103 -25t-136 -14
q-58 11 -86 63.5t-3 104.5q24 50 57 17q19 -19 37.5 -21.5t51 8t37.5 11.5q41 8 117 27t111 26q21 4 32.5 16.5t20.5 34.5q7 19 65.5 169t87.5 229q29 76 1 126q-15 29 4 33q4 1 19 5t22 5t19 1t21 -5t16 -14q86 -111 54 -231q-11 -41 -75 -221q-12 -35 -40 -109q19 8 46 8
t47.5 5t33.5 26q1 3 6 3z" />
    <glyph glyph-name="u" unicode="u" horiz-adv-x="917" 
d="M399 206q-5 8 -10 16.5t-11.5 20.5t-10.5 19q-15 -18 -65 -91t-85 -106q-95 -91 -179 -53q-132 59 -138 175q-4 74 8 161.5t26.5 143.5t42.5 155q16 56 142 447q17 50 -7 84q106 42 168 -7q17 -13 21 -32.5t0 -34.5t-13 -38.5t-11 -32.5q-21 -90 -71.5 -256t-60.5 -202
q-5 -17 -23 -78t-25.5 -88.5t-17 -75.5t-12.5 -88q-1 -8 -1.5 -24t-0.5 -25q14 3 25 12.5t14.5 15t12.5 20.5q65 109 130.5 236t141 282.5t120.5 241.5q4 7 8 27.5t13 31t31 11.5q9 0 15 37q1 5 -4.5 15t-5.5 18t13 13q66 26 119 -14q29 -21 29 -58q-1 -65 -20.5 -137.5
t-44.5 -127.5t-53 -127.5t-41 -129.5q-5 -21 -14 -56.5t-14.5 -57t-12 -57.5t-6 -58t2.5 -59q5 -35 15 -42q3 -2 6 -3t5.5 -1t6 1t5.5 2t5.5 4t5 4t5 4.5l4.5 4.5q59 54 113.5 130t86 133.5t79.5 153.5q12 26 29 56l3.5 7l3.5 7t4 7t4.5 6.5t4.5 5t5.5 5t6 3.5t7 2.5t8 0
t9.5 -1.5q46 -13 52 -66q20 -187 -62 -329t-245 -259q-72 -50 -152.5 -22.5t-139.5 118.5z" />
    <glyph glyph-name="u" unicode="&#xfc;" horiz-adv-x="917" 
d="M399 206q-5 8 -10 16.5t-11.5 20.5t-10.5 19q-15 -18 -65 -91t-85 -106q-95 -91 -179 -53q-132 59 -138 175q-4 74 8 161.5t26.5 143.5t42.5 155q16 56 142 447q17 50 -7 84q106 42 168 -7q17 -13 21 -32.5t0 -34.5t-13 -38.5t-11 -32.5q-21 -90 -71.5 -256t-60.5 -202
q-5 -17 -23 -78t-25.5 -88.5t-17 -75.5t-12.5 -88q-1 -8 -1.5 -24t-0.5 -25q14 3 25 12.5t14.5 15t12.5 20.5q65 109 130.5 236t141 282.5t120.5 241.5q4 7 8 27.5t13 31t31 11.5q9 0 15 37q1 5 -4.5 15t-5.5 18t13 13q66 26 119 -14q29 -21 29 -58q-1 -65 -20.5 -137.5
t-44.5 -127.5t-53 -127.5t-41 -129.5q-5 -21 -14 -56.5t-14.5 -57t-12 -57.5t-6 -58t2.5 -59q5 -35 15 -42q3 -2 6 -3t5.5 -1t6 1t5.5 2t5.5 4t5 4t5 4.5l4.5 4.5q59 54 113.5 130t86 133.5t79.5 153.5q12 26 29 56l3.5 7l3.5 7t4 7t4.5 6.5t4.5 5t5.5 5t6 3.5t7 2.5t8 0
t9.5 -1.5q46 -13 52 -66q20 -187 -62 -329t-245 -259q-72 -50 -152.5 -22.5t-139.5 118.5z" />
    <glyph glyph-name="u" unicode="&#xfb;" horiz-adv-x="917" 
d="M399 206q-5 8 -10 16.5t-11.5 20.5t-10.5 19q-15 -18 -65 -91t-85 -106q-95 -91 -179 -53q-132 59 -138 175q-4 74 8 161.5t26.5 143.5t42.5 155q16 56 142 447q17 50 -7 84q106 42 168 -7q17 -13 21 -32.5t0 -34.5t-13 -38.5t-11 -32.5q-21 -90 -71.5 -256t-60.5 -202
q-5 -17 -23 -78t-25.5 -88.5t-17 -75.5t-12.5 -88q-1 -8 -1.5 -24t-0.5 -25q14 3 25 12.5t14.5 15t12.5 20.5q65 109 130.5 236t141 282.5t120.5 241.5q4 7 8 27.5t13 31t31 11.5q9 0 15 37q1 5 -4.5 15t-5.5 18t13 13q66 26 119 -14q29 -21 29 -58q-1 -65 -20.5 -137.5
t-44.5 -127.5t-53 -127.5t-41 -129.5q-5 -21 -14 -56.5t-14.5 -57t-12 -57.5t-6 -58t2.5 -59q5 -35 15 -42q3 -2 6 -3t5.5 -1t6 1t5.5 2t5.5 4t5 4t5 4.5l4.5 4.5q59 54 113.5 130t86 133.5t79.5 153.5q12 26 29 56l3.5 7l3.5 7t4 7t4.5 6.5t4.5 5t5.5 5t6 3.5t7 2.5t8 0
t9.5 -1.5q46 -13 52 -66q20 -187 -62 -329t-245 -259q-72 -50 -152.5 -22.5t-139.5 118.5z" />
    <glyph glyph-name="u" unicode="&#xfa;" horiz-adv-x="917" 
d="M399 206q-5 8 -10 16.5t-11.5 20.5t-10.5 19q-15 -18 -65 -91t-85 -106q-95 -91 -179 -53q-132 59 -138 175q-4 74 8 161.5t26.5 143.5t42.5 155q16 56 142 447q17 50 -7 84q106 42 168 -7q17 -13 21 -32.5t0 -34.5t-13 -38.5t-11 -32.5q-21 -90 -71.5 -256t-60.5 -202
q-5 -17 -23 -78t-25.5 -88.5t-17 -75.5t-12.5 -88q-1 -8 -1.5 -24t-0.5 -25q14 3 25 12.5t14.5 15t12.5 20.5q65 109 130.5 236t141 282.5t120.5 241.5q4 7 8 27.5t13 31t31 11.5q9 0 15 37q1 5 -4.5 15t-5.5 18t13 13q66 26 119 -14q29 -21 29 -58q-1 -65 -20.5 -137.5
t-44.5 -127.5t-53 -127.5t-41 -129.5q-5 -21 -14 -56.5t-14.5 -57t-12 -57.5t-6 -58t2.5 -59q5 -35 15 -42q3 -2 6 -3t5.5 -1t6 1t5.5 2t5.5 4t5 4t5 4.5l4.5 4.5q59 54 113.5 130t86 133.5t79.5 153.5q12 26 29 56l3.5 7l3.5 7t4 7t4.5 6.5t4.5 5t5.5 5t6 3.5t7 2.5t8 0
t9.5 -1.5q46 -13 52 -66q20 -187 -62 -329t-245 -259q-72 -50 -152.5 -22.5t-139.5 118.5z" />
    <glyph glyph-name="u" unicode="&#xf9;" horiz-adv-x="917" 
d="M399 206q-5 8 -10 16.5t-11.5 20.5t-10.5 19q-15 -18 -65 -91t-85 -106q-95 -91 -179 -53q-132 59 -138 175q-4 74 8 161.5t26.5 143.5t42.5 155q16 56 142 447q17 50 -7 84q106 42 168 -7q17 -13 21 -32.5t0 -34.5t-13 -38.5t-11 -32.5q-21 -90 -71.5 -256t-60.5 -202
q-5 -17 -23 -78t-25.5 -88.5t-17 -75.5t-12.5 -88q-1 -8 -1.5 -24t-0.5 -25q14 3 25 12.5t14.5 15t12.5 20.5q65 109 130.5 236t141 282.5t120.5 241.5q4 7 8 27.5t13 31t31 11.5q9 0 15 37q1 5 -4.5 15t-5.5 18t13 13q66 26 119 -14q29 -21 29 -58q-1 -65 -20.5 -137.5
t-44.5 -127.5t-53 -127.5t-41 -129.5q-5 -21 -14 -56.5t-14.5 -57t-12 -57.5t-6 -58t2.5 -59q5 -35 15 -42q3 -2 6 -3t5.5 -1t6 1t5.5 2t5.5 4t5 4t5 4.5l4.5 4.5q59 54 113.5 130t86 133.5t79.5 153.5q12 26 29 56l3.5 7l3.5 7t4 7t4.5 6.5t4.5 5t5.5 5t6 3.5t7 2.5t8 0
t9.5 -1.5q46 -13 52 -66q20 -187 -62 -329t-245 -259q-72 -50 -152.5 -22.5t-139.5 118.5z" />
    <glyph glyph-name="v" unicode="v" horiz-adv-x="686" 
d="M655 1207q21 -14 25.5 -32t-0.5 -31.5t-18 -34.5q-266 -430 -377 -657q-83 -172 -187 -391q-15 -31 -41 -42t-56 -2q-6 2 -27 7.5t-30.5 9.5t-23 12.5t-18.5 22.5t-3 34q22 270 43 400q2 10 9.5 57t9.5 60.5t9 56.5t10.5 60t11 56t12.5 60t13 55.5t15.5 59.5t16.5 54.5
t19 57.5q2 7 7 29.5t9.5 34.5t17.5 20.5t33 2.5q44 -13 61 -55t8 -91q-10 -52 -49 -224.5t-52 -267.5q-1 -9 -6 -68q13 25 63.5 124.5t77.5 148.5q18 32 246 430q18 30 4 50q-7 12 -2 19t17 6q5 0 25.5 -1t28 -1.5t24 -3t26.5 -5.5t23.5 -8.5t24.5 -12.5z" />
    <glyph glyph-name="w" unicode="w" horiz-adv-x="1009" 
d="M1033 1170q62 -16 82.5 -43.5t9.5 -81.5q-14 -65 -72 -173t-67 -129q-30 -68 -83.5 -194t-98 -228.5t-85.5 -192.5q-39 -85 -86 -146t-116 -98q-23 -13 -46.5 -14.5t-45 7t-39 19.5t-38.5 29q-109 92 -106 273v31q0 1 -0.5 2.5t-1.5 2.5t-2.5 4t-3.5 6
q-63 -113 -129 -171q-29 -26 -62 -20q-87 16 -131 85t-31 184q12 107 55 299.5t55 266.5q1 4 2 12q7 43 12 66.5t18 58.5t32 60q14 18 33 22t32.5 0.5t37.5 -13.5q10 -4 16 -10t8.5 -12.5t3 -14.5t0 -16.5t0.5 -17.5q3 -68 -14 -141.5t-44.5 -157t-37.5 -136.5
q-45 -232 -65 -311q-3 -13 13 -32q11 19 35.5 58.5t42.5 70t31 60.5q30 66 79 183t92.5 214t87.5 179q14 25 17.5 39t-2.5 43q-4 10 2 17.5t17 9.5q82 9 133 -33q25 -21 28 -54.5t-6 -64.5q-17 -98 -81 -278t-82 -269q-10 -51 -14.5 -74t-11.5 -69t-9 -76t-2 -70t5 -76
q0 -3 0.5 -9.5t1.5 -10.5t2.5 -9t5 -8t8.5 -4q7 1 10 0t9 4t7.5 7t6.5 8.5t6 8.5q59 76 103 163.5t92 207.5q101 251 275 653q6 12 9 26t5.5 21.5t7 19t9 17.5t11.5 12.5t16 9t21 2.5t27 -4z" />
    <glyph glyph-name="x" unicode="x" horiz-adv-x="782" 
d="M870 601q43 -18 30 -65q-97 -330 -353 -434q-140 -56 -290 103q-3 3 -8 9.5t-8 9.5q-1 1 -3 1q-4 1 -7 2q-4 -6 -30.5 -51t-41.5 -67q-61 -88 -138 -44q-61 36 -26 128q17 43 35 67q92 125 60 309q-8 46 -9.5 91t5.5 104t11 86.5t18.5 104t17.5 90.5q8 43 49 44
q32 1 52 -44q27 -58 29.5 -135.5t-6.5 -138.5q-2 -20 -16 -129q98 140 131 187q92 132 121 179q2 3 7.5 11.5t7.5 12.5t5.5 11.5t4 13.5t-0.5 14t-5 16q-6 12 2 18t21 6q92 -3 136 -57q15 -18 14.5 -42t-7.5 -40t-22 -45q-56 -106 -178.5 -287.5t-164.5 -251.5
q-11 -19 -14 -34.5t3 -30t12 -23t20 -23.5t19 -21q42 -50 112 -8q17 10 33.5 21.5t35 27.5t29 25t31.5 31t26.5 27.5t30 33t26.5 29.5q46 50 114 137q32 41 79 21z" />
    <glyph glyph-name="y" unicode="y" horiz-adv-x="802" 
d="M620 1078q73 -14 111.5 -82.5t21.5 -157.5q-19 -95 -51.5 -213.5t-52 -179.5t-68.5 -209q-6 -17 -27 -83.5t-29.5 -91t-28 -81t-33.5 -89.5t-34 -78t-41 -83q-71 -132 -134.5 -224.5t-148.5 -166.5q-104 -90 -257 -103h-48q-227 54 -342 274q-17 33 0 62
q13 -35 34.5 -61.5t52.5 -44.5t55 -28.5t63 -23.5q8 -3 12 -4q95 -33 180 -2t172 106q61 52 111.5 116t90 139t67.5 140t61 153q27 74 139 405q-123 -161 -200 -259q-33 -42 -68 -68q-98 -74 -173 -44t-100 152q-21 106 10 249q54 251 181 534q10 22 7 50q-1 5 -5.5 15
t-5.5 15t5 14q3 3 6.5 5t8 2.5t7.5 1t8 -1t7.5 -2t8.5 -2.5t7 -2q56 -15 78 -56.5t3 -96.5q-22 -64 -67 -191.5t-67 -191.5q-47 -138 -63 -295v-45q40 13 158.5 170.5t227 335t122.5 242.5q-5 2 -15 4.5t-16 4.5q23 55 26 62q5 10 14.5 11t18.5 -2z" />
    <glyph glyph-name="y" unicode="&#xff;" horiz-adv-x="802" 
d="M620 1078q73 -14 111.5 -82.5t21.5 -157.5q-19 -95 -51.5 -213.5t-52 -179.5t-68.5 -209q-6 -17 -27 -83.5t-29.5 -91t-28 -81t-33.5 -89.5t-34 -78t-41 -83q-71 -132 -134.5 -224.5t-148.5 -166.5q-104 -90 -257 -103h-48q-227 54 -342 274q-17 33 0 62
q13 -35 34.5 -61.5t52.5 -44.5t55 -28.5t63 -23.5q8 -3 12 -4q95 -33 180 -2t172 106q61 52 111.5 116t90 139t67.5 140t61 153q27 74 139 405q-123 -161 -200 -259q-33 -42 -68 -68q-98 -74 -173 -44t-100 152q-21 106 10 249q54 251 181 534q10 22 7 50q-1 5 -5.5 15
t-5.5 15t5 14q3 3 6.5 5t8 2.5t7.5 1t8 -1t7.5 -2t8.5 -2.5t7 -2q56 -15 78 -56.5t3 -96.5q-22 -64 -67 -191.5t-67 -191.5q-47 -138 -63 -295v-45q40 13 158.5 170.5t227 335t122.5 242.5q-5 2 -15 4.5t-16 4.5q23 55 26 62q5 10 14.5 11t18.5 -2z" />
    <glyph glyph-name="y" unicode="&#xfd;" horiz-adv-x="802" 
d="M620 1078q73 -14 111.5 -82.5t21.5 -157.5q-19 -95 -51.5 -213.5t-52 -179.5t-68.5 -209q-6 -17 -27 -83.5t-29.5 -91t-28 -81t-33.5 -89.5t-34 -78t-41 -83q-71 -132 -134.5 -224.5t-148.5 -166.5q-104 -90 -257 -103h-48q-227 54 -342 274q-17 33 0 62
q13 -35 34.5 -61.5t52.5 -44.5t55 -28.5t63 -23.5q8 -3 12 -4q95 -33 180 -2t172 106q61 52 111.5 116t90 139t67.5 140t61 153q27 74 139 405q-123 -161 -200 -259q-33 -42 -68 -68q-98 -74 -173 -44t-100 152q-21 106 10 249q54 251 181 534q10 22 7 50q-1 5 -5.5 15
t-5.5 15t5 14q3 3 6.5 5t8 2.5t7.5 1t8 -1t7.5 -2t8.5 -2.5t7 -2q56 -15 78 -56.5t3 -96.5q-22 -64 -67 -191.5t-67 -191.5q-47 -138 -63 -295v-45q40 13 158.5 170.5t227 335t122.5 242.5q-5 2 -15 4.5t-16 4.5q23 55 26 62q5 10 14.5 11t18.5 -2z" />
    <glyph glyph-name="z" unicode="z" horiz-adv-x="790" 
d="M745 248q12 -41 -26 -45q-247 -24 -545 -191q-75 -42 -120.5 -46.5t-80.5 26.5t-76 110q13 4 19 3t17 -6.5t17 -6.5q-6 52 13 99t46 76.5t65.5 70.5t57.5 70q50 77 109.5 158.5t138.5 184t116 153.5q3 5 11 17.5t14 21.5q-23 -5 -44.5 -11.5t-45.5 -17t-37 -16.5
t-41.5 -20.5t-36.5 -18.5q-48 -24 -87 -31t-75 3.5t-66.5 45.5t-55.5 95q35 -18 68.5 -19.5t63.5 9.5t55.5 25t57 31t56.5 24q22 7 68 22t73.5 23t67.5 16t75 10q32 2 56 -15.5t34.5 -44t10 -55.5t-12.5 -51q-31 -56 -73.5 -114t-97 -125t-83.5 -107q-89 -123 -257 -394
q187 69 196 72q90 30 195 55q43 10 96 -18.5t64 -67.5z" />
    <glyph glyph-name="braceleft" unicode="{" horiz-adv-x="962" 
d="M920 1351q2 -16 -9 -23.5t-28 -10.5q-136 -18 -214.5 -101t-117.5 -222q-5 -16 -15 -56.5t-16 -60t-18 -54t-24.5 -56.5t-31.5 -48t-43 -46q-4 -3 -4 -13t4 -14q33 -34 50.5 -74.5t23 -72t-1.5 -81t-13.5 -75t-21.5 -81.5q-30 -107 -46 -193q-17 -99 87 -136q11 -4 17 -6
t16 -6.5t15.5 -8.5t12 -10.5t9 -13t3 -15t-3.5 -18.5q-3 -7 -7 -12.5t-9.5 -8.5t-10 -5t-13 -1.5t-12.5 0.5t-13.5 3t-12.5 4t-13.5 5t-11.5 4q-143 52 -195 159t-13 257q5 19 29.5 92.5t32 122t-1.5 98.5q-5 26 -17.5 40t-39.5 19q-57 11 -104.5 45t-95.5 93q38 -2 39 -2
q104 -27 155.5 1t88.5 134q13 38 31.5 113.5t40 133.5t55.5 105q77 104 199 147t231 6q32 -11 38 -57z" />
    <glyph glyph-name="braceright" unicode="}" horiz-adv-x="837" 
d="M796 619q4 -22 -14.5 -36t-50.5 -27.5t-45 -23.5q-33 -26 -57.5 -64t-34.5 -66t-25.5 -82t-22.5 -74q-18 -51 -42.5 -154t-40.5 -151q-14 -43 -72.5 -73t-121.5 -31.5t-116 23.5q-8 5 -36 16.5t-46 25.5t-29 38q19 0 63.5 -4.5t74 -1.5t57.5 20q16 9 28.5 22t20 23.5
t15 29t10.5 28t9 32t8 30.5q13 45 30.5 141t40.5 166.5t67 124.5q28 35 33.5 60.5t-3.5 42t-34 47.5q-5 5 -7 8q-69 85 -95 188t-7 210q17 94 -20 147.5t-122 98.5l-8 4l-8 4t-7.5 4.5t-6.5 5.5t-5 6.5t-2.5 7t0.5 8.5q3 9 9.5 12.5t12.5 2t16 -4.5t14 -4
q171 -26 240.5 -118.5t47.5 -265.5q-13 -101 29 -248q11 -37 49 -43q37 -4 52 -11t45 -15.5t49 -15.5t36.5 -23t21.5 -40z" />
    <glyph glyph-name="nonbreakingspace" unicode="&#xa0;" horiz-adv-x="583" 
 />
  </font>
</defs>
</svg>
