<?xml version="1.0" standalone="no"?>
<!DOCTYPE svg PUBLIC "-//W3C//DTD SVG 1.1//EN" "http://www.w3.org/Graphics/SVG/1.1/DTD/svg11.dtd" >
<svg xmlns="http://www.w3.org/2000/svg">
<metadata>Generated by IcoMoon</metadata>
<defs>
<font id="icomoon" horiz-adv-x="1024">
<font-face units-per-em="1024" ascent="960" descent="-64" />
<missing-glyph horiz-adv-x="1024" />
<glyph unicode="&#x20;" horiz-adv-x="512" d="" />
<glyph unicode="&#xe900;" glyph-name="minus" d="M960 384h-896c-35.346 0-64 28.654-64 64v0c0 35.346 28.654 64 64 64v0h896c35.346 0 64-28.654 64-64v0c0-35.346-28.654-64-64-64v0z" />
<glyph unicode="&#xe901;" glyph-name="img-upload" d="M816.465-36.825v125.943h-125.943c-15.046 0-27.243 12.197-27.243 27.243s12.197 27.243 27.243 27.243v0h125.943v125.78c0 15.046 12.197 27.243 27.243 27.243s27.243-12.197 27.243-27.243v0-125.78h125.943c15.046 0 27.243-12.197 27.243-27.243s-12.197-27.243-27.243-27.243v0h-125.943v-125.943c0-15.046-12.197-27.243-27.243-27.243s-27.243 12.197-27.243 27.243v0zM180.347-13.015c-99.631 0.093-180.375 80.827-180.483 180.445v612.346c0.186 99.565 80.903 180.215 180.476 180.292h612.342c99.499-0.17 180.11-80.791 180.265-180.277v-331.723c0-15.046-12.197-27.243-27.243-27.243s-27.243 12.197-27.243 27.243v0 331.708c-0.139 69.41-56.37 125.641-125.767 125.78h-612.348c-69.498-0.031-125.843-56.299-125.998-125.765v-444.698l208.734 208.707c0.163 0.163 0.163 0.327 0.327 0.327 23.798 25.781 57.763 41.871 95.486 41.871s71.688-16.091 95.405-41.783l0.081-0.088 134.089-134.089 31.765 31.792c0.175 0.013 0.314 0.152 0.327 0.326v0.001c23.772 25.531 57.575 41.45 95.096 41.45 16.213 0 31.732-2.972 46.042-8.402l-0.892 0.297c10.234-4.075 17.336-13.897 17.336-25.378 0-3.614-0.704-7.065-1.982-10.221l0.065 0.183c-3.999-10.222-13.773-17.331-25.207-17.331-3.567 0-6.973 0.692-10.090 1.949l0.181-0.065c-7.438 2.646-16.018 4.175-24.955 4.175-22.865 0-43.393-10.011-57.438-25.888l-0.071-0.081-31.602-31.602 31.82-31.765c5.096-4.956 8.257-11.877 8.257-19.537 0-15.046-12.197-27.243-27.243-27.243-7.714 0-14.68 3.206-19.636 8.359l-0.008 0.009-49.745 49.718-1.335 1.199c-0.436 0.463-0.845 0.926-1.226 1.389l-151.633 151.497c-13.989 16.176-34.54 26.35-57.469 26.35s-43.48-10.174-57.387-26.254l-0.081-0.096-246.983-246.955v-90.637c0.093-69.538 56.455-125.881 125.992-125.943h331.714c15.046 0 27.243-12.197 27.243-27.243s-12.197-27.243-27.243-27.243v0zM639.578 650.401c-15.046 0-27.243 12.197-27.243 27.243s12.197 27.243 27.243 27.243v0h0.545c15.046 0 27.243-12.197 27.243-27.243s-12.197-27.243-27.243-27.243v0z" />
<glyph unicode="&#xe902;" glyph-name="chat" d="M28.301-60.486c-16.746 7.065-28.289 23.342-28.301 42.317v757.527c0.152 121.796 98.846 220.491 220.628 220.643h582.729c121.805-0.13 220.512-98.838 220.643-220.63v-349.633c-0.13-121.805-98.838-220.512-220.63-220.643h-505.462l-219.688-219.65c-8.295-8.305-19.761-13.443-32.426-13.444v0c-6.315 0.001-12.327 1.293-17.788 3.626l0.296-0.112zM91.664 739.357v-646.88l154.874 154.836c8.287 8.297 19.736 13.433 32.386 13.444h524.434c71.214 0.065 128.93 57.767 129.017 128.97v349.629c-0.087 71.211-57.803 128.914-129.011 128.979h-582.721c-71.207-0.065-128.913-57.772-128.979-128.972v-0.006zM668.688 563.974v0.573c0 42.187 34.199 76.387 76.387 76.387s76.387-34.199 76.387-76.387v0-0.573c0-42.187-34.199-76.387-76.387-76.387s-76.387 34.199-76.387 76.387v0zM435.709 563.974v0.573c0 42.187 34.199 76.387 76.387 76.387s76.387-34.199 76.387-76.387v0-0.573c0-42.187-34.199-76.387-76.387-76.387s-76.387 34.199-76.387 76.387v0zM202.73 563.974v0.573c0 42.187 34.199 76.387 76.387 76.387s76.387-34.199 76.387-76.387v0-0.573c0-42.187-34.199-76.387-76.387-76.387s-76.387 34.199-76.387 76.387v0z" />
<glyph unicode="&#xe903;" glyph-name="instagram" d="M781.363 771.558c-33.344 0-60.375-27.031-60.375-60.375s27.031-60.375 60.375-60.375c33.344 0 60.375 27.031 60.375 60.375v0c0 33.344-27.031 60.375-60.375 60.375v0zM513.723 694.349c-139.654 0-252.866-113.212-252.866-252.866s113.212-252.866 252.866-252.866c139.654 0 252.866 113.212 252.866 252.866v0c-0.222 139.55-113.31 252.613-252.849 252.795h-0.017zM513.723 279.464c-89.461 0-161.983 72.522-161.983 161.983s72.522 161.983 161.983 161.983c89.461 0 161.983-72.522 161.983-161.983 0-0.062 0-0.125 0-0.187v0.010c-0.162-89.375-72.601-161.776-161.974-161.877h-0.010zM1024.001 651.553c0 170.35-138.096 308.447-308.447 308.447v0h-407.107c-170.35 0-308.447-138.096-308.447-308.447v0-407.107c0-170.35 138.096-308.447 308.447-308.447v0h407.107c170.35 0 308.447 138.096 308.447 308.447v0zM927.507 244.447c0-116.999-94.847-211.846-211.846-211.846v0h-407.213c-0.042 0-0.092 0-0.142 0-116.999 0-211.846 94.847-211.846 211.846v0 407.107c0 116.999 94.847 211.846 211.846 211.846v0h407.249c0.032 0 0.069 0 0.107 0 116.999 0 211.846-94.847 211.846-211.846v0z" />
<glyph unicode="&#xe904;" glyph-name="facebook" horiz-adv-x="512" d="M349.226-64v460.754h139.926l22.829 204.837h-162.756v99.837c0 52.74 1.365 105 75.053 105h74.647v146.196c-33.828 4.798-72.901 7.537-112.613 7.537-5.792 0-11.57-0.058-17.333-0.174l0.863 0.014c-135.464 0-220.327-84.826-220.327-240.648v-117.724h-149.515v-204.837h149.663v-460.754z" />
<glyph unicode="&#xe905;" glyph-name="play-store" horiz-adv-x="956" d="M512 499.196l143.357 153.588-556.375 300.395c-3.41 3.41-10.231 3.41-20.463 6.821zM716.744 277.36l201.374 109.213c22.446 11.411 37.557 34.334 37.557 60.787 0 0.225-0.001 0.45-0.003 0.675v-0.034c0.039 0.839 0.061 1.821 0.061 2.81 0 25.869-15.234 48.18-37.219 58.452l-0.396 0.166-201.374 109.253-160.409-170.521zM13.642 929.267c-8.496-9.13-13.71-21.414-13.71-34.915 0-0.928 0.025-1.851 0.073-2.767l-0.005 0.128v-887.464c-0.004-0.272-0.006-0.592-0.006-0.913 0-15.148 5.135-29.096 13.759-40.2l-0.111 0.148 450.573 484.717zM512 396.804l-433.481-460.804c7.654 0.768 14.605 3.205 20.672 6.941l-0.21-0.12 556.375 300.355z" />
<glyph unicode="&#xe906;" glyph-name="apple" horiz-adv-x="875" d="M579.535 793.867c31.629 38.516 50.803 88.309 50.803 142.58 0 8.296-0.448 16.488-1.321 24.553l0.088-0.999c-62.819-7.742-117.24-38.692-155.328-83.865l-0.296-0.361c-32.48-36.611-52.317-85.078-52.317-138.178 0-8.49 0.507-16.861 1.493-25.085l-0.097 0.993c64.024 1.529 120.51 32.512 156.615 79.868l0.361 0.494zM874.48 208.807c-20.048-47.739-42.201-88.56-67.833-126.855l1.688 2.68c-42.924-65.681-103.428-147.743-178.458-148.361-66.608-0.734-83.801 43.658-174.208 43.117s-109.3-43.967-176.024-43.311c-74.992 0.657-132.327 74.605-175.251 140.402-120.041 183.906-132.675 399.763-58.649 514.55 44.756 74.106 122.913 124.119 213.078 129.167l0.693 0.031c79.435 0 129.391-43.851 195.149-43.851 63.788 0 102.655 43.929 194.492 43.929 80.116-3.836 150.244-43.493 195.173-103.19l0.478-0.663c-69.399-39.384-115.458-112.777-115.458-196.928 0-95.664 59.525-177.425 143.556-210.266l1.535-0.528z" />
<glyph unicode="&#xe907;" glyph-name="message" horiz-adv-x="1307" d="M186.451-64c-0.316-0.002-0.689-0.003-1.063-0.003-101.993 0-184.749 82.362-185.388 184.204v655.749c0 3.461 0 7.063 0 10.241-0.29 2.077-0.456 4.477-0.456 6.915 0 7.318 1.492 14.287 4.188 20.62l-0.13-0.344c18.745 84.466 93.016 146.692 181.821 146.692 0.361 0 0.723-0.001 1.084-0.003h933.615c0.143 0 0.312 0.001 0.481 0.001 89.47 0 164.222-63.018 182.289-147.089l0.221-1.225c2.184-5.614 3.45-12.113 3.45-18.907 0-1.898-0.099-3.772-0.291-5.619l0.020 0.231c0-3.884 0.424-7.839 0.424-11.794v-655.688c-0.918-101.806-83.661-183.982-185.597-183.982-0.35 0-0.7 0.001-1.050 0.003h0.054zM105.938 120.262c0.673-43.403 36.015-78.33 79.515-78.33 0.351 0 0.701 0.002 1.051 0.007l-0.053-0.001h933.67c0.297-0.004 0.647-0.006 0.998-0.006 43.5 0 78.843 34.927 79.515 78.267l0.001 0.063v570.866l-516.838-364.922c-8.479-6.052-19.054-9.676-30.475-9.676s-21.996 3.624-30.636 9.786l0.161-0.109-516.909 364.922zM653.286 434.475l537.319 379.33c-14.333 24.25-40.344 40.258-70.093 40.258-0.187 0-0.374-0.001-0.561-0.002h-933.5c-0.158 0.001-0.345 0.002-0.532 0.002-29.75 0-55.76-16.009-69.887-39.882l-0.206-0.377z" />
<glyph unicode="&#xe908;" glyph-name="call" d="M820.418-64c-441.589 27.576-792.872 378.879-820.293 817.967l-0.125 2.506c0 0.775 0 1.661 0 2.491 0.032 80.466 65.27 145.685 145.74 145.685 0 0 0 0 0 0h208.509c0.045 0 0.099 0 0.152 0 17.395 0 32.294-10.684 38.494-25.849l0.1-0.277 103.839-260.483c1.879-4.565 2.97-9.865 2.97-15.419 0-15.051-8.010-28.232-20-35.511l-0.184-0.104-96.256-57.676c46.959-78.875 111.053-142.986 187.462-188.611l2.449-1.355 57.731 96.311c7.398 12.167 20.583 20.17 35.638 20.17 5.545 0 10.837-1.086 15.674-3.056l-0.278 0.1 260.483-104.227c15.41-6.296 26.071-21.17 26.071-38.534 0-0.074 0-0.149-0.001-0.223v0.011-208.398c-0.22-80.318-65.303-145.362-145.614-145.519h-0.015zM101.404 803.3c-11.085-11.072-18.031-26.284-18.321-43.119l-0.001-0.055c25.996-398.368 342.633-715.043 738.625-740.975l2.364-0.124c34.104 0.683 61.495 28.462 61.551 62.652v180.284l-201.534 80.592-60.001-99.632c-7.385-12.165-20.561-20.168-35.605-20.168-6.688 0-13.006 1.581-18.601 4.391l0.239-0.109c-121.674 61.135-218.077 157.467-277.684 275.545l-1.619 3.537c-2.719 5.368-4.311 11.702-4.311 18.409 0 15.025 7.993 28.183 19.958 35.455l0.184 0.104 99.965 59.946-80.592 201.59h-180.279c-0.045 0-0.099 0-0.153 0-17.258 0-32.881-7.002-44.183-18.321l-0.001-0.001zM940.973 586.378c-0.158 160.428-130.167 290.437-290.579 290.595h-0.015c-22.927 0-41.514 18.586-41.514 41.514s18.586 41.514 41.514 41.514v0c206.244-0.252 373.37-167.377 373.622-373.597v-0.024c0-22.927-18.586-41.514-41.514-41.514s-41.514 18.586-41.514 41.514v0zM737.169 603.98c-0.032 38.199-30.99 69.158-69.186 69.189h-0.003c-22.927 0-41.514 18.586-41.514 41.514s18.586 41.514 41.514 41.514v0c84.016-0.126 152.090-68.2 152.216-152.204v-0.012c0-22.927-18.586-41.514-41.514-41.514s-41.514 18.586-41.514 41.514v0z" />
<glyph unicode="&#xe909;" glyph-name="plus" d="M448.004 0.028v383.976h-383.976c-35.344 0-63.996 28.652-63.996 63.996v0c0 35.344 28.652 63.996 63.996 63.996v0h383.976v383.976c0 35.344 28.652 63.996 63.996 63.996v0c35.344 0 63.996-28.652 63.996-63.996v0-383.976h383.976c35.344 0 63.996-28.652 63.996-63.996v0c0-35.344-28.652-63.996-63.996-63.996v0h-383.976v-383.976c0-35.344-28.652-63.996-63.996-63.996v0c-35.344 0-63.996 28.652-63.996 63.996v0z" />
<glyph unicode="&#xe90a;" glyph-name="down" d="M512.458 160.001c-25.83 0.005-49.215 10.481-66.137 27.409l-387.752 387.752c-17.618 17.033-28.561 40.882-28.561 67.288 0 51.664 41.882 93.55 93.55 93.55 26.401 0 50.251-10.939 67.262-28.534l0.022-0.025 321.619-321.619 321.619 321.619c16.951 16.987 40.387 27.493 66.28 27.493 51.71 0 93.632-41.918 93.632-93.632 0-25.821-10.454-49.199-27.356-66.137l-387.752-387.752c-16.932-16.934-40.323-27.41-66.156-27.41-0.095 0-0.184 0-0.274 0.002h0.013z" />
<glyph unicode="&#xe90b;" glyph-name="sound-plus" d="M512 908.364c-99.658 0-180.726-81.068-180.726-180.726v-258.18c0-99.658 81.069-180.726 180.726-180.726s180.726 81.069 180.726 180.726v258.18c0 99.658-81.068 180.726-180.726 180.726zM228.002 581.342v-124.494c0-156.561 127.438-283.998 283.998-283.998s283.998 127.438 283.998 283.998v124.494h51.636v-124.494c0-176.377-136.767-321.423-309.813-334.651l-0.003-134.561h129.090v-51.636h-309.816v51.636h129.090l-0.002 134.56c-173.047 13.229-309.814 158.275-309.814 334.652v124.494h51.636zM512 960c128.109 0 232.362-104.253 232.362-232.363v-258.18c0-128.109-104.253-232.363-232.363-232.363s-232.362 104.253-232.362 232.363v258.18c0 128.109 104.253 232.363 232.363 232.363z" />
<glyph unicode="&#xe90c;" glyph-name="download" horiz-adv-x="967" d="M159.544-64c-88.168 0.428-159.476 72-159.476 160.227 0 0.025 0 0.049 0 0.074v-0.004 109.511c2.015 26.766 24.227 47.719 51.333 47.719s49.318-20.953 51.323-47.547l0.010-0.172v-109.511c-0.001-0.144-0.002-0.314-0.002-0.484 0-31.375 25.223-56.86 56.497-57.283h648.005c31.203 0.614 56.263 26.054 56.263 57.346 0 0.148-0.001 0.296-0.002 0.444v-0.023 109.511c2.015 26.766 24.227 47.719 51.333 47.719s49.318-20.953 51.323-47.547l0.010-0.172v-109.511c0-0.041 0-0.091 0-0.14 0-88.117-71.161-159.614-159.15-160.157h-0.052zM440.167 226.89l-265.634 266.044c-9.26 9.269-14.987 22.069-14.987 36.207 0 28.293 22.936 51.229 51.229 51.229 14.155 0 26.969-5.741 36.241-15.021l185.554-185.622v529.214c0 28.351 22.983 51.333 51.333 51.333s51.333-22.983 51.333-51.333v0-528.803l185.28 185.28c9.272 9.281 22.086 15.022 36.241 15.022 28.293 0 51.229-22.936 51.229-51.229 0-14.138-5.727-26.938-14.988-36.208l-264.675-265.086c-9.117-15.341-25.604-25.461-44.455-25.461-0.012 0-0.024 0-0.036 0h0.002c-0.185-0.002-0.404-0.004-0.623-0.004-18.32 0-34.377 9.687-43.329 24.219l-0.126 0.22z" />
<glyph unicode="&#xe90d;" glyph-name="arrow-up-right" d="M165.863-64c-91.553 0.126-165.737 74.31-165.863 165.851v552.888c0.084 91.57 74.293 165.779 165.855 165.863h331.733c30.534 0 55.288-24.753 55.288-55.288s-24.753-55.288-55.288-55.288h-331.726c-30.544-0.042-55.288-24.812-55.288-55.361 0 0 0 0 0 0v0-552.876c0.042-30.518 24.77-55.246 55.284-55.288h552.88c0 0 0 0 0 0 30.549 0 55.319 24.744 55.361 55.284v331.803c0 30.534 24.753 55.288 55.288 55.288s55.288-24.753 55.288-55.288v0-331.726c-0.126-91.553-74.31-165.737-165.851-165.863h-0.012zM427.557 363.852c-10.036 9.954-16.249 23.75-16.249 38.996s6.213 29.042 16.245 38.993l407.805 407.51h-143.305c-30.534 0-55.288 24.753-55.288 55.288s24.753 55.288 55.288 55.288v0h276.512c30.582-0.084 55.351-24.853 55.435-55.427v-276.299c-2.17-28.827-26.094-51.395-55.288-51.395s-53.117 22.567-55.276 51.209l-0.011 0.186v142.937l-407.506-407.285c-9.938-10.072-23.738-16.311-38.996-16.311s-29.059 6.239-38.99 16.305l-0.006 0.006z" />
<glyph unicode="&#xe90e;" glyph-name="search" d="M936.55-48.998l-276.070 275.968c-68.672-53.699-156.253-86.107-251.404-86.107-226.47 0-410.061 183.59-410.061 410.061s183.59 410.061 410.061 410.061c226.47 0 410.061-183.59 410.061-410.061 0-95.151-32.408-182.732-86.788-252.308l0.681 0.905 275.968-275.917c9.271-9.271 15.004-22.078 15.004-36.224 0-28.293-22.936-51.228-51.228-51.228-14.146 0-26.953 5.734-36.224 15.004v0zM102.4 550.4c0-169.662 137.538-307.2 307.2-307.2s307.2 137.538 307.2 307.2c0 169.662-137.538 307.2-307.2 307.2v0c-169.58-0.204-306.996-137.62-307.2-307.18v-0.020z" />
<glyph unicode="&#xe90f;" glyph-name="close" d="M848.965-33.897l-337.067 337.067-337.169-337.067c-18.268-17.174-42.934-27.726-70.064-27.726-56.548 0-102.39 45.841-102.39 102.39 0 27.13 10.552 51.796 27.776 70.118l-0.050-0.053 337.118 337.169-337.118 337.067c-18.563 18.538-30.047 44.161-30.047 72.466 0 56.56 45.851 102.411 102.411 102.411 28.254 0 53.836-11.442 72.365-29.945l337.168-337.168 337.067 337.169c18.541 18.535 44.152 29.998 72.441 29.998 56.59 0 102.465-45.875 102.465-102.465 0-28.301-11.474-53.923-30.024-72.466l-337.17-337.067 337.169-337.169c18.506-18.526 29.952-44.108 29.952-72.364 0-56.55-45.843-102.392-102.392-102.392-28.294 0-53.908 11.476-72.44 30.028l-0.001 0.001z" />
<glyph unicode="&#xe910;" glyph-name="right-long" horiz-adv-x="1452" d="M886.739-39.726c-14.993 14.995-24.266 35.709-24.266 58.589s9.273 43.594 24.266 58.589v0l284.642 287.647h-1088.835c-45.851 0-83.021 37.17-83.021 83.021s37.17 83.021 83.021 83.021v0h1088.835l-284.642 287.647c-14.994 14.899-24.274 35.533-24.274 58.334 0 0.090 0 0.179 0 0.268v-0.014c0.439 45.448 37.052 82.2 82.404 82.862l0.063 0.001c0.023 0 0.050 0 0.077 0 22.832 0 43.497-9.279 58.43-24.271l0.003-0.003 425.303-430.047c14.411-15.084 23.291-35.559 23.325-58.108v-0.007c0-0.032 0-0.071 0-0.109 0-22.597-9.054-43.079-23.732-58.018l0.012 0.012-424.828-429.098c-14.905-15.028-35.562-24.331-58.391-24.331s-43.486 9.303-58.386 24.326l-0.005 0.005z" />
<glyph unicode="&#xe911;" glyph-name="add-file" horiz-adv-x="819" d="M153.521-64.051c-84.844 0-153.623 68.779-153.623 153.623v0 716.908c0 84.844 68.779 153.623 153.623 153.623v0h358.454c0.39 0.022 0.846 0.034 1.306 0.034s0.916-0.012 1.369-0.037l-0.063 0.003h5.018l2.1-1.024h0.512l2.202-0.512 2.304-0.666c9.596-2.922 17.729-8.258 23.969-15.308l0.047-0.055 253.632-253.478c8.498-8.616 13.948-20.258 14.589-33.165l0.005-0.12c0-0.819 0-1.69 0-2.509v-563.694c0-84.844-68.779-153.623-153.623-153.623v0zM102.313 806.479v-716.908c0-28.281 22.926-51.208 51.208-51.208v0h512.077c28.281 0 51.208 22.926 51.208 51.208v0 512.077h-153.623c-56.562 0-102.415 45.853-102.415 102.415v0 153.623h-307.246c-28.281 0-51.208-22.926-51.208-51.208v0zM563.182 704.064h81.011l-81.011 81.011zM358.351 191.987v102.415h-102.415c-28.281 0-51.208 22.926-51.208 51.208s22.926 51.208 51.208 51.208v0h102.415v102.415c0 28.281 22.926 51.208 51.208 51.208s51.208-22.926 51.208-51.208v0-102.415h102.415c28.281 0 51.208-22.926 51.208-51.208s-22.926-51.208-51.208-51.208v0h-102.415v-102.415c0-28.281-22.926-51.208-51.208-51.208s-51.208 22.926-51.208 51.208v0z" />
<glyph unicode="&#xe912;" glyph-name="csv" horiz-adv-x="922" d="M719.411-28.979l-102.4 307.2c-1.666 4.836-2.628 10.408-2.628 16.205 0 28.315 22.954 51.268 51.268 51.268 22.518 0 41.645-14.517 48.533-34.703l0.107-0.361 53.709-161.536 53.862 161.485c6.995 20.547 26.122 35.064 48.64 35.064 28.315 0 51.268-22.954 51.268-51.268 0-5.797-0.962-11.369-2.735-16.566l0.107 0.361-102.4-307.2c-6.927-20.621-26.080-35.213-48.64-35.213s-41.713 14.591-48.535 34.852l-0.105 0.361zM396.8-64c-49.45 0.087-89.513 40.151-89.6 89.592v0.008c0 0.045 0 0.098 0 0.151 0 28.277 22.923 51.2 51.2 51.2 23.783 0 43.779-16.216 49.534-38.195l0.079-0.356h52.787v51.2h-51.2c-56.554 0-102.4 45.846-102.4 102.4v0 51.2c0 56.554 45.846 102.4 102.4 102.4v0h64c49.473-0.029 89.571-40.127 89.6-89.597v-0.003c-0.028-28.256-22.94-51.151-51.2-51.151-23.711 0-43.657 16.117-49.481 37.994l-0.081 0.358h-52.838v-51.2h51.2c56.554 0 102.4-45.846 102.4-102.4v0-51.2c0-56.554-45.846-102.4-102.4-102.4v0zM0 64v153.6c0 70.692 57.308 128 128 128s128-57.308 128-128v0c0-28.277-22.923-51.2-51.2-51.2s-51.2 22.923-51.2 51.2v0c0 14.138-11.462 25.6-25.6 25.6v0c-14.138 0-25.6-11.462-25.6-25.6v0-153.6c0-14.138 11.462-25.6 25.6-25.6s25.6 11.462 25.6 25.6v0c0 28.277 22.923 51.2 51.2 51.2s51.2-22.923 51.2-51.2v0c0-70.692-57.308-128-128-128s-128 57.308-128 128v0zM768 448v153.6h-153.6c-56.554 0-102.4 45.846-102.4 102.4v0 153.6h-307.2c-28.277 0-51.2-22.923-51.2-51.2v0-358.4c0-28.277-22.923-51.2-51.2-51.2s-51.2 22.923-51.2 51.2v0 358.4c0 84.831 68.769 153.6 153.6 153.6v0h360.96c10.097-0.506 19.32-3.862 26.99-9.273l-0.161 0.108 0.614-0.461 0.512-0.358c2.002-1.498 3.774-3.042 5.424-4.707l255.030-255.030c9.543-9.052 15.595-21.704 15.973-35.771l0.001-0.069v-206.438c0-28.277-22.923-51.2-51.2-51.2s-51.2 22.923-51.2 51.2v0zM614.4 704h81.152l-81.152 81.203z" />
<glyph unicode="&#xe913;" glyph-name="pen" horiz-adv-x="1025" d="M6.485-57.515c-3.939 4.027-6.37 9.544-6.37 15.629 0 1.945 0.248 3.833 0.715 5.632l-0.034-0.155 62.578 250.937c0.997 4.040 2.985 7.524 5.693 10.302l563.991 564.048 219.819-219.819-564.053-563.996c-2.767-2.713-6.253-4.703-10.146-5.658l-0.151-0.031-250.937-62.578c-1.6-0.434-3.437-0.683-5.332-0.683-0.025 0-0.051 0-0.076 0h0.004c-0.014 0-0.031 0-0.048 0-6.093 0-11.618 2.431-15.658 6.376l0.004-0.004zM695.865 851.684l76.914 76.914c20.378 19.453 48.044 31.424 78.507 31.424s58.129-11.971 78.551-31.466l-0.044 0.042 62.578-62.578c20.099-19.958 32.541-47.606 32.541-78.16 0-0.122 0-0.244-0.001-0.365v0.019c0-0.117 0.001-0.255 0.001-0.394 0-30.539-12.442-58.172-32.534-78.106l-0.007-0.007-76.459-77.198z" />
<glyph unicode="&#xe914;" glyph-name="trash" horiz-adv-x="832" d="M172.905-64c-51.419 0.002-93.399 40.411-95.916 91.205l-0.009 0.225-26.115 554.159c-0.013 0.188-0.020 0.407-0.020 0.628 0 5.373 4.356 9.729 9.729 9.729 0.067 0 0.134-0.001 0.201-0.002h710.497c0.037 0 0.081 0.001 0.124 0.001 5.467 0 9.9-4.432 9.9-9.9 0-0.16-0.004-0.32-0.011-0.478l0.001 0.022-26.456-554.159c-2.376-50.99-44.294-91.431-95.657-91.431-0.094 0-0.189 0-0.283 0h0.015zM543.918 512.064v-416.075c0.065-17.685 14.4-32 32.086-32.032h0.003c17.691 0 32.032 14.341 32.032 32.032v0 416.075c0 0 0 0 0 0 0 17.671-14.309 32-31.972 32.032h-0.003c0 0 0 0 0 0-17.714 0-32.081-14.327-32.146-32.026v-0.006zM383.986 512.064v-416.075c0-17.691 14.341-32.032 32.032-32.032v0c17.691 0 32.032 14.341 32.032 32.032v0 416.075c0 0 0 0 0 0 0 17.671-14.309 32-31.972 32.032h-0.003c-17.691 0-32.032-14.341-32.032-32.032v0zM223.996 512.064v-416.075c0-17.691 14.341-32.032 32.032-32.032v0c17.689 0.032 32.024 14.347 32.089 32.026v416.081c-0.065 17.685-14.4 32-32.086 32.032h-0.003c-17.691 0-32.032-14.341-32.032-32.032v0zM31.975 656.009c-17.666 0.032-31.975 14.361-31.975 32.032 0 0 0 0 0 0v0 63.836c0 0.034 0 0.074 0 0.114 0 44.18 35.815 79.995 79.995 79.995 0.040 0 0.080 0 0.12 0h175.914v32.032c0 0.034 0 0.074 0 0.114 0 52.915 42.896 95.812 95.812 95.812 0.040 0 0.080 0 0.12 0h128.236c0.034 0 0.074 0 0.114 0 52.915 0 95.812-42.896 95.812-95.812 0-0.040 0-0.080 0-0.12v0.006-32.032h176.034c0 0 0 0 0 0 44.18 0 79.995-35.815 79.995-79.995 0-0.040 0-0.080 0-0.12v0.006-63.836c0 0 0 0 0 0 0-17.671-14.309-32-31.972-32.032h-0.003zM319.922 864.075v-32.032h192.021v32.032c0 0.051 0 0.111 0 0.171 0 17.577-14.233 31.829-31.802 31.861h-128.245c-17.666-0.032-31.975-14.361-31.975-32.032 0 0 0 0 0 0v0z" />
<glyph unicode="&#xe915;" glyph-name="users" d="M921.554-12.751v102.395c-0.505 70.747-48.765 130.084-114.123 147.412l-1.072 0.242c-22.262 5.884-38.407 25.844-38.407 49.574 0 4.506 0.582 8.876 1.675 13.039l-0.080-0.357c5.888 22.256 25.845 38.396 49.571 38.396 4.563 0 8.986-0.597 13.196-1.717l-0.357 0.081c110.804-29.306 191.278-128.338 191.99-246.281v-102.783c0-28.276-22.922-51.197-51.197-51.197v0c-28.276 0-51.197 22.922-51.197 51.197v0zM614.369-12.751v102.395c0 84.827-68.766 153.592-153.592 153.592v0h-204.79c-84.827 0-153.592-68.766-153.592-153.592v0-102.395c0-28.276-22.922-51.197-51.197-51.197v0c-28.276 0-51.197 22.922-51.197 51.197v0 102.395c0.146 141.319 114.668 255.842 255.973 255.987h204.804c141.319-0.146 255.842-114.668 255.987-255.973v-102.409c0-28.276-22.922-51.197-51.197-51.197v0c-28.276 0-51.197 22.922-51.197 51.197v0zM102.395 704.013c0.175 141.307 114.679 255.812 255.97 255.987h0.017c141.307-0.175 255.812-114.679 255.987-255.97v-0.017c-0.146-141.319-114.668-255.842-255.973-255.987h-0.014c-141.319 0.146-255.842 114.668-255.987 255.973v0.014zM204.79 704.013c0-84.827 68.766-153.592 153.592-153.592v0c84.827 0 153.592 68.766 153.592 153.592v0c0 84.827-68.766 153.592-153.592 153.592v0c-84.827 0-153.592-68.766-153.592-153.592v0zM667.154 492.67c-1.017 3.813-1.602 8.191-1.602 12.706 0 23.77 16.198 43.756 38.158 49.522l0.357 0.080c66.928 17.553 115.502 77.501 115.502 148.794 0 0.085 0 0.17 0 0.255v-0.013c-0.154 71.162-48.678 130.947-114.432 148.234l-1.070 0.239c-22.317 5.846-38.515 25.832-38.515 49.602 0 4.514 0.584 8.892 1.681 13.062l-0.080-0.357c5.846 22.317 25.832 38.515 49.602 38.515 4.514 0 8.892-0.584 13.062-1.681l-0.357 0.080c111.451-29.23 192.36-128.993 192.502-247.677v-0.016c0-0.007 0-0.015 0-0.023 0-118.803-80.93-218.704-190.668-247.578l-1.783-0.399c-3.803-1.098-8.182-1.766-12.705-1.843l-0.044-0.001c-0.004 0-0.008 0-0.012 0-23.764 0-43.747 16.191-49.518 38.144l-0.080 0.357z" />
<glyph unicode="&#xe916;" glyph-name="user" horiz-adv-x="717" d="M614.4-12.8v102.4c0 84.831-68.769 153.6-153.6 153.6v0h-204.8c-84.831 0-153.6-68.769-153.6-153.6v0-102.4c0-28.277-22.923-51.2-51.2-51.2s-51.2 22.923-51.2 51.2v0 102.4c0.175 141.314 114.685 255.825 255.983 256h204.817c141.303-0.204 255.796-114.697 256-255.98v-102.42c0-28.277-22.923-51.2-51.2-51.2s-51.2 22.923-51.2 51.2v0zM102.4 704c0 141.385 114.615 256 256 256s256-114.615 256-256c0-141.385-114.615-256-256-256v0c-141.314 0.175-255.825 114.685-256 255.983v0.017zM204.8 704c0-84.831 68.769-153.6 153.6-153.6s153.6 68.769 153.6 153.6c0 84.831-68.769 153.6-153.6 153.6v0c-84.831 0-153.6-68.769-153.6-153.6v0z" />
<glyph unicode="&#xe917;" glyph-name="check" horiz-adv-x="1479" d="M414.151-23.609l-365.796 330.866c-29.572 26.436-48.099 64.698-48.099 107.286 0 41.232 17.366 78.409 45.182 104.614l0.072 0.068c28.134 26.905 66.355 43.466 108.445 43.466 0.355 0 0.709-0.001 1.064-0.004h-0.054c0.231 0.001 0.504 0.002 0.777 0.002 40.543 0 77.504-15.333 105.402-40.516l-0.138 0.123 259.072-234.837 698.596 632.036c27.993 24.951 65.107 40.197 105.783 40.197 42.276 0 80.706-16.47 109.223-43.343l-0.080 0.074c27.72-26.235 44.971-63.285 44.971-104.366 0-42.707-18.645-81.059-48.238-107.361l-0.146-0.128-804.409-728.178c-28.029-25.089-65.244-40.426-106.041-40.426s-78.012 15.337-106.193 40.561l0.152-0.134z" />
<glyph unicode="&#xe918;" glyph-name="calendar" horiz-adv-x="922" d="M153.592-64.102c-84.827 0-153.592 68.766-153.592 153.592v0 614.369c0 84.827 68.766 153.592 153.592 153.592v0h51.197v51.197c0 28.276 22.922 51.197 51.197 51.197s51.197-22.922 51.197-51.197v0-51.197h307.185v51.197c0 28.276 22.922 51.197 51.197 51.197s51.197-22.922 51.197-51.197v0-51.197h51.197c84.827 0 153.592-68.766 153.592-153.592v0-614.369c0-84.827-68.766-153.592-153.592-153.592v0zM102.395 89.49c0-28.276 22.922-51.197 51.197-51.197v0h614.369c28.276 0 51.197 22.922 51.197 51.197v0 358.382h-716.764zM819.159 550.267v153.592c0 28.276-22.922 51.197-51.197 51.197v0h-51.197v-51.197c0-28.276-22.922-51.197-51.197-51.197s-51.197 22.922-51.197 51.197v0 51.197h-307.185v-51.197c0-28.276-22.922-51.197-51.197-51.197s-51.197 22.922-51.197 51.197v0 51.197h-51.197c-28.276 0-51.197-22.922-51.197-51.197v0-153.592zM486.376 140.687v102.395c-28.276 0-51.197 22.922-51.197 51.197s22.922 51.197 51.197 51.197v0h51.197c28.276 0 51.197-22.922 51.197-51.197v0-153.592c0-28.276-22.922-51.197-51.197-51.197s-51.197 22.922-51.197 51.197v0z" />
<glyph unicode="&#xe919;" glyph-name="calendar-add" horiz-adv-x="975" d="M731.422-15.099v97.51h-97.51c-26.927 0-48.755 21.828-48.755 48.755s21.828 48.755 48.755 48.755v0h97.51v97.51c0 26.927 21.828 48.755 48.755 48.755s48.755-21.828 48.755-48.755v0-97.51h97.51c26.927 0 48.755-21.828 48.755-48.755s-21.828-48.755-48.755-48.755v0h-97.51v-97.51c0-26.927-21.828-48.755-48.755-48.755s-48.755 21.828-48.755 48.755v0zM146.362-15.099c-80.78 0-146.265 65.485-146.265 146.265v0 585.059c0 80.78 65.485 146.265 146.265 146.265v0h48.755v48.755c0 26.927 21.828 48.755 48.755 48.755s48.755-21.828 48.755-48.755v0-48.755h292.53v48.755c0 26.927 21.828 48.755 48.755 48.755s48.755-21.828 48.755-48.755v0-48.755h48.755c80.78 0 146.265-65.485 146.265-146.265v0-243.775c0-26.927-21.828-48.755-48.755-48.755s-48.755 21.828-48.755 48.755v0h-682.569v-341.285c0-26.927 21.828-48.755 48.755-48.755v0h317.2c26.927 0 48.755-21.828 48.755-48.755s-21.828-48.755-48.755-48.755v0zM780.177 569.96v146.265c0 26.927-21.828 48.755-48.755 48.755v0h-48.755v-48.755c0-26.927-21.828-48.755-48.755-48.755s-48.755 21.828-48.755 48.755v0 48.755h-292.53v-48.755c0-26.927-21.828-48.755-48.755-48.755s-48.755 21.828-48.755 48.755v0 48.755h-48.755c-26.927 0-48.755-21.828-48.755-48.755v0-146.265z" />
<glyph unicode="&#xe91a;" glyph-name="time" d="M150.243 85.885c-92.635 92.662-149.929 220.659-149.929 362.038 0 282.812 229.265 512.077 512.077 512.077s512.077-229.265 512.077-512.077c0-282.812-229.265-512.077-512.077-512.077-0.074 0-0.149 0-0.223 0h0.012c-0.441-0.001-0.964-0.002-1.487-0.002-140.899 0-268.399 57.364-360.42 150.012l-0.028 0.028zM102.518 447.923c0-226.25 183.412-409.661 409.661-409.661s409.661 183.412 409.661 409.661c0 226.25-183.412 409.661-409.661 409.661v0c-1.039 0.010-2.268 0.015-3.497 0.015-224.327 0-406.179-181.853-406.179-406.179 0-1.23 0.005-2.458 0.016-3.685l-0.001 0.188zM512.179 396.716c-0.091-0.001-0.199-0.001-0.307-0.001-28.281 0-51.208 22.926-51.208 51.208 0 0 0 0.001 0 0.001v0 256.038c0 28.366 22.995 51.361 51.361 51.361s51.361-22.995 51.361-51.361v0-204.831h128.019c28.281 0 51.208-22.926 51.208-51.208s-22.926-51.208-51.208-51.208v0z" />
<glyph unicode="&#xe91b;" glyph-name="flag" horiz-adv-x="843" d="M0-11.293v843.319c0 0.010 0 0.022 0 0.034 0 14.677 6.054 27.941 15.801 37.43l0.012 0.011c56.996 55.9 135.155 90.401 221.371 90.401s164.375-34.501 221.422-90.45l-0.051 0.050c37.998-37.266 90.103-60.267 147.581-60.267s109.583 23.001 147.615 60.3l-0.034-0.033c9.499 9.317 22.526 15.067 36.895 15.067 29.051 0 52.613-23.504 52.707-52.533v-474.376c0-0.010 0-0.022 0-0.034 0-14.677-6.054-27.941-15.801-37.43l-0.012-0.011c-56.996-55.9-135.155-90.401-221.371-90.401s-164.375 34.501-221.422 90.45l0.051-0.050c-38.086 37.115-90.188 60.006-147.636 60.006-49.986 0-95.924-17.331-132.133-46.311l0.42 0.325v-345.392c0-29.11-23.598-52.707-52.707-52.707s-52.707 23.598-52.707 52.707v0zM458.555 395.293c37.994-37.25 90.089-60.24 147.553-60.24 50.058 0 96.041 17.446 132.201 46.588l-0.405-0.316v351.084c-38.589-18.011-83.781-28.52-131.427-28.52-86.324 0-164.591 34.495-221.769 90.453l0.056-0.055c-37.965 37.302-90.061 60.329-147.536 60.329-50.077 0-96.072-17.481-132.213-46.674l0.4 0.313v-351.4c38.704 18.228 84.065 28.867 131.911 28.867 86.177 0 164.292-34.515 221.276-90.476l-0.047 0.046z" />
<glyph unicode="&#xe91c;" glyph-name="eye-off" horiz-adv-x="1025" d="M957.559-52.383l-205.736 205.736c-68.343-37.66-149.799-59.818-236.429-59.818-0.038 0-0.076 0-0.114 0h0.006c-204.211 0-376.043 111.488-509.871 334.465-3.519 5.793-5.602 12.796-5.602 20.285 0 7.045 1.843 13.66 5.074 19.388l-0.103-0.198c51.931 91.96 119.227 169.083 199.22 230.491l1.785 1.316-194.487 194.487c-7.136 7.136-11.55 16.995-11.55 27.885 0 21.78 17.656 39.436 39.436 39.436 10.89 0 20.749-4.414 27.885-11.55l545.352-545.615c0.748-0.598 1.416-1.2 2.048-1.838l0.002-0.002 1.84-1.997 165.577-165.734c3.151-2.345 5.855-5.049 8.126-8.096l0.074-0.103 222.977-223.029c7.124-7.132 11.529-16.981 11.529-27.859s-4.406-20.727-11.53-27.859v0c-7.165-6.959-16.955-11.249-27.746-11.249-0.021 0-0.042 0-0.064 0h0.003c-10.812 0.019-20.599 4.392-27.703 11.461l0.002-0.002zM84.996 449.025c118.059-186.97 259.614-276.539 429.974-276.539 0.158 0 0.344 0 0.53 0 64.464 0 125.514 14.617 180.016 40.717l-2.512-1.084-110.384 110.384c-20.358-11.64-44.745-18.504-70.734-18.504-79.775 0-144.446 64.671-144.446 144.446 0 25.976 6.857 50.35 18.858 71.412l-0.373-0.711-123.999 124.051c-70.989-52.851-129.97-117.377-175.143-191.264l-1.682-2.96zM465.77 401.717c11.881-11.744 28.222-18.999 46.257-18.999 3.394 0 6.728 0.257 9.984 0.752l-0.365-0.046-74.431 74.431c-0.443-2.871-0.696-6.182-0.696-9.553 0-18.22 7.399-34.713 19.355-46.636l0.001-0.001zM846.228 268.625c-7.815 7.209-12.692 17.5-12.692 28.93 0 10.362 4.008 19.787 10.559 26.811l-0.021-0.023c34.225 36.854 65.599 77.385 93.158 120.586l2.035 3.413c-117.165 185.709-257.091 275.909-427.083 275.909-31.123-0.107-61.437-3.297-90.734-9.282l2.952 0.504c-2.191-0.423-4.71-0.665-7.286-0.665-19.195 0-35.253 13.432-39.287 31.409l-0.051 0.269c-0.458 2.262-0.721 4.862-0.721 7.523 0 19.093 13.5 35.032 31.476 38.793l0.258 0.045c30.967 6.264 66.752 10.070 103.346 10.509l0.362 0.003c202.845 0 373.573-112.434 506.665-334.465 3.564-5.845 5.674-12.915 5.674-20.478 0-7.345-1.99-14.225-5.46-20.13l0.102 0.187c-35.563-59.578-74.369-111.198-117.984-158.3l0.556 0.608c-7.241-7.866-17.576-12.789-29.061-12.826h-0.007c-10.366 0.106-19.773 4.123-26.835 10.643l0.027-0.025z" />
<glyph unicode="&#xe91d;" glyph-name="eye" horiz-adv-x="1479" d="M7.814 418.565c-4.963 8.38-7.895 18.47-7.895 29.245s2.933 20.865 8.043 29.516l-0.148-0.27c192.313 320.294 438.565 482.944 731.548 482.944s539.614-162.65 731.548-482.944c5.161-8.328 8.219-18.43 8.219-29.245s-3.059-20.917-8.358-29.486l0.139 0.241c-191.858-320.294-438.109-482.489-731.548-482.489s-539.159 162.195-731.548 482.489zM123.353 447.772c169.099-267.797 371.046-397.978 615.932-397.978s447.592 130.257 615.932 397.978c-168.644 268.252-370.591 398.433-615.932 398.433s-446.834-130.181-615.857-398.433zM530.966 447.772c0 0.068 0 0.147 0 0.227 0 115.22 93.404 208.623 208.623 208.623s208.623-93.404 208.623-208.623c0-115.22-93.404-208.623-208.623-208.623-0.107 0-0.213 0-0.32 0h0.017c-114.972 0.301-208.095 93.423-208.396 208.367v0.029zM644.76 447.772c0.13-52.274 42.536-94.601 94.829-94.601 52.373 0 94.829 42.456 94.829 94.829s-42.456 94.829-94.829 94.829c-0.107 0-0.213 0-0.32-0.001h0.017c-52.266-0.086-94.602-42.475-94.602-94.753 0-0.107 0-0.213 0.001-0.32v0.017z" />
<glyph unicode="&#xe91e;" glyph-name="globe" d="M512.12-64c-282.524 0.040-511.538 229.080-511.538 511.608 0 282.554 229.055 511.608 511.608 511.608s511.608-229.055 511.608-511.608c0-210.657-127.318-391.577-309.202-470.009l-3.32-1.274c-58.494-25.493-126.643-40.326-198.257-40.326-0.316 0-0.632 0-0.948 0.001h0.048zM512.12-3.768c42.945 0 87.336 44.843 121.457 123.023 36.307 88.324 57.781 190.797 58.693 298.175l0.002 0.364h-360.457c0.892-107.749 22.414-210.226 60.799-304.013l-1.983 5.475c34.242-78.301 78.301-123.023 121.457-123.023zM688.69 95.102c-13.016-30.267-27.926-56.3-45.37-80.376l0.829 1.201c176.819 55.579 305.259 212.115 318.485 400.436l0.081 1.431h-210.179c-0.939-116.467-24.307-227.217-65.984-328.501l2.139 5.87zM379.882 15.958c-16.564 22.863-31.452 48.884-43.44 76.457l-1.041 2.687c-39.556 95.432-62.934 206.202-63.873 322.321l-0.002 0.371h-210.209c13.388-189.698 141.798-346.171 315.359-400.904l3.207-0.872zM962.744 478.086c-13.359 189.749-141.807 346.27-315.419 400.994l-3.207 0.872c16.619-22.883 31.538-48.925 43.536-76.53l1.036-2.675c39.537-95.432 62.913-206.199 63.873-322.311l0.002-0.381zM692.304 478.086c-0.922 107.742-22.396 210.214-60.681 304.039l1.985-5.501c-34.242 78.301-78.512 123.023-121.457 123.023s-87.336-44.843-121.457-123.023c-36.396-88.313-57.917-190.788-58.814-298.181l-0.002-0.358zM271.555 478.086c0.963 116.492 24.339 227.26 66.016 328.567l-2.14-5.876c13.025 30.268 27.935 56.3 45.373 80.381l-0.832-1.206c-176.791-55.605-305.212-212.11-318.485-400.401l-0.081-1.436z" />
<glyph unicode="&#xe91f;" glyph-name="right" horiz-adv-x="586" d="M20.113-43.975c12.341-12.396 29.419-20.066 48.289-20.066s35.948 7.671 48.287 20.064l453.48 453.48c9.858 9.834 15.957 23.432 15.957 38.454s-6.099 28.621-15.955 38.453l-453.478 453.566c-12.225 11.631-28.802 18.786-47.050 18.786-37.729 0-68.314-30.585-68.314-68.314 0-18.248 7.155-34.825 18.813-47.079l-0.027 0.029 395.087-395.707-395.618-395.618c-12.101-12.277-19.573-29.144-19.573-47.757 0-18.877 7.687-35.959 20.101-48.287l0.004-0.004z" />
<glyph unicode="&#xe920;" glyph-name="left" horiz-adv-x="586" d="M566.004-43.975c-12.341-12.396-29.419-20.066-48.289-20.066s-35.948 7.671-48.287 20.064l-453.48 453.48c-9.858 9.834-15.957 23.432-15.957 38.454s6.099 28.621 15.955 38.453l453.655 453.566c12.225 11.631 28.802 18.786 47.050 18.786 37.729 0 68.314-30.585 68.314-68.314 0-18.248-7.155-34.825-18.813-47.079l0.027 0.029-395.264-395.707 395.618-395.618c12.101-12.277 19.573-29.144 19.573-47.757 0-18.877-7.687-35.959-20.101-48.287l-0.004-0.004z" />
<glyph unicode="&#xe921;" glyph-name="settings" d="M389.457 32.279c-4.344 17.892-16.736 32.214-33.031 39.129l-0.371 0.14c-6.415 2.644-13.862 4.18-21.668 4.18-10.903 0-21.107-2.995-29.833-8.208l0.266 0.147c-18.694-11.99-41.49-19.142-65.952-19.219h-0.021c-47.3 0.538-88.358 26.747-109.946 65.327l-0.331 0.645c-10.001 17.498-15.898 38.457-15.898 60.793 0 24.284 6.97 46.939 19.019 66.076l-0.302-0.515c5.255 8.5 8.37 18.807 8.37 29.84 0 7.691-1.513 15.028-4.258 21.731l0.139-0.383c-7.208 16.624-21.448 29.029-38.863 33.589l-0.406 0.090c-55.663 13.853-96.258 63.399-96.258 122.427s40.595 108.575 95.39 122.244l0.867 0.183c25.186 6.11 43.596 28.464 43.596 55.118 0 10.917-3.089 21.113-8.44 29.762l0.14-0.243c-11.881 18.692-18.935 41.465-18.935 65.884 0 22.319 5.892 43.262 16.206 61.358l-0.321-0.611c21.942 39.154 63.012 65.278 110.218 65.695h0.059c24.446-0.070 47.233-7.114 66.492-19.247l-0.52 0.306c8.422-5.246 18.646-8.356 29.597-8.356 26.582 0 48.883 18.326 54.959 43.033l0.081 0.388c13.9 55.707 63.501 96.325 122.589 96.325s108.689-40.618 122.405-95.456l0.184-0.869c4.357-17.839 16.796-32.088 33.122-38.855l0.372-0.137c6.356-2.918 13.789-4.62 21.62-4.62 0.017 0 0.033 0 0.050 0h-0.003c0.072 0 0.157-0.001 0.242-0.001 10.846 0 20.964 3.114 29.509 8.497l-0.229-0.135c18.75 11.794 41.528 18.833 65.943 18.941h0.029c47.347-0.403 88.503-26.522 110.223-65.056l0.331-0.639c10.017-17.481 15.923-38.428 15.923-60.753 0-24.423-7.069-47.194-19.272-66.381l0.299 0.503c-5.162-8.392-8.219-18.557-8.219-29.437 0-26.593 18.267-48.92 42.938-55.116l0.392-0.083c55.59-13.925 96.109-63.444 96.109-122.427s-40.518-108.502-95.24-122.242l-0.869-0.185c-25.135-6.207-43.479-28.561-43.479-55.199 0-10.976 3.114-21.225 8.508-29.91l-0.14 0.242c11.829-18.592 18.852-41.245 18.852-65.539 0-22.36-5.949-43.33-16.351-61.414l0.318 0.599c-21.436-39.585-62.657-66.017-110.051-66.017-24.516 0-47.379 7.072-66.662 19.288l0.51-0.302c-8.316 5.248-18.434 8.363-29.279 8.363-0.085 0-0.17 0-0.255-0.001h0.013c-0.109 0.001-0.238 0.001-0.367 0.001-26.513 0-48.74-18.351-54.671-43.045l-0.078-0.383c-13.9-55.707-63.501-96.325-122.589-96.325s-108.689 40.618-122.405 95.456l-0.184 0.869zM382.527 135.533c37.017-15.599 64.607-47.245 74.333-85.982l0.186-0.873c6.226-25.082 28.545-43.379 55.138-43.379s48.913 18.297 55.056 42.989l0.082 0.39c9.889 39.541 37.359 71.157 73.414 86.54l0.827 0.314c13.903 5.848 30.064 9.245 47.018 9.245 0.41 0 0.82-0.002 1.23-0.006h-0.063c24.295-0.062 46.973-6.93 66.245-18.795l-0.55 0.315c8.44-5.45 18.718-8.751 29.755-8.916l0.044-0.001c21.54 0.616 40.125 12.696 49.926 30.329l0.153 0.301c4.415 7.679 7.019 16.884 7.019 26.698 0 11.093-3.327 21.408-9.038 30.003l0.125-0.2c-11.491 18.664-18.299 41.278-18.299 65.481 0 59.099 40.589 108.718 95.411 122.502l0.872 0.186c25.107 6.188 43.434 28.511 43.434 55.115s-18.327 48.928-43.045 55.034l-0.389 0.081c-55.674 13.984-96.243 63.593-96.243 122.678 0 24.207 6.81 46.824 18.618 66.039l-0.313-0.548c5.634 8.375 8.993 18.688 8.993 29.785 0 9.829-2.635 19.043-7.237 26.974l0.138-0.258c-10.066 17.779-28.61 29.728-49.994 30.351l-0.086 0.002c-11.078-0.206-21.346-3.501-30.030-9.055l0.232 0.139c-18.722-11.55-41.4-18.417-65.678-18.48h-0.017c-17.402 0.014-33.962 3.598-48.995 10.057l0.81-0.309c-36.867 15.582-64.344 47.114-74.056 85.706l-0.186 0.871c-6.226 25.082-28.545 43.379-55.138 43.379s-48.913-18.297-55.056-42.989l-0.082-0.39c-13.91-55.693-63.504-96.296-122.582-96.296-24.231 0-46.866 6.831-66.086 18.671l0.545-0.313c-8.478 5.568-18.863 8.891-30.023 8.916h-0.007c-21.39-0.63-39.85-12.587-49.65-30.056l-0.153-0.296c-4.5-7.733-7.156-17.020-7.156-26.926 0-10.998 3.273-21.231 8.899-29.779l-0.126 0.204c11.611-18.708 18.494-41.405 18.494-65.71 0-59.074-40.659-108.652-95.519-122.276l-0.867-0.182c-25.107-6.188-43.434-28.511-43.434-55.115s18.327-48.928 43.045-55.034l0.389-0.081c55.726-13.806 96.385-63.384 96.385-122.458 0-24.305-6.882-47.002-18.805-66.249l0.311 0.539c-5.572-8.314-8.893-18.545-8.893-29.552 0-9.929 2.703-19.228 7.413-27.199l-0.136 0.249c9.847-17.915 28.344-30 49.717-30.628l0.085-0.002c11.083 0.125 21.369 3.433 30.017 9.049l-0.219-0.133c18.754 11.541 41.474 18.377 65.79 18.377 17.341 0 33.87-3.477 48.928-9.771l-0.838 0.311zM318.449 448.115c0 106.984 86.728 193.712 193.712 193.712s193.712-86.728 193.712-193.712c0-106.984-86.728-193.712-193.712-193.712v0c-106.91 0.184-193.529 86.802-193.712 193.695v0.018zM387.748 448.115c0-68.712 55.702-124.414 124.414-124.414s124.414 55.702 124.414 124.414c0 68.712-55.702 124.414-124.414 124.414v0c-0.014 0-0.030 0-0.046 0-68.686 0-124.368-55.681-124.368-124.368 0-0.016 0-0.033 0-0.049v0.003z" />
<glyph unicode="&#xe922;" glyph-name="drag" d="M470.426 18.913l470.426 470.426 82.913-82.913-470.426-470.426zM0 18.913l940.852 940.852 82.913-83.618-940.852-940.852z" />
<glyph unicode="&#xe923;" glyph-name="heart" horiz-adv-x="1152" d="M576-64c-0.001 0-0.003 0-0.005 0-11.418 0-22.138 2.99-31.419 8.23l0.32-0.166c-22.272 12.416-544.896 307.776-544.896 687.168 1.192 181.728 148.787 328.585 330.681 328.585 97.179 0 184.567-41.918 245.070-108.659l0.248-0.278c60.746 67.078 148.163 109.038 245.381 109.038 181.962 0 329.592-146.996 330.619-328.717v-0.097c0-379.456-522.624-674.752-544.896-687.168-8.905-4.995-19.543-7.936-30.869-7.936-0.083 0-0.165 0-0.248 0h0.013zM330.368 832c-14.12-0.018-27.892-1.461-41.194-4.195l1.322 0.227c-92.942-18.886-161.987-99.707-162.496-196.744v-0.056c0-258.176 341.632-490.624 448-556.8 106.368 66.048 448 298.496 448 556.8-0.509 97.093-69.554 177.913-161.199 196.579l-1.297 0.221c-11.98 2.507-25.752 3.95-39.858 3.968h-0.014c-0.197 0.001-0.429 0.001-0.662 0.001-83.211 0-154.652-50.398-185.462-122.335l-0.5-1.314c-9.924-23.277-32.611-39.296-59.040-39.296s-49.116 16.020-58.881 38.879l-0.159 0.418c-31.311 73.251-102.751 123.649-185.962 123.649-0.21 0-0.42 0-0.63-0.001h0.033z" />
<glyph unicode="&#xe924;" glyph-name="arrow-up" horiz-adv-x="1056" d="M527.543 736c25.83-0.005 49.214-10.48 66.136-27.409l387.751-387.751c17.618-17.033 28.562-40.883 28.562-67.288 0-51.664-41.881-93.551-93.551-93.551-26.401 0-50.251 10.939-67.261 28.534l-0.022 0.026-321.619 321.619-321.619-321.619c-16.951-16.987-40.387-27.494-66.28-27.494-51.709 0-93.632 41.918-93.632 93.631 0 25.821 10.453 49.198 27.356 66.137l387.751 387.751c16.931 16.934 40.322 27.409 66.157 27.409 0.094 0 0.185 0 0.274-0.001h-0.014z" />
<glyph unicode="&#xe925;" glyph-name="align-justify" d="M0 819.2h1024v-102.4h-1024v102.4zM0 512h1024v-102.4h-1024v102.4zM0 204.8h1024v-102.4h-1024v102.4z" />
<glyph unicode="&#xe926;" glyph-name="left-long" horiz-adv-x="1452" d="M565.261 935.726c14.993-14.995 24.266-35.709 24.266-58.589s-9.273-43.594-24.266-58.589v0l-284.642-287.647h1088.835c45.851 0 83.021-37.17 83.021-83.021s-37.17-83.021-83.021-83.021v0h-1088.835l284.642-287.647c14.994-14.899 24.274-35.533 24.274-58.334 0-0.090 0-0.179 0-0.268v0.014c-0.439-45.448-37.052-82.2-82.404-82.862l-0.063-0.001c-0.023 0-0.050 0-0.077 0-22.832 0-43.497 9.279-58.43 24.271l-0.003 0.003-425.303 430.047c-14.411 15.084-23.291 35.559-23.325 58.108v0.007c0 0.032 0 0.071 0 0.109 0 22.597 9.054 43.079 23.732 58.018l-0.012-0.012 424.828 429.098c14.905 15.028 35.562 24.331 58.391 24.331s43.486-9.303 58.386-24.326l0.005-0.005z" />
<glyph unicode="&#xe927;" glyph-name="youtube" d="M68.708 959h91.918l59.208-182.192h5.726l56.466 182.192h92.706l-106.214-266.676v-189.178h-91.236v180.694l-108.574 275.16zM384.386 762.686c0 26.748 10.99 48.006 32.986 63.876 21.968 15.868 51.498 23.802 88.6 23.802 33.786 0 61.456-8.384 83.012-25.1 21.61-16.716 32.386-38.224 32.386-64.574v-178.4c0-29.542-10.602-52.746-31.736-69.564-21.158-16.816-50.302-25.25-87.368-25.25-35.718 0-64.286 8.684-85.732 26.048-21.418 17.366-32.148 40.72-32.148 70.114v179.048zM468.41 577.152c0-9.532 2.88-16.818 8.708-22.058 5.814-5.19 14.11-7.734 24.902-7.734 11.064 0 19.86 2.594 26.36 7.884 6.512 5.338 9.782 12.626 9.782 21.908v188.13c0 7.536-3.344 13.624-9.98 18.264-6.636 4.642-15.358 6.988-26.162 6.988-9.944 0-18.054-2.346-24.266-6.988-6.238-4.64-9.344-10.728-9.344-18.264v-188.13zM919.984 844.824v-345.422h-81.766v38.126c-15.094-14.074-30.762-24.75-47.082-32.138-16.292-7.286-32.136-10.978-47.458-10.978-18.91 0-33.184 5.14-42.766 15.42-9.582 10.282-14.372 25.7-14.372 46.26v288.732h81.79v-264.78c0-8.234 1.722-14.122 5.14-17.814 3.446-3.644 8.984-5.49 16.644-5.49 6.036 0 13.648 2.446 22.8 7.286 9.208 4.84 17.64 11.028 25.3 18.564v262.234h81.77zM843.36 233.476c-4.016 4.442-10.406 6.736-19.188 6.736-9.18 0-15.766-2.294-19.758-6.736-3.992-4.49-5.988-11.926-5.988-22.306v-21.508h50.946v21.508c0 10.38-1.996 17.816-6.012 22.306zM601.71 71.544c4.39-1.796 9.032-2.644 13.922-2.644 7.086 0 12.226 1.698 15.57 5.19 3.34 3.444 4.988 9.182 4.988 17.066v124.356c0 8.382-2.046 14.72-6.136 19.062-4.118 4.342-10.128 6.488-17.914 6.488-4.118 0-8.184-0.798-12.204-2.396-4.016-1.646-7.982-4.192-11.9-7.584v-150.804c4.692-4.092 9.256-6.986 13.674-8.734zM980.992 334.826c0 59.882-61.508 108.438-137.308 108.438-108.136 3.644-218.792 5.24-331.684 5.042-112.854 0.2-223.512-1.396-331.686-5.042-75.762 0-137.266-48.554-137.266-108.438-4.554-47.356-6.526-94.762-6.35-142.17-0.174-47.406 1.796-94.812 6.35-142.22 0-59.832 61.504-108.384 137.266-108.384 108.174-3.594 218.832-5.192 331.686-5.042 112.892-0.15 223.548 1.448 331.684 5.042 75.8 0 137.308 48.552 137.308 108.384 4.54 47.408 6.508 94.814 6.308 142.22 0.2 47.408-1.768 94.814-6.308 142.17zM242.502 33.070v-3.594h-64.946v287.236h-67.192v52.294h199.344v-52.294h-67.206v-283.642zM473.536 277.34v-247.864h-57.662v27.396c-10.654-10.128-21.696-17.764-33.184-23.054-11.514-5.238-22.668-7.884-33.496-7.884-13.324 0-23.368 3.694-30.13 11.030-6.774 7.384-10.156 18.462-10.156 33.234v210.686h57.688v-189.976c0-5.84 1.198-10.13 3.604-12.726 2.434-2.644 6.35-3.942 11.752-3.942 4.254 0 9.606 1.746 16.094 5.19 6.462 3.494 12.4 7.934 17.828 13.324v188.13h57.662v-3.544zM695.55 218.306v-137.48c0-17.616-4.516-31.088-13.546-40.47-9.036-9.282-22.11-13.972-39.176-13.972-11.278 0-21.304 1.796-30.14 5.39-8.856 3.642-17.064 9.232-24.65 16.768v-19.064h-58.21v339.53h58.21v-108.136c7.786 7.586 16.018 13.324 24.752 17.216 8.758 3.942 17.618 5.938 26.546 5.938 18.214 0 32.188-5.29 41.792-15.87 9.606-10.578 14.422-25.998 14.422-46.26v-3.59zM908.73 210.72v-63.128h-110.304v-43.162c0-13.026 1.894-22.058 5.688-27.098 3.816-5.042 10.304-7.586 19.484-7.586 9.558 0 16.27 2.146 20.086 6.438 3.792 4.242 5.688 13.674 5.688 28.246v17.214h59.36v-22.204c0-25.4-7.21-44.514-21.68-57.388-14.45-12.876-36.032-19.262-64.75-19.262-25.824 0-46.132 6.836-60.98 20.458-14.82 13.624-22.254 32.386-22.254 56.192v114.822c0 21.508 8.156 39.024 24.426 52.598 16.292 13.524 37.378 20.31 63.176 20.31 26.398 0 46.656-6.288 60.832-18.812 14.122-12.528 21.23-30.592 21.23-54.096v-3.542z" />
<glyph unicode="&#xe928;" glyph-name="linkedin" d="M1024-64h-204.8v358.349c0 98.304-43.366 153.139-121.139 153.139-84.634 0-134.861-57.139-134.861-153.139v-358.349h-204.8v665.6h204.8v-74.854c0 0 64.256 112.742 209.050 112.742 144.845 0 251.75-88.371 251.75-271.258v-432.23zM125.030 708.045c-69.069 0-125.030 56.422-125.030 126.003 0 69.53 55.962 125.952 125.030 125.952 69.018 0 124.979-56.422 124.979-125.952 0.051-69.581-55.962-126.003-124.979-126.003v0zM0-64h256v665.6h-256v-665.6z" />
<glyph unicode="&#xe929;" glyph-name="tiktok" d="M773.552 799.519c-37.535 43.032-60.098 99.142-60.098 160.481h-47.038c12.114-67.046 52.025-124.583 107.136-160.481zM338.352 452.874c-81.481 0-147.757-66.335-147.757-147.881 0-56.827 32.308-106.276 79.342-131-17.579 24.248-28.031 53.965-28.031 86.303 0 81.546 66.277 147.881 147.76 147.881 15.203 0 29.929-2.611 43.71-6.892v179.736c-14.256 1.904-28.745 3.094-43.71 3.094-2.615 0-4.99-0.238-7.603-0.238v-137.894c-14.016 4.28-28.507 6.892-43.71 6.892zM906.811 720.585v-136.708c-91.218 0-175.784 29.242-244.68 78.696v-357.816c0-178.555-145.141-324.060-323.783-324.060-68.89 0-133.028 21.872-185.528 58.727 59.15-63.478 143.482-103.424 236.84-103.424 178.4 0 323.783 145.27 323.783 324.060v357.816c68.89-49.454 153.457-78.694 244.68-78.694v175.932c-17.818 0-34.924 1.904-51.313 5.471zM662.131 304.757v357.816c68.894-49.454 153.462-78.696 244.68-78.696v136.708c-52.736 11.172-99.052 39.703-133.259 78.934-55.111 35.898-94.792 93.434-107.382 160.481h-128.753l-0.241-705.408c-2.846-78.935-67.937-142.418-147.516-142.418-49.412 0-92.885 24.488-119.965 61.578-47.035 24.965-79.342 74.178-79.342 131.005 0 81.546 66.277 147.881 147.757 147.881 15.203 0 29.932-2.616 43.71-6.896v137.898c-174.839-3.804-315.945-147.406-315.945-323.579 0-85.115 33.020-162.626 86.944-220.636 52.5-36.853 116.639-58.727 185.528-58.727 178.4 0 323.783 145.505 323.783 324.060z" />
<glyph unicode="&#xe92a;" glyph-name="video" d="M744.728 616.403l279.273 139.636v-616.079l-279.273 139.636v-64.324c0-51.412-41.678-93.091-93.091-93.091h-558.546c-51.412 0-93.091 41.678-93.091 93.091v465.455c0 51.412 41.678 93.091 93.091 93.091h558.546c51.412 0 93.091-41.678 93.091-93.091v-64.324zM744.728 512.325v-128.649l186.182-93.091v314.83l-186.182-93.091zM93.092 680.728v-465.455h558.546v465.455h-558.546z" />
<glyph unicode="&#xe92b;" glyph-name="video-no" d="M231.479 666.67h-113.087v-437.341h524.809v25.619l-411.722 411.722zM716.526 181.623c-15.606-23.938-42.618-39.761-73.325-39.761h-524.809c-48.307 0-87.468 39.161-87.468 87.468v437.341c0 48.307 39.161 87.468 87.468 87.468h25.619l-144.012 144.012 61.85 61.85 962.15-962.15-61.85-61.85-245.623 245.623zM730.669 606.231l262.405 131.202v-568.024l-87.468 87.468v339.030l-174.937-87.468v-104.207l-87.468 87.468v174.971h-174.971l-87.468 87.468h262.439c48.307 0 87.468-39.161 87.468-87.468v-60.439z" />
<glyph unicode="&#xe92c;" glyph-name="eye-alt-slash" d="M884.902 607.042c-8.93 15.252-28.531 20.379-43.785 11.451-15.249-8.928-20.378-28.53-11.452-43.782l55.236 32.331zM857.284 305.122v0zM391.025 158.822c-16.711 5.756-34.921-3.132-40.673-19.84-5.752-16.713 3.132-34.923 19.843-40.674l20.829 60.514zM166.716 305.122v0zM166.716 590.877v0zM593.758 534.685c12.791-12.198 33.045-11.716 45.244 1.072 12.194 12.789 11.716 33.045-1.075 45.242l-44.169-46.314zM373.043 323.597c11.483-13.431 31.683-15.014 45.117-3.533 13.435 11.486 15.014 31.684 3.532 45.12l-48.649-41.587zM695.753 445.41c0 17.673-14.327 32-32 32s-32-14.327-32-32h64zM511.974 323.273c-17.673 0-32-14.327-32-32s14.327-32 32-32v64zM870.805 766.885c12.399 12.595 12.237 32.855-0.358 45.254s-32.853 12.239-45.252-0.356l45.611-44.897zM177.195 153.498c-12.398-12.595-12.239-32.858 0.356-45.257 12.595-12.395 32.855-12.237 45.254 0.358l-45.61 44.898zM829.666 574.711c45.777-78.203 45.777-175.219 0-253.423l55.236-32.329c57.463 98.172 57.463 219.908 0 318.082l-55.236-32.331zM829.666 321.289c-94.874-162.082-281.809-216.444-438.641-162.466l-20.829-60.514c183.379-63.117 403.241 0.222 514.707 190.652l-55.236 32.329zM194.332 321.289c-45.776 78.204-45.776 175.219 0 253.423l-55.233 32.331c-57.465-98.173-57.465-219.91 0-318.082l55.233 32.329zM275.309 224.478c-30.942 26.155-58.485 58.385-80.977 96.811l-55.233-32.329c26.156-44.685 58.402-82.513 94.892-113.357l41.318 48.875zM194.332 574.711c115.779 197.795 368.94 235.104 536.258 111.144l38.101 51.425c-196.22 145.368-493.524 102.217-629.592-130.238l55.233-32.331zM392.248 445.41c0 67.998 54.071 122.185 119.727 122.185v64c-101.959 0-183.727-83.808-183.727-186.185h64zM511.974 567.595c31.565 0 60.297-12.417 81.783-32.91l44.169 46.314c-32.819 31.299-77.163 50.595-125.952 50.595v-64zM421.692 365.184c-18.32 21.431-29.444 49.429-29.444 80.226h-64c0-46.498 16.867-89.143 44.795-121.813l48.649 41.587zM631.753 445.41c0-67.93-54.101-122.138-119.778-122.138v-64c101.943 0 183.778 83.789 183.778 186.138h-64zM825.195 811.782l-648-658.284 45.61-44.898 648 658.285-45.611 44.897z" />
<glyph unicode="&#xe92d;" glyph-name="eye-alt" d="M166.716 590.876v0zM857.284 590.876v0zM857.284 305.122v0zM166.716 305.122v0zM194.332 574.711c142.531 243.497 492.806 243.497 635.334 0l55.236 32.331c-167.249 285.722-578.556 285.722-745.804 0l55.233-32.331zM829.666 574.711c45.777-78.203 45.777-175.219 0-253.423l55.236-32.329c57.463 98.172 57.463 219.908 0 318.082l-55.236-32.331zM829.666 321.289c-142.528-243.494-492.803-243.494-635.334 0l-55.233-32.329c167.248-285.726 578.554-285.726 745.804 0l-55.236 32.329zM194.332 321.289c-45.776 78.204-45.776 175.219 0 253.423l-55.233 32.331c-57.465-98.173-57.465-219.91 0-318.082l55.233 32.329zM631.753 445.41c0-67.93-54.101-122.138-119.778-122.138v-64c101.943 0 183.778 83.789 183.778 186.138h-64zM511.974 323.273c-65.66 0-119.727 54.195-119.727 122.138h-64c0-102.336 81.774-186.138 183.727-186.138v64zM392.248 445.41c0 67.998 54.071 122.185 119.727 122.185v64c-101.959 0-183.727-83.808-183.727-186.185h64zM511.974 567.595c65.668 0 119.778-54.2 119.778-122.185h64c0 102.39-81.83 186.185-183.778 186.185v-64z" />
<glyph unicode="&#xe92e;" glyph-name="sound-minus" d="M344.193 727.639v-258.18c0-50.781 21.049-96.733 54.879-129.597l301.493 430.426c-19.216 79.142-90.677 138.078-175.646 138.078-99.658 0-180.726-81.069-180.726-180.726zM369.171 297.174c-47.023 42.555-76.613 104.032-76.613 172.284v258.18c0 128.109 104.253 232.362 232.362 232.362 94.376 0 175.811-56.581 212.147-137.598l96.379 137.598 49.269-34.49-692.16-988.167-49.27 34.491 162.82 232.448c-70.332 61.568-114.82 151.973-114.82 252.565v124.494h51.636v-124.494c0-83.098 35.903-157.994 93.009-209.983l35.241 50.309zM524.919 288.732c-5.006 0-9.966 0.208-14.871 0.608l-33.105-47.264c15.486-3.264 31.534-4.981 47.976-4.981 128.109 0 232.36 104.256 232.36 232.364v172.844l-51.632-73.719v-99.124c0-99.655-81.072-180.727-180.729-180.727zM437.988 186.465l-30.781-43.947c28.957-10.88 59.803-17.867 91.896-20.32v-134.56h-129.092v-51.637h309.818v51.637h-129.090v134.56c173.047 13.227 309.815 158.272 309.815 334.65v124.494h-51.637v-124.494c0-156.559-127.435-283.999-283.997-283.999-30.306 0-59.521 4.779-86.932 13.616z" />
<glyph unicode="&#xe92f;" glyph-name="refresh" horiz-adv-x="1021" d="M217.055 71.179c-98.431 76.327-165.788 188.655-182.27 316.91l-0.25 2.382c-0.262 1.935-0.411 4.172-0.411 6.444 0 28.027 22.72 50.747 50.747 50.747 25.755 0 47.029-19.186 50.309-44.046l0.028-0.258c24.57-188.14 183.856-331.921 376.725-331.921 16.55 0 32.852 1.059 48.843 3.112l-1.893-0.198c111.359 14.597 206.117 75.586 265.617 162.594l0.841 1.303h-101.887c-1.107-0.086-2.397-0.135-3.698-0.135-28.024 0-50.741 22.718-50.741 50.741s22.718 50.741 50.741 50.741c1.301 0 2.591-0.049 3.868-0.145l-0.17 0.010h212.681c28.024 0 50.741-22.718 50.741-50.741v-215.448c0-27.949-22.657-50.606-50.606-50.606s-50.606 22.657-50.606 50.606v0 76.112c-76.358-94.4-186.414-158.912-311.617-175.179l-2.411-0.256c-18.237-2.409-39.489-3.875-61.049-4.047l-0.218-0.001c-111.129 0.083-213.338 38.207-294.327 102.050l1.013-0.77zM886.272 493.167c-24.331 188.157-183.555 332.029-376.382 332.029-130.404 0-245.44-65.8-313.717-166.009l-0.845-1.314h102.292c27.949 0 50.606-22.657 50.606-50.606s-22.657-50.606-50.606-50.606v0h-212.681c-0.060 0-0.132 0-0.203 0-27.841 0-50.424 22.512-50.538 50.326v215.459c1.987 26.386 23.884 47.043 50.606 47.043s48.62-20.657 50.596-46.873l0.010-0.17v-75.707c88.771 109.76 223.436 179.36 374.357 179.36 244.079 0 445.639-182.043 476.313-417.762l0.257-2.417c0.25-1.893 0.392-4.082 0.392-6.304 0-25.762-19.148-47.052-43.988-50.414l-0.263-0.029c-2.092 0-4.116-0.405-6.747-0.405-25.46 0.402-46.328 19.544-49.434 44.217l-0.026 0.249z" />
</font>
</defs>
</svg>
