<svg width="30" height="30" viewBox="0 0 30 30" fill="none" xmlns="http://www.w3.org/2000/svg">
<g id="Layer_1" clip-path="url(#clip0_1044_5268)">
<path id="Vector" d="M14.93 29.9998C12.95 29.9998 10.99 29.5998 9.15998 28.8298C7.32998 28.0598 5.67998 26.9398 4.28998 25.5298C2.89998 24.1198 1.80998 22.4398 1.06998 20.6098C0.339981 18.7598 -0.0300194 16.7998 -1.93693e-05 14.8198C0.0199806 12.8498 0.419981 10.9098 1.19998 9.09981C1.96998 7.28981 3.08998 5.64981 4.49998 4.26981C5.90998 2.88981 7.56998 1.80981 9.38998 1.07981C11.21 0.339813 13.16 -0.0201871 15.13 -0.000187089C19.1 0.0298129 22.9 1.63981 25.69 4.46981C28.48 7.29981 30.03 11.1198 30 15.0998C29.97 19.0498 28.38 22.8298 25.59 25.6198C22.79 28.4098 19.01 29.9798 15.06 29.9998H14.94H14.93ZM1.37998 14.9698C1.37998 18.5498 2.80998 21.9798 5.32998 24.5298C7.84998 27.0698 11.27 28.5198 14.85 28.5698C16.64 28.5898 18.41 28.2598 20.07 27.5898C21.73 26.9198 23.24 25.9398 24.51 24.6798C25.78 23.4298 26.8 21.9398 27.5 20.2898C28.2 18.6498 28.56 16.8798 28.57 15.0898C28.6 11.5098 27.21 8.05981 24.71 5.50981C22.21 2.94981 18.79 1.48981 15.21 1.44981H15.1C13.31 1.42981 11.53 1.76981 9.86998 2.43981C8.20998 3.10981 6.69998 4.09981 5.41998 5.35981C4.14998 6.61981 3.12998 8.10981 2.43998 9.75981C1.74998 11.4098 1.37998 13.1798 1.37998 14.9698ZM14.87 24.5398C13.42 24.4998 12.04 23.9298 10.98 22.9498C9.91998 21.9698 9.23998 20.6398 9.07998 19.1998C8.98998 18.3898 9.23998 18.0798 10.07 18.1098C12.49 18.2198 14.13 19.3598 15.05 21.8998C15.93 19.3998 17.54 18.2898 19.89 18.1098C20.92 18.0298 21.11 18.4698 20.99 19.3698C20.79 20.8198 20.07 22.1398 18.96 23.0898C17.85 24.0398 16.44 24.5598 14.98 24.5398H14.88H14.87ZM10.36 17.0698C9.49998 17.0198 8.78998 15.6698 8.99998 14.5698C9.21998 13.4398 10.1 13.8998 10.71 13.9898C12.77 14.2898 13.33 14.7698 15.06 17.5098C15.64 15.3498 17.12 14.2598 19.22 13.9598C19.86 13.8698 20.92 13.5198 20.87 14.6098C20.83 15.4798 21.07 16.8798 19.62 17.0298C18.71 17.0898 17.82 17.3698 17.02 17.8298C16.23 18.2898 15.55 18.9298 15.04 19.6898C14.52 18.9098 13.83 18.2698 13.01 17.8098C12.19 17.3498 11.28 17.0998 10.35 17.0598L10.36 17.0698ZM10.23 12.7498C8.88998 12.5798 9.09998 11.1698 9.11998 10.2398C9.13998 9.33981 10.04 9.63981 10.6 9.68981C12.81 9.91981 14.27 11.1298 15.03 13.4198C15.79 11.1398 17.22 9.89981 19.45 9.71981C20.03 9.66981 21.01 9.27981 20.96 10.3698C20.91 11.2798 21.15 12.6198 19.7 12.7798C17.76 12.9898 16.15 13.6998 15 15.4398C14.43 14.6898 13.71 14.0698 12.9 13.6098C12.08 13.1498 11.18 12.8598 10.24 12.7598L10.23 12.7498ZM10.25 8.52981C8.81998 8.39981 9.12998 7.12981 9.02998 6.26981C8.89998 5.13981 9.84998 5.44981 10.44 5.48981C12.67 5.64981 14.15 6.83981 14.93 9.25981C15.74 6.85981 17.18 5.64981 19.39 5.48981C19.96 5.44981 21 5.06981 20.88 6.15981C20.78 7.02981 21.05 8.36981 19.59 8.53981C18.68 8.60981 17.79 8.88981 17 9.35981C16.21 9.82981 15.54 10.4698 15.04 11.2298C14.51 10.4398 13.79 9.77981 12.96 9.30981C12.13 8.83981 11.2 8.56981 10.24 8.52981H10.25Z" fill="#1A428A"/>
</g>
<defs>
<clipPath id="clip0_1044_5268">
<rect width="30" height="30" fill="white"/>
</clipPath>
</defs>
</svg>
