<svg width="19" height="43" viewBox="0 0 19 43" fill="none" xmlns="http://www.w3.org/2000/svg">
<g id="Layer_1" clip-path="url(#clip0_1044_5262)">
<path id="Vector" d="M5.5601 42.9602C4.7301 42.9602 3.9101 42.7602 3.1701 42.4002C2.4201 42.0402 1.7701 41.5202 1.2501 40.8702C0.730096 40.2202 0.360096 39.4702 0.170096 38.6602C-0.0199038 37.8502 -0.0399038 37.0102 0.130096 36.2002C1.5401 30.1802 3.1701 24.2102 4.7301 18.2202C4.8701 17.6702 5.0101 16.8302 5.8401 17.1602C6.5801 17.4602 6.2401 18.2102 6.0901 18.7802C4.6201 24.4402 3.1301 30.0902 1.6801 35.7502C1.0301 38.2802 2.2401 40.6702 4.4201 41.2902C6.9001 42.0002 9.1401 40.5902 9.8501 37.8302C11.6901 30.7902 13.4801 23.7502 15.3801 16.7302C15.7801 15.2602 15.5001 14.6502 14.0201 14.3602C12.3901 14.0402 10.8001 13.5202 9.2001 13.0402C8.1801 12.7402 7.4101 12.6302 7.2901 14.1102C7.2401 14.6902 7.1401 15.7302 6.2201 15.5202C5.0601 15.2502 5.7601 14.2802 5.9001 13.6602C6.5601 10.7902 6.5901 10.8002 9.3101 11.5802C11.6201 12.2402 13.9301 12.9002 16.2501 13.4902C17.2601 13.7502 17.5001 14.2302 17.2301 15.2602C15.1501 23.0802 13.1601 30.9202 11.0401 38.7202C10.7601 39.9402 10.0701 41.0302 9.0801 41.8002C8.0901 42.5702 6.8701 42.9802 5.6201 42.9502H5.5801L5.5601 42.9602ZM5.5401 40.4302C5.1101 40.4302 4.6701 40.3202 4.2201 40.1002C3.4101 39.7002 2.7801 38.8902 2.5801 38.0202C2.4801 37.5702 2.4801 37.1102 2.5801 36.6602C3.5601 32.3602 4.7501 28.1102 5.8301 23.8302C5.8901 23.5802 5.9801 23.2002 6.2701 23.1202C6.5701 23.0302 6.8701 23.2202 7.1501 23.2802C7.4101 23.3402 7.6701 23.3702 7.9301 23.4102C8.3801 23.4902 8.8401 23.5702 9.2901 23.6602C9.8801 23.7902 10.5201 23.9302 11.0301 24.2702C12.0101 24.9302 11.6901 26.2802 11.4801 27.2502C11.3301 27.9602 11.1401 28.6702 10.9601 29.3702C10.5601 30.9102 10.1601 32.4502 9.7701 33.9902C9.5401 34.8902 9.3801 35.8202 9.1301 36.7202C8.9101 37.5302 8.6201 38.3402 8.1301 39.0202C7.9001 39.3502 7.6201 39.6402 7.2901 39.8702C7.0001 40.0702 6.5301 40.3602 6.1701 40.3602C5.9601 40.4102 5.7501 40.4302 5.5401 40.4202V40.4302ZM7.2201 25.1602C7.0901 25.1602 6.9501 25.1902 6.8301 25.2402C6.7101 25.2902 6.6001 25.3702 6.5001 25.4702C6.4101 25.5702 6.3401 25.6802 6.2901 25.8102C6.2401 25.9402 6.2201 26.0702 6.2301 26.2002C6.2101 26.3502 6.2301 26.5002 6.2801 26.6402C6.3301 26.7802 6.4001 26.9102 6.5001 27.0302C6.6001 27.1402 6.7301 27.2302 6.8601 27.2902C7.0001 27.3502 7.1501 27.3802 7.3001 27.3802C7.9901 27.3802 8.3101 26.8802 8.4001 26.2902C8.3501 25.5202 7.9401 25.1702 7.3301 25.1702C7.2901 25.1702 7.2601 25.1702 7.2201 25.1702V25.1602ZM14.3001 10.6402C14.3001 10.2102 14.4601 9.80023 14.7601 9.49023C15.0601 9.18023 15.4701 9.01023 15.9001 9.00023C16.3301 9.00023 16.7401 9.18023 17.0401 9.49023C17.3401 9.80023 17.5001 10.2102 17.5001 10.6402C17.5001 11.0702 17.3401 11.4802 17.0401 11.7902C16.7401 12.1002 16.3301 12.2702 15.9001 12.2802C15.4701 12.2802 15.0601 12.1002 14.7601 11.7902C14.4601 11.4802 14.2901 11.0702 14.3001 10.6402ZM7.4901 5.52023C7.4901 5.12023 7.5601 4.73023 7.7101 4.36023C7.8601 3.99023 8.0801 3.65023 8.3601 3.37023C8.6401 3.08023 8.9701 2.86023 9.3401 2.70023C9.7101 2.54023 10.1001 2.46023 10.5001 2.46023C10.9001 2.46023 11.2901 2.55023 11.6601 2.70023C12.0301 2.86023 12.3601 3.08023 12.6401 3.37023C12.9201 3.66023 13.1401 3.99023 13.2901 4.36023C13.4401 4.73023 13.5101 5.13023 13.5101 5.52023C13.5101 5.92023 13.4401 6.31023 13.2901 6.68023C13.1401 7.05023 12.9201 7.39023 12.6401 7.67023C12.3601 7.96023 12.0301 8.18023 11.6601 8.34023C11.2901 8.50023 10.9001 8.58023 10.5001 8.58023C10.1001 8.58023 9.7101 8.49023 9.3401 8.33023C8.9701 8.17023 8.6401 7.95023 8.3601 7.66023C8.0801 7.37023 7.8601 7.04023 7.7101 6.67023C7.5601 6.30023 7.4901 5.90023 7.4901 5.51023V5.52023ZM8.2901 5.52023C8.2901 6.11023 8.5101 6.68023 8.9201 7.10023C9.3301 7.52023 9.9001 7.76023 10.4901 7.77023C11.0801 7.77023 11.6401 7.52023 12.0601 7.10023C12.4701 6.68023 12.7001 6.11023 12.7001 5.52023C12.7001 4.93023 12.4801 4.36023 12.0701 3.94023C11.6601 3.52023 11.0901 3.28023 10.5001 3.27023C9.9101 3.27023 9.3501 3.52023 8.9401 3.94023C8.5301 4.36023 8.3001 4.93023 8.3101 5.52023H8.2901ZM14.2901 2.04023C14.2901 1.77023 14.3401 1.51023 14.4401 1.26023C14.5401 1.01023 14.6901 0.790234 14.8701 0.600234C15.0601 0.410234 15.2801 0.260234 15.5201 0.150234C15.7601 0.0502344 16.0301 -0.00976562 16.2901 -0.00976562C16.8301 -0.00976562 17.3401 0.220234 17.7201 0.600234C18.1001 0.980234 18.3001 1.50023 18.3001 2.04023C18.3001 2.58023 18.1001 3.09023 17.7201 3.48023C17.3401 3.86023 16.8301 4.08023 16.2901 4.09023C15.7501 4.09023 15.2401 3.86023 14.8701 3.48023C14.4901 3.10023 14.2901 2.58023 14.2901 2.04023ZM15.0901 2.04023C15.0901 2.36023 15.2101 2.67023 15.4401 2.90023C15.6601 3.13023 15.9701 3.26023 16.2901 3.27023C16.4501 3.27023 16.6101 3.23023 16.7501 3.17023C16.9001 3.11023 17.0301 3.02023 17.1401 2.90023C17.2501 2.79023 17.3401 2.65023 17.4001 2.50023C17.4601 2.35023 17.4901 2.19023 17.4901 2.03023C17.4901 1.71023 17.3701 1.40023 17.1401 1.17023C16.9101 0.940234 16.6101 0.810234 16.2901 0.800234C15.9701 0.800234 15.6601 0.940234 15.4401 1.17023C15.2201 1.40023 15.0901 1.71023 15.0901 2.03023V2.04023Z" fill="#1A428A"/>
</g>
<defs>
<clipPath id="clip0_1044_5262">
<rect width="18.3" height="42.96" fill="white"/>
</clipPath>
</defs>
</svg>
