<?xml version="1.0" encoding="UTF-8" standalone="no"?>
<!-- Created with Sodipodi ("http://www.sodipodi.com/") -->

<svg
   xmlns:dc="http://purl.org/dc/elements/1.1/"
   xmlns:cc="http://creativecommons.org/ns#"
   xmlns:rdf="http://www.w3.org/1999/02/22-rdf-syntax-ns#"
   xmlns:svg="http://www.w3.org/2000/svg"
   xmlns="http://www.w3.org/2000/svg"
   xmlns:sodipodi="http://sodipodi.sourceforge.net/DTD/sodipodi-0.dtd"
   xmlns:inkscape="http://www.inkscape.org/namespaces/inkscape"
   height="500"
   id="svg548"
   sodipodi:docname="Flag of Montserrat (WFB 2000).svg"
   sodipodi:version="0.32"
   width="1000"
   inkscape:version="0.92.3 (2405546, 2018-03-11)"
   version="1.0"
   inkscape:output_extension="org.inkscape.output.svg.inkscape">
  <defs
     id="defs550">
    <inkscape:perspective
       sodipodi:type="inkscape:persp3d"
       inkscape:vp_x="0 : 250 : 1"
       inkscape:vp_y="0 : 1000 : 0"
       inkscape:vp_z="1000 : 250 : 1"
       inkscape:persp3d-origin="500 : 166.66667 : 1"
       id="perspective79" />
    <inkscape:perspective
       id="perspective2599"
       inkscape:persp3d-origin="372.04724 : 350.78739 : 1"
       inkscape:vp_z="744.09448 : 526.18109 : 1"
       inkscape:vp_y="0 : 1000 : 0"
       inkscape:vp_x="0 : 526.18109 : 1"
       sodipodi:type="inkscape:persp3d" />
  </defs>
  <sodipodi:namedview
     id="base"
     inkscape:zoom="0.76791761"
     inkscape:cx="746.46889"
     inkscape:cy="54.145328"
     inkscape:window-width="1920"
     inkscape:window-height="1017"
     inkscape:window-x="-8"
     inkscape:window-y="-8"
     inkscape:current-layer="svg548"
     showgrid="false"
     inkscape:window-maximized="1" />
  <metadata
     id="metadata64">
    <rdf:RDF>
      <cc:Work
         rdf:about="">
        <dc:title>United Kingdom - Montserrat</dc:title>
        <dc:description />
        <dc:subject>
          <rdf:Bag>
            <rdf:li>united_kingdom</rdf:li>
            <rdf:li>flags</rdf:li>
            <rdf:li>caribbean</rdf:li>
            <rdf:li>sign</rdf:li>
            <rdf:li>signs_and_symbols</rdf:li>
            <rdf:li />
            <rdf:li>america</rdf:li>
          </rdf:Bag>
        </dc:subject>
        <dc:publisher>
          <cc:Agent
             rdf:about="http://www.openclipart.org">
            <dc:title>Tobias Jakobs</dc:title>
          </cc:Agent>
        </dc:publisher>
        <dc:creator>
          <cc:Agent
             rdf:about="">
            <dc:title>Tobias Jakobs</dc:title>
          </cc:Agent>
        </dc:creator>
        <dc:rights>
          <cc:Agent
             rdf:about="">
            <dc:title>Tobias Jakobs</dc:title>
          </cc:Agent>
        </dc:rights>
        <dc:date />
        <dc:format>image/svg+xml</dc:format>
        <dc:type
           rdf:resource="http://purl.org/dc/dcmitype/StillImage" />
        <cc:license
           rdf:resource="http://web.resource.org/cc/PublicDomain">
          <dc:date />
        </cc:license>
        <dc:language>en</dc:language>
      </cc:Work>
      <cc:License
         rdf:about="http://web.resource.org/cc/PublicDomain">
        <cc:permits
           rdf:resource="http://web.resource.org/cc/Reproduction" />
        <cc:permits
           rdf:resource="http://web.resource.org/cc/Distribution" />
        <cc:permits
           rdf:resource="http://web.resource.org/cc/DerivativeWorks" />
      </cc:License>
    </rdf:RDF>
  </metadata>
  <rect
     height="500.00021"
     id="rect877"
     style="font-size:12px;fill:#012169;stroke-width:1pt;fill-opacity:1"
     width="1000.0005"
     x="0"
     y="3.0523472e-05" />
  <path
     style="fill:none;fill-opacity:1;fill-rule:evenodd;stroke:#000000;stroke-width:1.20835123pt;stroke-linecap:round;stroke-linejoin:miter;stroke-opacity:1"
     sodipodi:nodetypes="c"
     id="path668"
     d="" />
  <g
     id="g878"
     style="font-size:12px;stroke:none"
     transform="matrix(8.3333379,0,0,8.3333429,0,1.4283772e-5)">
    <path
       d="M 0,0 V 3.3541 L 53.2918,30 H 60 V 26.6459 L 6.7082,0 Z M 60,0 V 3.35405 L 6.7082,30 H 0 V 26.6458 L 53.2918,0 Z"
       id="path879"
       style="font-size:12px;fill:#ffffff;stroke:none;stroke-width:1.00000003pt"
       inkscape:connector-curvature="0" />
    <path
       d="M 25,0 V 30 H 35 V 0 Z M 0,10 V 20 H 60 V 10 Z"
       id="path880"
       style="font-size:12px;fill:#ffffff;stroke:none;stroke-width:1.00000003pt"
       inkscape:connector-curvature="0" />
    <path
       d="m 0,12 v 6 H 60 V 12 Z M 27,0 v 30 h 6 V 0 Z"
       id="path881"
       style="font-size:12px;fill:#c8102e;fill-opacity:1;stroke:none;stroke-width:1.00000003pt"
       inkscape:connector-curvature="0" />
    <path
       d="M 0,30 20,20 h 4.4721 L 4.47214,30 Z M 0,0 20,10 H 15.5279 L 0,2.23607 Z m 35.5279,10 20,-10 H 60 L 40,10 Z M 60,30 40,20 h 4.4721 L 60,27.7639 Z"
       id="path882"
       style="font-size:12px;fill:#c8102e;fill-opacity:1;stroke:none;stroke-width:1.00000003pt"
       inkscape:connector-curvature="0" />
  </g>
  <g
     id="g2527"
     transform="matrix(0.7483823,0,0,0.7483823,187.63927,58.217808)">
    <path
       style="fill:#00a2bd;fill-opacity:1;fill-rule:evenodd;stroke:none;stroke-width:1.20835125pt;stroke-linecap:butt;stroke-linejoin:miter;stroke-opacity:1"
       sodipodi:nodetypes="cccccc"
       id="path553"
       d="m 645.9601,127.53015 h 204.5776 l -0.24288,145.96254 c 1.70136,58.67512 -34.77272,95.08516 -101.88454,111.50182 -47.6587,-11.8648 -102.61258,-36.41004 -102.69342,-109.83792 z"
       inkscape:connector-curvature="0" />
    <path
       style="fill:#a53d08;fill-opacity:1;fill-rule:evenodd;stroke:none;stroke-width:1.00000003pt;stroke-linecap:butt;stroke-linejoin:miter;stroke-opacity:1"
       sodipodi:nodetypes="cccc"
       id="path554"
       d="m 848.95355,290.78178 c -7.44223,56.00829 -50.57674,80.47982 -100.54569,93.46839 -44.23097,-11.86481 -91.815,-30.80692 -101.03895,-93.18684 z"
       inkscape:connector-curvature="0" />
    <path
       d="m 700.3759,154.57752 39.92875,0.14258 -0.28517,-18.39606 14.54613,0.14259 0.14259,18.25347 h 39.78617 l 0.14258,14.26048 -39.92875,0.14259 -0.31901,168.17892 -14.18846,0.0894 -0.18125,-168.41104 -39.65205,0.14271 z"
       id="path559"
       sodipodi:nodetypes="ccccccccccccc"
       style="fill:#000000;fill-opacity:1;fill-rule:evenodd;stroke:none;stroke-width:1.00000003pt;stroke-linecap:butt;stroke-linejoin:miter;stroke-opacity:1"
       inkscape:connector-curvature="0" />
    <path
       d="m 708.09533,297.72255 36.41922,37.78151 c 12.59344,-13.84167 3.85826,-65.57964 -12.70581,-75.1087 -1.98533,6.12635 -5.36146,13.47192 -8.95026,15.84028 -7.89537,5.38079 -27.24349,11.67147 -20.77639,15.70011 1.47491,-2.04211 5.33245,-3.97064 7.14776,0.56792 2.1557,7.1474 -8.05547,7.60174 -8.05547,7.60174 0,0 -6.46698,-0.79509 -7.60162,-7.37577 -1.13453,-6.57948 9.63261,-12.5874 10.55156,-13.04657 0.90759,-0.34076 14.97619,-4.08423 17.35905,-16.56529 2.94959,-12.25389 6.01276,-10.43773 6.58068,-10.66491 18.37903,1.81495 30.40574,34.71835 31.08726,57.8631 0.68029,23.14477 -9.41668,38.46182 -11.23284,39.48288 -1.81494,1.02106 -43.79415,-49.80702 -43.79415,-49.80702 z"
       id="path566"
       sodipodi:nodetypes="cccsccccscccccc"
       style="fill:#ff9a08;fill-opacity:1;fill-rule:evenodd;stroke:#000000;stroke-width:0.80634964;stroke-linecap:butt;stroke-linejoin:miter;stroke-miterlimit:4;stroke-dasharray:none;stroke-opacity:1"
       inkscape:connector-curvature="0" />
    <path
       d="m 734.64473,262.55107 0.22597,68.18725"
       id="path567"
       style="fill:none;fill-opacity:1;fill-rule:evenodd;stroke:#000000;stroke-width:0.80634964;stroke-linecap:butt;stroke-linejoin:miter;stroke-miterlimit:4;stroke-dasharray:none;stroke-opacity:1"
       inkscape:connector-curvature="0" />
    <path
       d="m 730.56051,263.79809 c 0,0.11358 0.22596,61.94853 0.22596,61.94853"
       id="path568"
       sodipodi:nodetypes="cc"
       style="fill:none;fill-opacity:1;fill-rule:evenodd;stroke:#000000;stroke-width:0.80634964;stroke-linecap:butt;stroke-linejoin:miter;stroke-miterlimit:4;stroke-dasharray:none;stroke-opacity:1"
       inkscape:connector-curvature="0" />
    <path
       d="m 726.13552,272.76163 0.22596,49.24032"
       id="path569"
       sodipodi:nodetypes="cc"
       style="fill:none;fill-opacity:1;fill-rule:evenodd;stroke:#000000;stroke-width:0.80634964;stroke-linecap:butt;stroke-linejoin:miter;stroke-miterlimit:4;stroke-dasharray:none;stroke-opacity:1"
       inkscape:connector-curvature="0" />
    <path
       d="m 722.50443,276.27793 0.22717,40.73232"
       id="path570"
       sodipodi:nodetypes="cc"
       style="fill:none;fill-opacity:1;fill-rule:evenodd;stroke:#000000;stroke-width:0.80634964;stroke-linecap:butt;stroke-linejoin:miter;stroke-miterlimit:4;stroke-dasharray:none;stroke-opacity:1"
       inkscape:connector-curvature="0" />
    <path
       d="m 718.64737,278.09408 v 34.3776"
       id="path571"
       style="fill:none;fill-opacity:1;fill-rule:evenodd;stroke:#000000;stroke-width:0.80634964;stroke-linecap:butt;stroke-linejoin:miter;stroke-miterlimit:4;stroke-dasharray:none;stroke-opacity:1"
       inkscape:connector-curvature="0" />
    <path
       d="M 714.44835,280.81771 V 308.0467"
       id="path572"
       style="fill:none;fill-opacity:1;fill-rule:evenodd;stroke:#000000;stroke-width:0.80634964;stroke-linecap:butt;stroke-linejoin:miter;stroke-miterlimit:4;stroke-dasharray:none;stroke-opacity:1"
       inkscape:connector-curvature="0" />
    <path
       d="m 710.81835,282.97341 v 20.87547"
       id="path573"
       style="fill:none;fill-opacity:1;fill-rule:evenodd;stroke:#000000;stroke-width:0.80634964;stroke-linecap:butt;stroke-linejoin:miter;stroke-miterlimit:4;stroke-dasharray:none;stroke-opacity:1"
       inkscape:connector-curvature="0" />
    <path
       d="m 707.52801,302.03394 37.55446,43.00038"
       id="path574"
       style="fill:none;fill-opacity:1;fill-rule:evenodd;stroke:#ffdf00;stroke-width:0.80634964;stroke-linecap:round;stroke-linejoin:miter;stroke-miterlimit:4;stroke-dasharray:none;stroke-opacity:1"
       inkscape:connector-curvature="0" />
    <path
       d="m 746.89741,274.91733 c 0,0 17.01963,37.21481 1.24823,67.84771"
       id="path575"
       sodipodi:nodetypes="cc"
       style="fill:none;fill-opacity:1;fill-rule:evenodd;stroke:#ffdf00;stroke-width:1.51043904;stroke-linecap:round;stroke-linejoin:miter;stroke-dasharray:none;stroke-opacity:1"
       inkscape:connector-curvature="0" />
    <path
       d="m 703.10315,294.20503 c 0,0 1.2481,-3.29034 2.83648,-1.92853"
       id="path576"
       style="fill:none;fill-opacity:1;fill-rule:evenodd;stroke:#ffdf00;stroke-width:1.51043904;stroke-linecap:round;stroke-linejoin:miter;stroke-dasharray:none;stroke-opacity:1"
       inkscape:connector-curvature="0" />
    <path
       d="m 700.15332,284.67477 c 0,0 -6.80749,6.01275 -3.06329,9.87102"
       id="path577"
       sodipodi:nodetypes="cc"
       style="fill:none;fill-opacity:1;fill-rule:evenodd;stroke:#ffdf00;stroke-width:1.51043904;stroke-linecap:round;stroke-linejoin:miter;stroke-dasharray:none;stroke-opacity:1"
       inkscape:connector-curvature="0" />
    <g
       transform="matrix(5.274368,0,0,5.274368,-399.15253,-150.91549)"
       id="g1890">
      <path
         style="fill:#008021;fill-opacity:1;stroke:#000000;stroke-width:0.063"
         d="m 218.788,64.6432 c 0.478,-0.41 0.726,-0.6606 1.022,-0.615 0.296,0.0455 0.699,0.0227 0.995,-0.0684 0.297,-0.0912 1.766,-0.2734 2.37,-0.0684 0.205,0.0228 0.478,0.1368 0.899,0.4899 0.422,0.353 1.037,0.9682 0.832,2.6767 -0.205,1.7085 -0.138,2.4393 -0.228,3.3943 -0.159,1.6858 -0.533,3.0739 -1.207,2.9615 0.911,1.5947 1.002,2.9615 1.594,4.055 0.593,1.0935 0.957,3.326 0.729,5.7408 -0.227,2.4148 -0.865,7.8365 1.048,11.4815 -0.319,0.2278 -1.093,0 -1.777,-0.729 -0.683,-0.729 -0.983,-0.7051 -1.549,-0.2734 -1.731,1.3213 -3.352,2.9138 -5.74,1.3213 -0.547,-0.3645 -0.72,-0.8017 -0.319,-1.9136 1.002,-2.7792 1.489,-6.5924 1.331,-8.3833 z"
         id="path1606"
         inkscape:connector-curvature="0" />
      <path
         style="fill:#ffe1cf;stroke:#000000;stroke-width:0.063"
         d="m 220.43,62.9347 c 0.125,0.3873 0.193,0.8884 -0.012,1.344 -0.205,0.4556 -0.25,1.0024 0.091,1.663 0.547,-0.7745 1.322,-0.615 1.777,-1.0706 0.456,-0.4557 0.547,-0.8885 0.889,-0.9797 -0.342,-0.2961 -0.866,-0.615 -0.752,-1.4807 0.114,-0.8657 1.321,-1.5718 0.228,-2.8932 -0.706,-0.8529 -1.732,-0.615 -2.176,-0.2847 -0.209,0.1552 -0.387,0.3758 -0.455,0.5239 -0.069,0.1481 0.017,0.4851 -0.149,0.6835 -0.113,0.1366 -0.251,0.2725 -0.41,0.3872 -0.102,0.0741 -0.166,0.182 -0.057,0.3076 0.044,0.0502 0.124,0.0609 0.212,0.0914 -0.051,0.1025 -0.109,0.2047 -0.166,0.2788 -0.054,0.0695 -0.031,0.1358 0.034,0.1924 -0.086,0.2733 0.08,0.303 -0.034,0.5081 -0.099,0.1773 -0.233,0.3871 0.137,0.5923 0.102,0.0569 0.587,0.1694 0.843,0.1367 z"
         id="path1626"
         inkscape:connector-curvature="0" />
      <path
         style="fill:#ffe1cf;stroke:#000000;stroke-width:0.063"
         d="m 215.999,67.468 c -0.638,0.1595 -1.663,-0.1138 -2.438,-0.0228 -0.342,0.0404 -0.615,-0.1366 -0.569,-0.4783 0.045,-0.3418 0.091,-0.8657 0.022,-1.3441 -0.106,-0.7455 0.251,-1.7769 0.752,-2.916 0.501,-1.139 0.752,-1.7768 0.752,-2.3122 0,-0.3531 0.034,-0.7518 0.353,-0.9568 0.236,-0.1515 0.281,-0.2986 0.365,-0.4214 0.193,-0.2848 0.375,-0.3531 0.398,-0.1822 0.014,0.1016 -0.023,0.1936 -0.114,0.3303 0.205,-0.1709 0.553,-0.3703 0.632,-0.4272 0.08,-0.0569 0.485,-0.3417 0.507,-0.074 0.16,-0.0797 0.268,-0.0741 0.308,0.0113 0.043,0.0924 0.017,0.1311 -0.063,0.1994 0.114,-0.0228 0.245,0.1766 0.017,0.3531 0.12,-0.0399 0.239,0.1595 0.029,0.3417 -0.218,0.1881 -0.467,0.319 -0.547,0.467 -0.08,0.1481 -0.621,0.5639 -0.837,0.655 -0.217,0.0911 -0.228,0.2161 -0.228,0.5353 0,3.5082 -0.421,3.2232 -0.421,4.0664 0,0.2278 -0.046,0.4328 0.182,0.3644 0.228,-0.0683 0.558,-0.1708 0.9,-0.1708 z"
         id="path1628"
         inkscape:connector-curvature="0" />
      <path
         style="fill:#ffe1cf;stroke:#000000;stroke-width:0.063"
         d="m 216.135,75.0312 c 1.03,-0.5148 2.21,-0.7062 2.825,-0.8656 0.615,-0.1595 1.595,-0.6378 2.073,-0.8884 0.479,-0.2507 0.866,-0.5924 1.139,-0.6835 0.274,-0.0911 0.58,-0.2796 0.752,-0.615 0.888,-1.7314 1.367,-3.1208 1.367,-4.3284 0,-0.7973 -0.205,-1.6858 -0.98,-1.0479 -0.728,0.5996 -1.521,1.7554 -1.731,2.597 -0.319,1.2757 -0.592,1.5491 -0.661,1.7996 -0.068,0.2507 -0.326,0.2504 -0.638,0.319 -1.344,0.2962 -1.663,0.5011 -2.665,1.2529 -1.002,0.7518 -2.096,1.4125 -2.825,1.8225 -0.729,0.4101 -0.865,0.4556 -1.025,0.7859 -0.159,0.3303 -0.307,0.5809 -0.444,0.7291 -0.137,0.148 -0.176,0.3211 -0.148,0.5011 0.023,0.1481 -0.046,0.8315 -0.057,1.0593 -0.012,0.2278 0.045,0.2848 0.137,0.2961 0.091,0.0115 0.216,-0.0341 0.262,-0.3075 -0.046,0.2734 0.33,0.1822 0.353,-0.0227 -0.012,0.2961 0.387,0.1253 0.41,-0.1481 0,0.1936 0.302,0.0597 0.33,-0.0342 0.068,-0.2278 0.125,-0.4784 0.216,-0.6606 0.133,-0.2645 0.275,-0.6071 0.536,-0.7974 0.296,-0.2164 0.159,-0.4556 0.774,-0.7632 z"
         id="path1630"
         inkscape:connector-curvature="0" />
      <path
         style="fill:#ffe1cf;stroke:#000000;stroke-width:0.063"
         d="m 223.516,93.6887 c 0.069,0.2506 0.194,0.5354 0.239,0.7063 0.046,0.1708 -0.034,0.2241 -0.079,0.3189 -0.239,0.5012 -0.496,1.3001 -0.536,1.7313 -0.022,0.2506 -0.193,0.4898 -0.273,0.6379 -0.088,0.1633 -0.054,0.2893 0.148,0.4442 0.097,0.074 0.41,-0.0228 0.444,-0.1822 0.114,0.1138 0.319,0.0683 0.41,-0.1026 0.103,0.1026 0.274,0.0342 0.388,-0.1366 0.102,0.0683 0.25,-0.0684 0.307,-0.1596 0.16,0.0798 0.331,-0.017 0.336,-0.3302 0.001,-0.0629 0.04,-0.1709 0.086,-0.2449 0.045,-0.0741 0.062,-0.2164 0.057,-0.3418 -0.006,-0.1253 0.074,-0.3758 0.182,-0.5524 0.108,-0.1766 0.296,-0.4898 0.216,-0.7859 -0.074,-0.2759 -0.193,-0.2506 -0.296,-0.6492 -0.25,-0.2621 -0.592,-0.6266 -0.945,-0.6494 -0.353,-0.0227 -0.558,0.2165 -0.684,0.2962 z"
         id="path1632"
         inkscape:connector-curvature="0" />
      <path
         style="fill:#ffe1cf;stroke:#000000;stroke-width:0.063"
         d="m 217.035,95.6479 c 0.319,0.3189 1.037,0.3303 1.538,-0.2051 -0.182,-0.0797 -0.581,-0.262 -0.763,-0.41 -0.251,0.2506 -0.536,0.5353 -0.775,0.6151 z"
         id="path1634"
         inkscape:connector-curvature="0" />
      <path
         style="fill:#870f00;stroke:#000000;stroke-width:0.063"
         d="m 220.259,59.4264 c 0.125,-0.8087 0.698,-0.7896 1.059,-0.7062 0.148,0.0342 0.513,0.0683 0.854,-0.0228 0.676,-0.1801 1.185,0.057 1.117,0.7063 0.182,0.1366 0.375,0.4555 0.341,0.729 -0.034,0.2733 0.023,0.3872 0.274,0.4213 0.25,0.0343 0.786,0.3418 0.432,0.7746 0.342,0.2051 0.604,0.729 0.422,1.0821 -0.182,0.3531 -0.729,0.4101 -0.957,0.0911 -0.25,0.1139 -0.661,0.1367 -0.911,-0.1252 -0.171,0.2049 -0.604,0.1822 -0.684,0 -0.079,-0.1823 -0.214,-0.2798 -0.375,-0.3304 -0.183,-0.0569 -0.194,-0.5581 0.079,-0.6151 -0.034,-0.1481 -0.022,-0.3189 0.046,-0.3986 0.068,-0.0797 0.011,-0.2278 -0.148,-0.3532 -0.16,-0.1253 -0.296,-0.6037 -0.137,-0.8656 -0.273,0.0911 -0.877,-0.1709 -1.002,-0.3531 -0.126,-0.1823 -0.296,-0.1936 -0.41,-0.0342 z"
         id="path1636"
         inkscape:connector-curvature="0" />
      <path
         style="fill:none;stroke:#000000;stroke-width:0.063"
         d="m 220.43,62.9347 c 0.444,-0.057 0.592,-0.3303 0.922,-0.3076"
         id="path1638"
         inkscape:connector-curvature="0" />
      <path
         style="fill:none;stroke:#000000;stroke-width:0.063"
         d="m 219.484,61.6976 c 0.029,0.0256 0.066,0.0465 0.108,0.0696 0.09,0.0486 0.188,0.0542 0.279,0.0655"
         id="path1640"
         inkscape:connector-curvature="0" />
      <path
         style="fill:none;stroke:#000000;stroke-width:0.063"
         d="m 219.616,61.2264 c 0.062,0.0214 0.128,0.0526 0.187,0.1136"
         id="path1642"
         inkscape:connector-curvature="0" />
      <path
         style="fill:none;stroke:#000000;stroke-width:0.063"
         d="m 220.646,59.4264 c -0.262,-0.2506 0.444,-0.7631 1.185,-0.0342 0.138,0.1361 0.489,0.1368 0.592,0.1025"
         id="path1644"
         inkscape:connector-curvature="0" />
      <path
         style="fill:none;stroke:#000000;stroke-width:0.063"
         d="m 221.671,59.8137 c 0.342,-0.0798 0.854,-0.0798 1.002,0.3075 0.149,0.3873 0.445,0.1367 0.684,0.5924 0.239,0.4556 0.615,0.9681 0.979,0.615"
         id="path1646"
         inkscape:connector-curvature="0" />
      <path
         style="fill:none;stroke:#000000;stroke-width:0.063"
         d="m 222.89,62.3766 c -0.103,-0.1367 -0.148,-0.4329 -0.08,-0.638 -0.137,-0.1594 -0.08,-0.4897 0,-0.6492"
         id="path1648"
         inkscape:connector-curvature="0" />
      <path
         style="fill:none;stroke:#000000;stroke-width:0.063"
         d="m 221.91,61.4311 c 0.012,0.1367 0.194,0.3873 0.479,0.4328"
         id="path1650"
         inkscape:connector-curvature="0" />
      <path
         style="fill:none;stroke:#000000;stroke-width:0.063"
         d="m 223.801,62.5018 c -0.159,-0.205 -0.137,-0.3872 -0.102,-0.6379"
         id="path1652"
         inkscape:connector-curvature="0" />
      <path
         style="fill:none;stroke:#000000;stroke-width:0.063"
         d="m 222.138,60.2352 c -0.011,0.205 0.114,0.4784 0.33,0.5695 0.046,0.1138 0.274,0.4328 0.729,0.3873"
         id="path1654"
         inkscape:connector-curvature="0" />
      <path
         style="fill:none;stroke:#000000;stroke-width:0.063"
         d="m 223.289,59.4037 c -0.25,-0.194 -0.589,-0.433 -1.037,-0.4921"
         id="path1656"
         inkscape:connector-curvature="0" />
      <path
         style="fill:none;stroke:#000000;stroke-width:0.063"
         d="m 220.509,65.9417 c -0.387,0.524 -0.638,1.2529 -0.455,2.2781 0.182,1.0252 0.478,2.5287 -0.274,3.2121"
         id="path1658"
         inkscape:connector-curvature="0" />
      <path
         style="fill:none;stroke:#000000;stroke-width:0.063"
         d="m 223.471,73.4138 c -0.524,-0.1138 -1.276,-0.1138 -1.686,0.1823 -0.41,0.2961 -1.094,0.3189 -1.549,0.0911"
         id="path1660"
         inkscape:connector-curvature="0" />
      <path
         style="fill:none;stroke:#000000;stroke-width:0.063"
         d="m 222.366,73.3797 c -0.456,0.0797 -0.672,0.3986 -0.672,1.2415 0,0.8429 -0.182,2.073 -0.023,3.2804"
         id="path1662"
         inkscape:connector-curvature="0" />
      <path
         style="fill:none;stroke:#000000;stroke-width:0.063"
         d="m 221.534,73.7328 c -0.296,0.0797 -0.603,0.091 -0.546,0.8884"
         id="path1664"
         inkscape:connector-curvature="0" />
      <path
         style="fill:none;stroke:#000000;stroke-width:0.063"
         d="m 219.997,74.644 c 0.011,-0.4898 0.182,-0.9454 0.501,-0.8657"
         id="path1666"
         inkscape:connector-curvature="0" />
      <path
         style="fill:none;stroke:#000000;stroke-width:0.063"
         d="m 223.277,74.7351 c 0.023,-1.0821 -0.216,-1.3896 -0.535,-1.3782 0.433,0.0114 0.728,0.0643 0.911,1.8338 0.137,1.3213 0.413,1.789 0.729,2.8249 0.82,2.6881 0.41,6.8342 0.82,8.2922"
         id="path1668"
         inkscape:connector-curvature="0" />
      <path
         style="fill:none;stroke:#000000;stroke-width:0.063"
         d="m 222.651,75.054 c 0.865,2.506 1.321,5.2852 -0.091,9.7502 0.956,2.6426 1.913,4.5561 2.095,5.6497"
         id="path1670"
         inkscape:connector-curvature="0" />
      <path
         style="fill:none;stroke:#000000;stroke-width:0.063"
         d="m 219.917,80.977 c 0.159,-0.5694 -0.41,-0.6378 0.091,-2.6425 0.217,-0.8684 0.251,-1.3896 0.114,-1.663"
         id="path1672"
         inkscape:connector-curvature="0" />
      <path
         style="fill:none;stroke:#000000;stroke-width:0.063"
         d="m 220.122,77.8561 c -0.205,0.8885 0.661,2.5515 0.228,3.7588"
         id="path1674"
         inkscape:connector-curvature="0" />
      <path
         style="fill:none;stroke:#000000;stroke-width:0.063"
         d="m 219.279,81.8427 c 0,0.7745 0.182,1.7769 0.137,2.5515 -0.046,0.7745 0.27,1.1334 0.638,1.868 1.321,2.6426 2.22,4.528 2.095,7.0165 -0.022,0.4556 0.137,1.4124 -0.341,1.6857"
         id="path1676"
         inkscape:connector-curvature="0" />
      <path
         style="fill:none;stroke:#000000;stroke-width:0.063"
         d="m 219.313,95.6365 c 0.137,0.0114 0.285,-0.0569 0.456,-0.467 0.171,-0.4101 0.718,-2.8704 0.49,-4.5562"
         id="path1678"
         inkscape:connector-curvature="0" />
      <path
         style="fill:none;stroke:#000000;stroke-width:0.063"
         d="m 220.532,92.5269 c 0.068,0.5239 0.068,1.5946 -0.273,2.4375"
         id="path1680"
         inkscape:connector-curvature="0" />
      <path
         style="fill:none;stroke:#000000;stroke-width:0.063"
         d="m 221.398,90.955 c 0.205,1.1163 0.182,2.1187 0.023,2.8248"
         id="path1682"
         inkscape:connector-curvature="0" />
      <path
         style="fill:none;stroke:#000000;stroke-width:0.063"
         d="m 220.942,93.7798 c 0.023,0.4556 0.228,1.5947 -0.114,1.6859"
         id="path1684"
         inkscape:connector-curvature="0" />
      <path
         style="fill:none;stroke:#000000;stroke-width:0.063"
         d="m 222.651,88.4947 c 0.842,1.3213 1.503,4.579 2.209,5.2623"
         id="path1686"
         inkscape:connector-curvature="0" />
      <path
         style="fill:none;stroke:#000000;stroke-width:0.063"
         d="m 223.38,93.2331 c -0.023,-0.3645 -0.046,-0.8656 -0.251,-1.0935"
         id="path1688"
         inkscape:connector-curvature="0" />
      <path
         style="fill:none;stroke:#000000;stroke-width:0.063"
         d="m 214.279,77.2866 c 0.011,-0.2507 -0.034,-0.4899 0.239,-0.8771"
         id="path1690"
         inkscape:connector-curvature="0" />
      <path
         style="fill:none;stroke:#000000;stroke-width:0.063"
         d="m 213.869,77.4347 c 0.034,-0.8771 0.022,-0.9569 0.273,-1.1961"
         id="path1692"
         inkscape:connector-curvature="0" />
      <path
         style="fill:none;stroke:#000000;stroke-width:0.063"
         d="m 213.516,77.4574 c 0.011,-0.6264 -0.069,-0.8429 0.182,-1.2416"
         id="path1694"
         inkscape:connector-curvature="0" />
      <path
         style="fill:none;stroke:#000000;stroke-width:0.063"
         d="m 216.659,58.6633 c -0.097,0.0626 -0.666,0.4954 -0.905,0.6777"
         id="path1696"
         inkscape:connector-curvature="0" />
      <path
         style="fill:none;stroke:#000000;stroke-width:0.063"
         d="m 216.904,58.874 c -0.108,0.017 -0.421,0.2734 -0.979,0.7062"
         id="path1698"
         inkscape:connector-curvature="0" />
      <path
         style="fill:none;stroke:#000000;stroke-width:0.063"
         d="m 216.921,59.2271 c -0.176,0.0797 -0.512,0.4044 -0.82,0.6208"
         id="path1700"
         inkscape:connector-curvature="0" />
      <path
         style="fill:none;stroke:#000000;stroke-width:0.063"
         d="m 215.52,59.1645 c -0.085,0.0626 -0.25,0.2449 -0.33,0.3075"
         id="path1702"
         inkscape:connector-curvature="0" />
      <path
         style="fill:none;stroke:#000000;stroke-width:0.063"
         d="m 223.459,97.3451 c -0.051,-0.057 -0.051,-0.2564 0.04,-0.4784"
         id="path1704"
         inkscape:connector-curvature="0" />
      <path
         style="fill:none;stroke:#000000;stroke-width:0.063"
         d="m 223.869,97.2425 c -0.062,-0.0626 0,-0.336 0.063,-0.5126"
         id="path1706"
         inkscape:connector-curvature="0" />
      <path
         style="fill:none;stroke:#000000;stroke-width:0.063"
         d="m 224.257,97.1059 c -0.074,-0.0342 -0.097,-0.1937 0.011,-0.4101"
         id="path1708"
         inkscape:connector-curvature="0" />
      <path
         style="fill:none;stroke:#000000;stroke-width:0.063"
         d="m 224.564,96.9463 c -0.051,-0.017 -0.074,-0.1025 0.017,-0.353"
         id="path1710"
         inkscape:connector-curvature="0" />
      <g
         id="g1712">
        <path
           style="fill:#000000;stroke:none"
           d="m 220.082,60.144 c 0.165,0.2164 0.336,0.1935 0.366,0.333 0.03,0.1397 0.052,0.1496 0.084,0.191 0.032,0.0413 -0.078,0.033 -0.132,0.0107 -0.053,-0.0223 -0.187,-0.02 -0.269,-0.0188 -0.081,0.0012 -0.178,-0.0946 -0.117,-0.1059 0.06,-0.0112 0.052,-0.0301 0.043,-0.0726 -0.009,-0.0424 0.034,-0.1095 0.059,-0.1218 0.026,-0.0123 0.008,-0.01 -0.015,-0.0669 -0.024,-0.057 -0.054,-0.1953 -0.019,-0.1487 z"
           id="path1714"
           inkscape:connector-curvature="0" />
        <path
           style="fill:#000000;stroke:none"
           d="m 220.182,59.9458 c 0.185,0.0217 0.504,0.1216 0.677,0.3131 0.136,0.1506 0.025,0.1107 -0.044,0.1163 -0.069,0.0058 -0.204,-0.0431 -0.272,-0.1287 -0.067,-0.0855 -0.268,-0.1939 -0.375,-0.2221 -0.065,-0.0168 -0.126,-0.0951 0.014,-0.0786 z"
           id="path1716"
           inkscape:connector-curvature="0" />
      </g>
    </g>
    <path
       d="m 645.9601,127.53015 h 204.5776 l -0.24288,145.96254 c 1.70136,58.67512 -34.77272,95.08516 -101.88454,111.50182 -47.6587,-11.8648 -102.61258,-36.41004 -102.69342,-109.83792 z"
       id="path3065"
       sodipodi:nodetypes="cccccc"
       style="fill:none;fill-opacity:1;fill-rule:evenodd;stroke:#000000;stroke-width:2.00432324;stroke-linecap:butt;stroke-linejoin:miter;stroke-miterlimit:4;stroke-dasharray:none;stroke-opacity:1"
       inkscape:connector-curvature="0" />
  </g>
</svg>
