<svg width="42" height="22" viewBox="0 0 42 22" fill="none" xmlns="http://www.w3.org/2000/svg">
<g id="Layer_1" clip-path="url(#clip0_1044_5264)">
<path id="Vector" d="M0.839927 13.81C-0.160073 12.89 -0.390073 12.16 0.839927 11.37C2.21993 10.49 1.96993 9.67004 0.909927 8.71004C0.559927 8.39004 -0.310073 7.92004 0.369927 7.36004C1.00993 6.84004 1.25993 7.81004 1.65993 8.13004C2.28993 8.63004 2.47993 9.77004 3.82993 8.96004C5.41993 8.00004 5.17993 7.18004 4.21993 6.01004C3.95993 5.69004 3.24993 5.16004 3.92993 4.73004C4.54993 4.33004 4.68993 5.20004 5.05993 5.50004C5.68993 6.01004 5.46993 7.61004 7.08993 6.92004C8.56993 6.29004 9.03993 5.54004 8.04993 4.15004C7.89993 3.90004 7.77993 3.64004 7.68993 3.36004C7.64993 3.30004 7.61993 3.23004 7.60993 3.16004C7.59993 3.09004 7.59993 3.02004 7.60993 2.95004C7.62993 2.88004 7.65993 2.81004 7.69993 2.75004C7.73993 2.69004 7.79993 2.64004 7.85993 2.61004C8.19993 2.41004 8.40993 2.67004 8.54993 2.92004C8.78993 3.31004 8.98993 3.74004 9.12993 4.18004C9.44993 5.45004 10.0899 5.54004 11.2799 5.15004C12.6699 4.69004 12.4399 4.00004 12.1299 2.96004C11.9699 2.41004 11.1699 1.46004 12.0699 1.18004C12.9299 0.920037 12.8199 2.09004 13.0199 2.67004C13.3599 3.62004 13.3399 4.68004 15.0099 4.20004C16.1999 3.86004 16.4499 3.49004 16.2699 2.36004C16.1599 1.69004 15.5099 0.460037 16.5599 0.330037C17.3999 0.230037 17.0999 1.55004 17.1699 2.22004C17.2999 3.44004 17.7599 3.84004 19.0499 3.77004C20.3499 3.70004 20.4199 3.05004 20.3699 2.10004C20.3499 1.75004 20.3499 1.41004 20.3799 1.06004C20.4199 0.630037 20.2799 -0.0299626 20.9399 0.0100374C21.6099 0.0500374 21.3199 0.720037 21.3599 1.13004C21.3999 1.48004 21.3899 1.82004 21.3499 2.17004C21.1799 3.35004 21.6099 3.74004 22.8399 3.83004C24.0699 3.92004 24.4499 3.57004 24.5699 2.40004C24.6399 1.68004 24.4599 0.260037 25.3299 0.400037C26.4399 0.580037 25.5599 1.75004 25.4699 2.45004C25.3399 3.53004 25.2799 4.19004 26.6899 4.55004C28.1599 4.92004 28.3199 4.19004 28.6399 3.20004C28.8499 2.54004 28.8499 1.21004 29.6099 1.46004C30.6399 1.79004 29.7599 2.86004 29.5099 3.48004C29.0099 4.73004 29.3099 5.24004 30.5599 5.79004C31.9699 6.41004 32.0499 5.49004 32.5199 4.71004C32.8899 4.08004 32.9799 2.65004 33.8599 3.09004C34.7799 3.54004 33.6899 4.52004 33.3599 5.10004C32.7099 6.26004 32.8599 6.78004 34.0199 7.50004C35.3099 8.30004 35.5599 7.46004 36.1499 6.75004C36.6199 6.18004 36.8899 4.76004 37.6899 5.30004C38.5199 5.86004 37.3299 6.67004 36.9199 7.24004C36.2299 8.19004 36.0899 8.73004 37.1599 9.61004C38.3199 10.57 38.7499 9.95004 39.4899 9.22004C39.9899 8.72004 40.4799 7.36004 41.2299 8.07004C41.8799 8.69004 40.5999 9.32004 40.1299 9.88004C39.5099 10.61 38.8599 11.11 39.9199 12.1C40.6499 12.78 39.7299 13.34 39.2599 13.77C34.0499 18.75 27.0999 21.5 19.8899 21.44C12.7899 21.41 5.97993 18.68 0.819927 13.8L0.839927 13.81ZM24.2099 19.64C29.2299 18.79 33.9199 16.55 37.7299 13.17C38.0999 12.84 38.3899 12.54 37.8499 12.05C34.1099 8.66004 29.4799 6.41004 24.5099 5.55004C29.2299 11.51 29.2199 14.81 24.2099 19.64ZM2.46993 11.84C1.77993 12.44 1.94993 12.79 2.55993 13.33C5.64993 16.07 9.33993 18.03 13.3399 19.05C14.0499 19.23 14.7699 19.69 15.6899 19.38C10.8099 14.93 10.7799 10.87 15.7599 5.49004C10.8299 6.35004 6.23993 8.55004 2.46993 11.84ZM20.0399 6.05004C19.1899 6.05004 18.3399 6.23004 17.5599 6.56004C16.7699 6.89004 16.0599 7.37004 15.4599 7.98004C14.8599 8.59004 14.3899 9.31004 14.0699 10.1C13.7499 10.89 13.5899 11.74 13.5999 12.59C13.5999 13.44 13.7699 14.28 14.0999 15.07C14.4299 15.86 14.9099 16.57 15.5099 17.17C16.1099 17.77 16.8299 18.25 17.6199 18.57C18.4099 18.89 19.2499 19.06 20.0999 19.06C21.8199 19.05 23.4699 18.35 24.6799 17.13C25.8899 15.91 26.5799 14.26 26.5799 12.54C26.5599 10.82 25.8699 9.18004 24.6499 7.97004C23.4299 6.76004 21.7899 6.07004 20.0699 6.06004H20.0499L20.0399 6.05004ZM18.1199 17.49C17.0599 17.07 16.1699 16.33 15.5699 15.37C14.9699 14.41 14.6899 13.28 14.7799 12.15C14.8199 11.75 14.5999 10.83 15.4999 11.29C16.6099 11.86 17.5099 11.77 18.2999 10.87C19.2699 9.77004 18.6599 8.74004 17.9599 7.76004C20.4499 6.79004 22.7899 7.39004 24.2399 9.28004C24.9699 10.19 25.3699 11.31 25.3899 12.48C25.3999 13.64 25.0199 14.78 24.3099 15.7C23.8299 16.36 23.1899 16.9 22.4599 17.28C21.7299 17.65 20.9199 17.85 20.0999 17.86C19.4199 17.86 18.7499 17.73 18.1199 17.48V17.49Z" fill="#1A428A"/>
</g>
<defs>
<clipPath id="clip0_1044_5264">
<rect width="41.43" height="21.44" fill="white"/>
</clipPath>
</defs>
</svg>
