<svg width="17" height="17" viewBox="0 0 17 17" fill="none" xmlns="http://www.w3.org/2000/svg">
<path d="M16.72 11.8602C16.72 13.0002 16.7 14.1502 16.72 15.2902C16.74 16.0602 16.44 16.4602 15.64 16.4502C14.66 16.4402 13.69 16.4502 12.71 16.4502C12.29 16.4502 11.85 16.3602 11.76 15.9302C11.61 15.1902 11.24 15.4502 10.8 15.5802C8.43002 16.2102 5.95002 16.2902 3.55002 15.8102C2.24002 15.5702 1.89002 14.9902 1.93002 13.5102C1.93002 13.3902 1.88002 13.2702 1.81002 13.1702C1.74002 13.0602 1.63002 12.9802 1.55002 12.8802C1.39002 12.6702 0.630019 9.62019 0.710019 9.38019C0.820019 9.08019 0.710019 8.91019 0.490019 8.71019C0.270019 8.54019 0.110019 8.30019 0.0400193 8.03019C-0.0299807 7.76019 -0.00998066 7.47019 0.110019 7.21019C0.370019 6.59019 0.930019 6.52019 1.50002 6.52019C2.70002 6.52019 3.91002 6.54019 5.11002 6.53019C6.44002 6.52019 6.56002 6.39019 6.25002 5.12019C5.89002 3.75019 6.04002 2.30019 6.66002 1.02019C6.81002 0.620188 7.11002 0.290188 7.50002 0.100188C8.29002 -0.209812 9.10002 0.250188 9.07002 1.12019C8.98002 3.39019 10.07 5.20019 11.17 7.01019C11.38 7.36019 11.52 7.78019 12.07 7.22019C12.55 6.74019 13.31 6.94019 13.95 6.94019C16.87 6.97019 16.76 6.76019 16.73 9.70019C16.73 10.4202 16.73 11.1402 16.73 11.8602H16.72ZM11.68 11.5202H11.66C11.66 10.9002 11.63 10.2802 11.66 9.66019C11.71 8.92019 11.46 8.20019 10.97 7.65019C9.60002 5.85019 8.47002 3.90019 8.51002 1.50019C8.51002 1.14019 8.56002 0.740188 8.09002 0.620188C7.61002 0.500188 7.40002 0.840188 7.21002 1.21019C6.55002 2.49019 6.52002 3.82019 6.84002 5.21019C7.16002 6.63019 6.76002 7.08019 5.32002 7.08019C4.02002 7.08019 2.72002 7.07019 1.41002 7.08019C1.04002 7.08019 0.660019 7.13019 0.590019 7.59019C0.520019 8.06019 0.810019 8.31019 1.18002 8.50019C1.48002 8.62019 1.81002 8.67019 2.14002 8.64019C3.08002 8.64019 4.03002 8.64019 4.97002 8.64019C5.19002 8.64019 5.50002 8.58019 5.53002 8.88019C5.56002 9.28019 5.20002 9.20019 4.96002 9.20019C3.98002 9.20019 3.01002 9.20019 2.03002 9.19019C1.65002 9.19019 1.29002 9.24019 1.20002 9.69019C1.17002 9.87019 1.20002 10.0502 1.27002 10.2102C1.35002 10.3702 1.48002 10.5102 1.64002 10.5902C1.95002 10.7802 2.30002 10.8602 2.66002 10.8202C3.70002 10.8202 4.74002 10.8202 5.79002 10.8202C6.01002 10.8202 6.29002 10.8302 6.25002 11.1702C6.22002 11.4302 5.95002 11.3902 5.78002 11.3902C4.71002 11.3902 3.63002 11.3902 2.56002 11.3902C2.21002 11.3902 1.89002 11.4402 1.78002 11.8202C1.66002 12.2302 1.90002 12.5002 2.20002 12.7302C2.50002 12.9302 2.86002 13.0202 3.22002 12.9902C4.39002 12.9902 5.56002 12.9802 6.74002 12.9902C6.99002 12.9902 7.35002 12.9302 7.34002 13.3002C7.33002 13.6702 6.95002 13.5602 6.72002 13.5702C5.58002 13.5802 4.44002 13.5702 3.30002 13.5702C2.93002 13.5702 2.55002 13.5602 2.41002 13.9802C2.24002 14.4602 2.59002 14.7102 2.92002 14.9202C3.13002 15.0702 3.37002 15.1802 3.63002 15.2402C6.03002 15.7102 8.51002 15.6302 10.88 14.9902C11.53 14.8102 11.75 14.4502 11.71 13.7902C11.66 13.0402 11.7 12.2802 11.7 11.5302L11.68 11.5202Z" fill="#1A428A"/>
</svg>
