<svg xmlns="http://www.w3.org/2000/svg" width="20" height="20" viewBox="0 0 20 20">
  <path id="noun-360-4557261" d="M96.51,13.461c2.043,0,3.695,2.255,4.489,5.512,3.256.793,5.512,2.445,5.512,4.488,0,2.891-4.519,5-10,5a20.039,20.039,0,0,1-3.119-.238c.7,2.409,1.88,3.988,3.119,3.988.875,0,1.789-.823,2.512-2.356a.625.625,0,1,1,1.13.534c-.907,1.923-2.183,3.072-3.643,3.072-2.043,0-3.695-2.255-4.488-5.512-3.256-.794-5.512-2.446-5.512-4.488,0-1.459,1.149-2.735,3.072-3.643a.625.625,0,0,1,.534,1.13c-1.532.723-2.355,1.637-2.355,2.512,0,1.239,1.579,2.424,3.988,3.119a20.08,20.08,0,0,1-.238-3.119c0-5.481,2.108-10,5-10Zm0,1.25c-1.941,0-3.75,3.877-3.75,8.75a18.371,18.371,0,0,0,.315,3.435,18.349,18.349,0,0,0,3.435.315c4.874,0,8.75-1.809,8.75-3.75,0-1.239-1.579-2.424-3.988-3.119a20.082,20.082,0,0,1,.238,3.119c0,.412-.016.832-.046,1.319a.625.625,0,1,1-1.247-.078c.015-.231.025-.446.033-.65l.011-.591a18.372,18.372,0,0,0-.315-3.435,18.35,18.35,0,0,0-3.435-.315c-.383,0-.778.015-1.241.044a.625.625,0,0,1-.078-1.247c.487-.031.907-.046,1.319-.046a20.038,20.038,0,0,1,3.119.238c-.7-2.409-1.88-3.988-3.119-3.988Zm0,6.25a2.5,2.5,0,1,1-2.5,2.5A2.5,2.5,0,0,1,96.51,20.961Zm0,1.25a1.25,1.25,0,1,0,1.25,1.25A1.25,1.25,0,0,0,96.51,22.211Z" transform="translate(-86.51 -13.461)" fill="#1f72fc"/>
</svg>
