<svg xmlns="http://www.w3.org/2000/svg" width="24.83" height="20" viewBox="0 0 24.83 20">
  <path id="icons8-twitter" d="M30.827,11.365a10.33,10.33,0,0,1-2.929.8,5.089,5.089,0,0,0,2.242-2.8A10.227,10.227,0,0,1,26.9,10.592,5.081,5.081,0,0,0,18.228,15.2a14.517,14.517,0,0,1-10.5-5.279,4.987,4.987,0,0,0-.69,2.542,5.038,5.038,0,0,0,2.266,4.2,5.186,5.186,0,0,1-2.31-.63V16.1a5.064,5.064,0,0,0,4.085,4.952,5.066,5.066,0,0,1-1.339.181,5.413,5.413,0,0,1-.96-.093,5.1,5.1,0,0,0,4.757,3.508,10.293,10.293,0,0,1-6.327,2.161A10.077,10.077,0,0,1,6,26.734,14.558,14.558,0,0,0,13.807,29,14.329,14.329,0,0,0,28.3,14.632c0-.219-.007-.437-.017-.652a10.022,10.022,0,0,0,2.543-2.615" transform="translate(-5.997 -9)" fill="#03a9f4"/>
</svg>
