<svg xmlns="http://www.w3.org/2000/svg" width="20" height="13.835" viewBox="0 0 20 13.835">
  <g id="youtube-3_1_" data-name="youtube-3 (1)" transform="translate(-781.384 976.881)">
    <path id="Path_13848" data-name="Path 13848" d="M261.366,573.441l-4.1-.075a21.416,21.416,0,0,1-3.963-.245c-1.981-.4-2.122-2.39-2.269-4.054a28.441,28.441,0,0,1,.258-7.044,2.408,2.408,0,0,1,2.376-2.164,131.307,131.307,0,0,1,13.309-.127,9.6,9.6,0,0,1,1.4.167c2.272.4,2.327,2.647,2.475,4.541a25.739,25.739,0,0,1-.2,5.735c-.225,1.573-.656,2.892-2.475,3.019-2.279.167-4.5.3-6.79.258C261.385,573.441,261.372,573.441,261.366,573.441Zm-2.412-3.982c1.717-.986,3.4-1.955,5.109-2.935-1.72-.986-3.4-1.955-5.109-2.935Z" transform="translate(530.461 -1536.506)" fill="red"/>
  </g>
</svg>
