<svg id="linkedin-icon-2" xmlns="http://www.w3.org/2000/svg" width="20" height="20" viewBox="0 0 20 20">
  <path id="Path_13849" data-name="Path 13849" d="M0,1.433A1.456,1.456,0,0,1,1.478,0H18.522A1.456,1.456,0,0,1,20,1.433V18.568A1.456,1.456,0,0,1,18.522,20H1.478A1.456,1.456,0,0,1,0,18.568V1.432Z" fill="#069"/>
  <path id="Path_13850" data-name="Path 13850" d="M40.338,56.473v-8.8H37.4v8.8h2.935Zm-1.467-10a1.642,1.642,0,1,0-.019,0h.019Zm3.091,10H44.9V51.558a2,2,0,0,1,.1-.714,1.605,1.605,0,0,1,1.506-1.07c1.062,0,1.487.807,1.487,1.99v4.708h2.934V51.426c0-2.7-1.448-3.962-3.378-3.962a2.925,2.925,0,0,0-2.664,1.483h.02V47.671H41.962c.038.826,0,8.8,0,8.8Z" transform="translate(-34.191 -39.883)" fill="#fff"/>
</svg>
