<svg xmlns="http://www.w3.org/2000/svg" viewBox="0 0 32 32" id="tumblr"><linearGradient id="a" x1="16" x2="16" y1="32" y2="0" gradientUnits="userSpaceOnUse"><stop offset="0" stop-color="#ff2d76"></stop><stop offset="1" stop-color="#fb0000"></stop></linearGradient><path fill="url(#a)" d="M17 0v8h8v5h-8v8c0 1.858.177 3.35.374 3.878.197.526.562.946 1.099 1.264.711.426 1.52.64 2.434.64 1.623 0 3.511-.552 5.094-1.781v5c-1.333.834-2.862 1.352-3.973 1.611a15.906 15.906 0 0 1-3.602.388c-1.349 0-2.652-.148-3.886-.556-1.127-.37-1.756-.78-2.552-1.463-.794-.686-1.181-1.374-1.488-2.147-.307-.769-.5-2.368-.5-3.834V13H6V8c1.281-.094 2.34-.455 3.234-1.216a8.755 8.755 0 0 0 2.162-2.754C11.941 2.958 12 1.646 12 0h5z"></path></svg>