<svg width="198" height="55" viewBox="0 0 198 55" fill="none" xmlns="http://www.w3.org/2000/svg">
<path d="M52.7426 52.4951H54.0498C54.1266 53.5673 55.0463 53.8138 56.0506 53.8138C58.0822 53.8138 58.4807 52.1833 58.8972 50.585L58.8663 50.5538C58.5902 50.9534 58.2181 51.2756 57.7848 51.4902C57.3516 51.7048 56.8713 51.8049 56.3892 51.781C54.4204 51.781 53.4001 50.3667 53.4001 48.4616C53.4001 46.0847 54.9535 43.5057 57.5391 43.5057C58.0783 43.4624 58.6166 43.5984 59.0721 43.8928C59.5276 44.1872 59.8752 44.6239 60.0619 45.1363V45.1684H60.0928L60.34 43.6928H61.5706L60.1388 50.5578C59.9904 51.3027 59.7847 52.0348 59.5239 52.7475C59.2418 53.4647 58.7372 54.0704 58.0855 54.4737C57.4338 54.877 56.6701 55.0562 55.9091 54.9846C54.2969 54.9806 52.7884 54.2815 52.7426 52.4951ZM54.7115 48.4565C54.6833 48.7313 54.7131 49.0091 54.7988 49.2715C54.8846 49.5338 55.0245 49.7748 55.2092 49.9787C55.3939 50.1826 55.619 50.3447 55.8701 50.4544C56.1213 50.5641 56.3927 50.6188 56.6663 50.6151C58.6342 50.6151 59.5557 48.3781 59.5557 46.7637C59.5881 46.4845 59.5585 46.2014 59.4686 45.9354C59.3787 45.6693 59.231 45.4269 59.0364 45.2259C58.8417 45.0249 58.605 44.8702 58.3436 44.7734C58.0821 44.6766 57.8025 44.6401 57.5253 44.6665C55.6959 44.6715 54.7115 46.9849 54.7115 48.4565ZM147.39 47.1207C147.39 43.5328 149.667 40.3644 153.42 40.3644C156.267 40.3644 158.003 42.5229 158.003 45.2719C158.003 48.7522 155.757 51.9831 152.095 51.9831C149.098 51.9831 147.39 50.1806 147.39 47.1207ZM148.851 47.1207C148.851 49.2642 149.898 50.7419 152.098 50.7419C155.006 50.7419 156.545 47.9154 156.545 45.274C156.545 43.2231 155.449 41.6086 153.421 41.6086C150.359 41.6066 148.851 44.4492 148.851 47.1207ZM158.715 49.8366C158.743 49.3078 158.821 48.7827 158.946 48.2684L159.914 43.6868H161.222L160.206 48.3771C160.116 48.7866 160.054 49.202 160.022 49.6203C160.022 50.3807 160.638 50.7389 161.406 50.7389C162.101 50.6869 162.759 50.4017 163.275 49.9287C163.791 49.4557 164.135 48.8221 164.254 48.1287L165.176 43.6868H166.485L164.808 51.7166H163.545L163.791 50.5095H163.762C163.429 50.9479 163.001 51.3025 162.51 51.5451C162.019 51.7877 161.478 51.9118 160.932 51.9077C159.433 51.9057 158.711 51.2529 158.711 49.8386L158.715 49.8366ZM83.8029 49.8366C83.8311 49.3078 83.9084 48.7827 84.034 48.2684L85.0024 43.6868H86.3106L85.2952 48.3771C85.2047 48.7866 85.1433 49.202 85.1111 49.6203C85.1111 50.3807 85.7268 50.7389 86.496 50.7389C87.1908 50.6868 87.8485 50.4015 88.3642 49.9285C88.8799 49.4555 89.2239 48.822 89.3416 48.1287L90.2652 43.6868H91.5725L89.8957 51.7166H88.6342L88.8804 50.5095H88.8495C88.5175 50.9481 88.089 51.3028 87.5979 51.5455C87.1068 51.7881 86.5664 51.9121 86.0197 51.9077C84.5221 51.9057 83.7978 51.2529 83.7978 49.8386L83.8029 49.8366ZM30.7047 50.7691L30.6738 50.7389C30.3641 51.1448 29.9573 51.4647 29.4916 51.6685C29.0259 51.8722 28.5165 51.9531 28.0113 51.9036C27.6975 51.9486 27.3779 51.9225 27.0753 51.8271C26.7727 51.7318 26.4949 51.5697 26.2621 51.3526C26.0293 51.1354 25.8473 50.8686 25.7294 50.5716C25.6114 50.2746 25.5605 49.9548 25.5802 49.6354C25.5802 47.3058 27.842 47.1509 29.5976 46.995C30.9816 46.8713 31.5965 46.7938 31.5965 45.7226C31.5965 44.8525 30.6886 44.6665 29.9961 44.6665C28.9997 44.6665 28.0113 45.0689 27.8579 46.1109H26.5496C26.8117 44.3235 28.3042 43.4956 29.9961 43.4956C31.5355 43.4956 32.9057 43.9161 32.9057 45.5466C32.87 46.0403 32.7872 46.5295 32.6585 47.0072L32.1513 49.1958C32.0442 49.5719 31.9712 49.9571 31.9331 50.3466C31.9331 50.7187 32.1025 50.8425 32.3187 50.8425C32.4622 50.8287 32.6027 50.7923 32.7352 50.7348L32.5359 51.7126C32.2856 51.8291 32.0143 51.8928 31.7388 51.8997C31.5905 51.9203 31.4395 51.9045 31.2985 51.8538C31.1575 51.803 31.0308 51.7187 30.929 51.608C30.8271 51.4972 30.7532 51.3634 30.7134 51.2177C30.6737 51.0721 30.6692 50.9188 30.7006 50.771L30.7047 50.7691ZM28.6582 48.1599C27.7196 48.2997 26.8885 48.5943 26.8885 49.6203C26.8885 50.3666 27.581 50.7389 28.3183 50.7389C28.7494 50.7759 29.1824 50.6977 29.574 50.5121C29.9656 50.3265 30.302 50.0401 30.5492 49.6817C30.91 49.0449 31.1449 48.3437 31.2416 47.6167H31.2119C30.3954 47.9413 29.5308 48.1256 28.654 48.1618L28.6582 48.1599ZM172.02 49.1848H173.328C173.266 50.3807 174.265 50.7379 175.358 50.7379C176.205 50.7379 177.175 50.4271 177.175 49.5108C177.175 48.7352 176.127 48.4234 175.082 47.9879C174.019 47.5694 172.973 47.0252 172.973 45.8142C172.973 44.3225 174.45 43.5006 175.928 43.5006C177.407 43.5006 178.928 44.1686 178.928 46.0486H177.621C177.681 45.1312 176.882 44.6665 175.974 44.6665C175.177 44.6665 174.28 44.8837 174.28 45.6914C174.28 46.4377 175.327 46.7315 176.373 47.167C177.418 47.6026 178.478 48.1608 178.478 49.4192C178.478 51.2056 176.77 51.9046 175.233 51.9046C173.416 51.9046 172 51.2368 172.016 49.1869L172.02 49.1848ZM125.411 48.5471C125.411 45.9228 127.075 43.4996 129.858 43.4996C130.303 43.4473 130.754 43.497 131.177 43.645C131.601 43.793 131.986 44.0355 132.304 44.3545C132.622 44.6734 132.865 45.0606 133.014 45.4873C133.163 45.914 133.216 46.3692 133.167 46.819C133.167 49.4434 131.55 51.8986 128.766 51.8986C128.32 51.9291 127.873 51.8637 127.455 51.7067C127.036 51.5497 126.656 51.3048 126.338 50.9881C126.021 50.6714 125.774 50.2901 125.613 49.8697C125.452 49.4492 125.382 48.9991 125.407 48.5491L125.411 48.5471ZM126.719 48.533C126.692 48.8295 126.729 49.1285 126.829 49.4086C126.93 49.6887 127.09 49.9431 127.298 50.1537C127.507 50.3642 127.759 50.5257 128.037 50.6267C128.314 50.7276 128.61 50.7656 128.904 50.7379C130.812 50.7379 131.858 48.5159 131.858 46.9326C131.893 46.6397 131.864 46.3427 131.773 46.0623C131.682 45.7819 131.532 45.5249 131.333 45.309C131.134 45.0932 130.89 44.9237 130.62 44.8124C130.349 44.701 130.058 44.6505 129.766 44.6644C127.763 44.6714 126.711 46.8723 126.711 48.535L126.719 48.533ZM114.197 49.1848H115.505C115.443 50.3807 116.444 50.7379 117.537 50.7379C118.383 50.7379 119.354 50.4271 119.354 49.5108C119.354 48.7352 118.306 48.4234 117.261 47.9879C116.199 47.5694 115.154 47.0252 115.154 45.8142C115.154 44.3225 116.63 43.5006 118.107 43.5006C119.585 43.5006 121.106 44.1686 121.106 46.0486H119.799C119.861 45.1312 119.061 44.6665 118.154 44.6665C117.357 44.6665 116.46 44.8837 116.46 45.6914C116.46 46.4377 117.506 46.7315 118.553 47.167C119.599 47.6026 120.661 48.1608 120.661 49.4192C120.661 51.2056 118.951 51.9046 117.414 51.9046C115.594 51.9046 114.179 51.2368 114.194 49.1869L114.197 49.1848ZM75.0047 48.5471C75.0047 45.9228 76.6666 43.4996 79.4505 43.4996C79.8957 43.4473 80.3469 43.497 80.7704 43.645C81.194 43.793 81.5791 44.0355 81.8969 44.3545C82.2148 44.6735 82.4574 45.0607 82.6065 45.4874C82.7557 45.9141 82.8077 46.3693 82.7586 46.819C82.7586 49.4434 81.1434 51.8986 78.3576 51.8986C77.9121 51.9292 77.4654 51.864 77.0469 51.707C76.6284 51.5501 76.2477 51.3051 75.9301 50.9884C75.6125 50.6716 75.365 50.2905 75.2045 49.8699C75.0439 49.4494 74.9738 48.9991 74.9987 48.5491L75.0047 48.5471ZM76.312 48.533C76.2845 48.8296 76.3221 49.1287 76.4222 49.4089C76.5223 49.6891 76.6823 49.9435 76.891 50.154C77.0996 50.3646 77.3519 50.5261 77.6295 50.627C77.9071 50.7279 78.2032 50.7658 78.4969 50.7379C80.405 50.7379 81.4503 48.5159 81.4503 46.9326C81.4848 46.6397 81.4557 46.3427 81.3649 46.0623C81.2742 45.7819 81.124 45.5249 80.9249 45.309C80.7258 45.0932 80.4825 44.9237 80.2119 44.8124C79.9413 44.701 79.6497 44.6505 79.3578 44.6644C77.3551 44.6714 76.3091 46.8723 76.3091 48.535L76.312 48.533ZM104.31 51.7166L102.741 40.6269H104.235L105.359 50.2722H105.389L110.604 40.6269H112.16L105.958 51.7166H104.31ZM69.1619 51.7166L70.0995 47.2586L67.2101 40.6279H68.7635L71.0092 46.0002L75.1782 40.6279H76.872L71.5483 47.2586L70.5938 51.7166H69.1619ZM38.6726 51.7166L37.1184 47.4456L35.547 48.8539L34.9493 51.7116H33.642L35.9656 40.6219H37.2607L35.8917 47.1449L35.9226 47.1761L39.9232 43.6817H41.6308L38.1695 46.647L40.1384 51.7116L38.6726 51.7166ZM22.0331 51.7166L24.2791 42.0079H24.2482L18.6474 51.7166H17.2475L15.8166 42.0079H15.7857L13.8638 51.7166H12.4628L14.7716 40.6269H16.8021L18.2638 50.1635H18.2957L23.7239 40.6269H25.7566L23.433 51.7166H22.0331ZM166.963 51.7166L168.625 43.6868H169.855L169.471 45.4108H169.503C169.761 44.8525 170.168 44.3779 170.678 44.0403C171.188 43.7027 171.782 43.5154 172.392 43.4996C172.546 43.4847 172.701 43.4847 172.854 43.4996L172.546 44.9079C172.418 44.8968 172.29 44.8924 172.162 44.8947C171.898 44.8818 171.633 44.9073 171.377 44.9703C170.668 45.1738 170.063 45.6411 169.683 46.2778C169.348 46.8569 169.124 47.4948 169.023 48.1578L168.269 51.7136L166.963 51.7166ZM139.164 51.7166L140.178 47.0262C140.269 46.6168 140.331 46.2013 140.363 45.783C140.363 45.0215 139.748 44.6655 138.978 44.6655C138.226 44.7028 137.518 45.0378 137.009 45.5979C136.561 46.0585 136.256 46.6414 136.133 47.2747L135.209 51.7155H133.902L135.578 43.6858H136.84L136.594 44.8988H136.624C136.956 44.4599 137.385 44.1051 137.877 43.8622C138.368 43.6194 138.909 43.4952 139.456 43.4996C140.95 43.4996 141.671 44.1514 141.671 45.5647C141.642 46.0941 141.565 46.6198 141.44 47.1349L140.471 51.7166H139.164ZM121.657 51.7166L123.318 43.6868H124.627L122.965 51.7166H121.657ZM110.844 51.7166L112.505 43.6868H113.813L112.151 51.7166H110.844ZM92.0459 51.7166L93.7078 43.6868H94.9385L94.5548 45.4108H94.5857C94.8443 44.853 95.2513 44.3788 95.7616 44.0413C96.2719 43.7037 96.8653 43.5162 97.4751 43.4996C97.6286 43.4847 97.7829 43.4847 97.9364 43.4996L97.6296 44.9079C97.5014 44.8968 97.3727 44.8923 97.244 44.8947C96.9804 44.8819 96.7162 44.9074 96.4598 44.9703C95.7513 45.1734 95.1458 45.6408 94.766 46.2778C94.4304 46.8568 94.2061 47.4947 94.1053 48.1578L93.3512 51.7136L92.0459 51.7166ZM49.7145 51.7166L50.7308 47.0262C50.8209 46.6166 50.8826 46.2012 50.9152 45.783C50.9152 45.0215 50.2996 44.6655 49.5304 44.6655C48.7781 44.7028 48.0707 45.0378 47.5614 45.5979C47.1132 46.0585 46.8079 46.6413 46.6835 47.2747L45.7608 51.7155H44.4548L46.1316 43.6858H47.3921L47.146 44.8988H47.1768C47.5085 44.4598 47.9368 44.1048 48.4279 43.862C48.9191 43.6191 49.4595 43.4951 50.0064 43.4996C51.501 43.4996 52.2225 44.1514 52.2225 45.5647C52.195 46.0943 52.1173 46.6202 51.9904 47.1349L51.0227 51.7166H49.7145ZM41.038 51.7166L42.6999 43.6868H44.0072L42.3462 51.7166H41.038ZM123.611 42.2433L123.95 40.6269H125.272L124.934 42.2433H123.611ZM112.797 42.2433L113.136 40.6269H114.455L114.118 42.2433H112.797ZM42.9921 42.2433L43.3297 40.6269H44.654L44.3142 42.2433H42.9921ZM86.9983 28.8231L85.3242 30.6919H84.4456L84.4633 21.8404H85.6949C86.9155 27.1353 89.547 29.8038 93.414 29.8038C97.4174 29.8038 100.189 27.2228 100.197 23.4428C100.204 20.7269 98.6239 19.1276 94.9771 18.1056L92.2084 17.3009C87.0272 15.8333 84.6137 13.2111 84.6207 8.36082C84.6317 3.3315 87.7593 0.0432815 92.5918 0.0432815C94.836 -0.0567554 97.0344 0.706835 98.7425 2.17976L100.459 0.352089H101.121L101.104 8.7169H100.094C98.873 3.68758 96.2396 1.19698 92.5888 1.19698C89.2011 1.19698 86.8249 3.33453 86.8219 6.26965C86.815 8.98548 88.6591 9.87559 91.9542 10.7628L95.0759 11.653C100.083 13.033 102.585 15.7468 102.576 21.0417C102.563 26.9129 98.9945 31.1003 93.5862 31.1003C91.1987 31.1097 88.8775 30.308 86.9961 28.8241L86.9983 28.8231ZM106.454 15.5668C106.471 6.58038 112.287 0.0382473 119.935 0.0382473C127.582 0.0382473 133.332 6.57635 133.315 15.5668C133.297 24.5079 127.568 31.0491 119.876 31.0491C112.184 31.0491 106.435 24.5099 106.453 15.5678L106.454 15.5668ZM112.703 11.8742L112.689 19.2171C112.675 26.6907 114.649 29.9396 119.834 29.9396C125.019 29.9396 127.008 26.6907 127.021 19.2171L127.035 11.8742C127.048 4.40065 125.077 1.15081 119.89 1.15081C114.703 1.15081 112.719 4.40176 112.702 11.8804L112.703 11.8742ZM0.00223118 15.5668C0.0191697 6.58038 5.83501 0.0382473 13.4862 0.0382473C21.1374 0.0382473 26.8784 6.57635 26.8605 15.5668C26.8436 24.5079 21.1185 31.0491 13.4235 31.0491C5.72841 31.0491 -0.017893 24.5099 4.18663e-05 15.5678L0.00223118 15.5668ZM6.25345 11.8742L6.23643 19.2171C6.22248 26.6907 8.19745 29.9396 13.3816 29.9396C18.5658 29.9396 20.5555 26.6907 20.5684 19.2171L20.5854 11.8742C20.5994 4.40065 18.6265 1.15081 13.4373 1.15081C8.24817 1.15081 6.26528 4.40176 6.24835 11.8804L6.25345 11.8742ZM30.631 15.5668C30.6479 6.67091 36.067 0.0422992 44.07 0.0422992C46.602 -0.09149 49.0974 0.698235 51.1006 2.26731L52.7287 0.574455H53.5665L53.5497 9.11718H52.4536C51.2759 3.82231 48.4243 1.196 43.8968 1.196C38.7953 1.196 36.8115 4.39964 36.7976 11.8742L36.7834 19.2171C36.7695 26.6464 38.6976 29.9396 43.7961 29.9396C48.7192 29.9396 51.8887 26.9562 53.0016 21.3536H54.1883L54.1705 30.5623H53.3325L51.5788 28.6048C49.2837 30.2532 46.5236 31.111 43.7075 31.0511C36.2257 31.0491 30.6109 24.5089 30.6288 15.5678L30.631 15.5668ZM59.2081 25.6254C59.2081 25.5339 59.1663 25.2694 59.1663 24.8208L59.1882 14.058H56.3734V13.0331H59.1424C60.7322 13.0011 62.3182 12.8667 63.8911 12.6307L63.8672 25.3991C63.8602 27.9802 64.2539 29.1339 65.8371 29.1339C68.5642 29.1339 71.0741 25.9755 71.08 22.3715L71.098 14.054H68.3259V13.029H71.0939C72.6837 12.9973 74.27 12.8628 75.8428 12.6267L75.8119 29.3089H78.7142V30.3298H75.9014C74.3143 30.3617 72.7301 30.4802 71.1557 30.6849L71.1618 26.7289H70.7631C69.133 29.4447 67.1931 30.7312 64.5547 30.7312C60.9557 30.7373 59.1992 29.0474 59.2062 25.6225L59.2081 25.6254ZM170.68 30.342V29.2294H175.384L175.437 1.69095H174.077C169.373 1.69095 167.741 3.60199 166.542 10.1401H165.224L165.638 0.709151H191.003L191.381 10.1401H190.063C188.979 3.86654 187.266 1.64159 182.561 1.64159C182.122 1.64159 181.637 1.64161 181.152 1.68788L181.1 29.2265H185.85V30.3389L170.68 30.342ZM136.129 30.342V29.2294H140.392L140.445 1.86997H136.183V0.711238H160.143L160.433 9.58291H159.425C158.599 3.59802 156.536 1.86997 151.614 1.86997H146.161L146.136 14.4161H146.666C150.841 14.4161 152.34 13.3097 152.786 8.96333H153.798L153.777 20.8636H152.76C152.333 16.3715 150.84 15.3475 146.443 15.3475H146.136L146.109 29.2285H150.726V30.3409L136.129 30.342ZM194.774 3.95611C194.503 3.85886 194.251 3.71339 194.031 3.5266C193.824 3.34219 193.652 3.12008 193.525 2.87178C193.402 2.61355 193.339 2.33045 193.341 2.04396C193.341 1.76502 193.404 1.48965 193.525 1.23922C193.65 0.991444 193.822 0.771296 194.031 0.591522C194.25 0.402874 194.502 0.257199 194.774 0.162016C195.064 0.0528019 195.371 -0.00208919 195.68 6.07957e-05C195.987 -0.00183563 196.291 0.053067 196.577 0.162016C196.847 0.257359 197.097 0.403057 197.313 0.591522C197.522 0.770882 197.691 0.991249 197.812 1.23922C197.937 1.48863 198.001 1.76447 198 2.04396C198.002 2.33099 197.938 2.61456 197.812 2.87178C197.689 3.12033 197.52 3.34266 197.313 3.5266C197.096 3.71319 196.846 3.85868 196.577 3.95611C196.289 4.05925 195.986 4.11065 195.68 4.108C195.371 4.1095 195.063 4.05639 194.772 3.95108L194.774 3.95611ZM194.917 0.435583C194.693 0.516958 194.487 0.642013 194.31 0.803696C194.14 0.957146 194.002 1.14403 193.906 1.35292C193.81 1.57003 193.761 1.80529 193.762 2.04298C193.76 2.28527 193.809 2.52518 193.906 2.74703C194.003 2.95793 194.14 3.14707 194.31 3.30326C194.488 3.46496 194.693 3.59165 194.917 3.67653C195.161 3.76834 195.42 3.81333 195.68 3.80926C195.936 3.81312 196.19 3.76811 196.43 3.67653C196.651 3.59129 196.853 3.46458 197.028 3.30326C197.2 3.14908 197.338 2.95944 197.432 2.74703C197.532 2.52606 197.583 2.28585 197.582 2.04298C197.582 1.80472 197.531 1.56917 197.432 1.35292C197.338 1.1425 197.2 0.955108 197.028 0.803696C196.854 0.642517 196.651 0.517451 196.43 0.435583C196.191 0.341986 195.937 0.294948 195.68 0.296835C195.419 0.293154 195.16 0.33878 194.915 0.431531L194.917 0.435583ZM196.382 3.25205L195.642 2.21697H195.196V3.25205H194.774V0.848022H195.824C196.073 0.829241 196.321 0.887863 196.535 1.01599C196.615 1.07525 196.678 1.15358 196.72 1.24388C196.761 1.33419 196.78 1.43353 196.773 1.53292C196.781 1.62378 196.765 1.71512 196.729 1.79863C196.693 1.88215 196.637 1.95534 196.566 2.01179C196.416 2.11633 196.24 2.17714 196.058 2.18774L196.832 3.25095L196.382 3.25205ZM195.196 1.91417H195.636C195.735 1.91417 195.82 1.91419 195.904 1.90816C195.981 1.90435 196.058 1.88776 196.131 1.85892C196.194 1.83831 196.249 1.79777 196.287 1.74326C196.333 1.6774 196.355 1.59803 196.35 1.51794C196.353 1.45004 196.334 1.38296 196.294 1.32775C196.259 1.27945 196.212 1.2408 196.159 1.21515C196.096 1.18684 196.028 1.17007 195.96 1.16579C195.89 1.15523 195.82 1.1506 195.75 1.1518H195.192L195.196 1.91417Z" fill="#0D1E47"/>
</svg>
