<svg width="17" height="29" viewBox="0 0 17 29" fill="none" xmlns="http://www.w3.org/2000/svg">
<g id="Layer_1" clip-path="url(#clip0_1044_5266)">
<path id="Vector" d="M8.30004 0C9.34004 4.7 11.5 8.82 13.74 12.92C14.57 14.39 15.33 15.9 16 17.45C17.47 21.03 16.4 24.75 13.31 27.19C11.89 28.26 10.18 28.84 8.40004 28.86C6.63004 28.88 4.90004 28.34 3.46004 27.31C1.97004 26.25 0.870039 24.73 0.340039 22.97C-0.179961 21.22 -0.0999612 19.34 0.570039 17.63C1.05004 16.42 1.60004 15.25 2.23004 14.12C4.68004 9.62 7.24004 5.19 8.30004 0ZM12.51 25.46C15.84 23.06 16.23 18.73 13.67 16.42C14.49 19.47 14.07 22.72 12.51 25.46Z" fill="#1A428A"/>
</g>
<defs>
<clipPath id="clip0_1044_5266">
<rect width="16.65" height="28.85" fill="white"/>
</clipPath>
</defs>
</svg>
